<svg width="35" height="35" viewBox="0 0 35 35" fill="none" xmlns="http://www.w3.org/2000/svg">
<path d="M29.5458 8.16972C29.5312 8.15514 29.5094 8.14055 29.4875 8.11868C27.7448 6.71868 25.4114 6.0041 23.7635 5.66139C22.1375 5.31868 20.5114 6.24472 19.9864 7.81243C19.9792 7.8416 19.9646 7.86347 19.9573 7.89264C22.6917 8.16972 25.1344 8.92076 27.1177 10.0947C27.6354 10.401 27.8031 11.0718 27.4969 11.5968C27.2927 11.9395 26.9281 12.1291 26.5562 12.1291C26.3667 12.1291 26.1698 12.0781 25.9948 11.976C23.7635 10.6489 20.8031 9.94889 17.4417 9.94889C14.0802 9.94889 11.1198 10.6489 8.88853 11.976C8.36353 12.2822 7.6927 12.1145 7.38645 11.5968C7.0802 11.0718 7.24791 10.401 7.76561 10.0947C9.74895 8.92076 12.1917 8.16972 14.926 7.89264C14.9187 7.86347 14.9042 7.8416 14.8969 7.81243C14.3719 6.24472 12.7458 5.31868 11.1198 5.66139C9.47187 6.0041 7.13853 6.71868 5.39582 8.11868C5.37395 8.14055 5.35207 8.15514 5.33749 8.16972C3.71874 9.6718 0.729156 17.3135 0.729156 24.2551C0.729156 24.4447 0.772906 24.627 0.867698 24.7947C2.64686 27.9228 6.83957 29.0676 8.5677 29.4103C8.77916 29.4541 8.99061 29.476 9.20207 29.476C10.2375 29.476 11.2364 28.9801 11.8562 28.1197L12.2354 27.602C8.4802 26.7124 6.5552 25.1083 6.44582 25.0135C5.98645 24.6197 5.92812 23.9343 6.32187 23.4749C6.71562 23.0156 7.40103 22.9572 7.86041 23.3437C7.91874 23.3947 11.1344 25.9978 17.4417 25.9978C23.7781 25.9978 26.9937 23.3728 27.0229 23.3437C27.4823 22.9572 28.175 23.0156 28.5614 23.4822C28.9479 23.9416 28.8969 24.627 28.4375 25.0135C28.3281 25.1083 26.4031 26.7124 22.6479 27.602L23.0271 28.1197C23.6469 28.9801 24.6458 29.476 25.6812 29.476C25.8927 29.476 26.1042 29.4541 26.3156 29.4103C28.0437 29.0676 32.2364 27.9228 34.0156 24.7947C34.1104 24.627 34.1542 24.4447 34.1542 24.2551C34.1542 17.3135 31.1646 9.6718 29.5458 8.16972ZM12.7239 22.2791C11.3312 22.2791 10.201 20.9885 10.201 19.3916C10.201 17.7947 11.3312 16.5041 12.7239 16.5041C14.1239 16.5041 15.2542 17.7947 15.2542 19.3916C15.2542 20.9885 14.1239 22.2791 12.7239 22.2791ZM22.1375 22.3374C20.7302 22.3374 19.5854 21.0322 19.5854 19.4208C19.5854 17.8093 20.7302 16.5041 22.1375 16.5041C23.5521 16.5041 24.6896 17.8093 24.6896 19.4208C24.6896 21.0322 23.5521 22.3374 22.1375 22.3374Z" fill="#8D9EFF"/>
</svg>
