<svg width="460" height="73" viewBox="0 0 460 73" fill="none" xmlns="http://www.w3.org/2000/svg">
<path d="M8.30966 14.3636V12.3636H6.61432L6.33666 14.0361L8.30966 14.3636ZM17.5142 14.3636L19.4872 14.6914L19.8739 12.3636H17.5142V14.3636ZM12.9545 41.8068L10.9816 41.479L10.5948 43.8068H12.9545V41.8068ZM13.3381 41.8068V43.8068H14.2612L14.8601 43.1043L13.3381 41.8068ZM36.733 14.3636V12.3636H35.8098L35.2109 13.0661L36.733 14.3636ZM44.8082 14.3636L46.7812 14.6912L47.1676 12.3636H44.8082V14.3636ZM37.5639 58V60H39.2593L39.5369 58.3275L37.5639 58ZM28.3381 58L26.3651 57.6724L25.9787 60H28.3381V58ZM32.8977 30.5355L34.8707 30.8631L35.2571 28.5355H32.8977V30.5355ZM32.5781 30.5355V28.5355H31.6578L31.0591 29.2345L32.5781 30.5355ZM9.0554 58V60H9.97573L10.5744 59.301L9.0554 58ZM1.06534 58L-0.907655 57.6725L-1.29406 60H1.06534V58ZM8.30966 16.3636H17.5142V12.3636H8.30966V16.3636ZM15.5413 14.0358L10.9816 41.479L14.9275 42.1346L19.4872 14.6914L15.5413 14.0358ZM12.9545 43.8068H13.3381V39.8068H12.9545V43.8068ZM14.8601 43.1043L38.255 15.6611L35.2109 13.0661L11.8161 40.5093L14.8601 43.1043ZM36.733 16.3636H44.8082V12.3636H36.733V16.3636ZM42.8352 14.0361L35.5909 57.6725L39.5369 58.3275L46.7812 14.6912L42.8352 14.0361ZM37.5639 56H28.3381V60H37.5639V56ZM30.3111 58.3276L34.8707 30.8631L30.9247 30.208L26.3651 57.6724L30.3111 58.3276ZM32.8977 28.5355H32.5781V32.5355H32.8977V28.5355ZM31.0591 29.2345L7.53639 56.699L10.5744 59.301L34.0971 31.8365L31.0591 29.2345ZM9.0554 56H1.06534V60H9.0554V56ZM3.03834 58.3275L10.2827 14.6912L6.33666 14.0361L-0.907655 57.6725L3.03834 58.3275ZM45.1864 58L43.2134 57.6725L42.827 60H45.1864V58ZM52.4308 14.3636V12.3636H50.7354L50.4578 14.0361L52.4308 14.3636ZM61.6566 14.3636L63.6297 14.6905L64.0152 12.3636H61.6566V14.3636ZM58.6737 32.3679L56.7005 32.041L56.315 34.3679H58.6737V32.3679ZM77.4023 32.3679V34.3679H79.0982L79.3754 32.6948L77.4023 32.3679ZM80.3853 14.3636V12.3636H78.6894L78.4122 14.0367L80.3853 14.3636ZM89.5898 14.3636L91.5628 14.6912L91.9492 12.3636H89.5898V14.3636ZM82.3455 58V60H84.0409L84.3185 58.3275L82.3455 58ZM73.141 58L71.1678 57.6735L70.7828 60H73.141V58ZM76.1239 39.9744L78.0971 40.301L78.4821 37.9744H76.1239V39.9744ZM57.3952 39.9744V37.9744H55.699L55.4221 39.6479L57.3952 39.9744ZM54.4123 58V60H56.1085L56.3855 58.3265L54.4123 58ZM47.1594 58.3275L54.4037 14.6912L50.4578 14.0361L43.2134 57.6725L47.1594 58.3275ZM52.4308 16.3636H61.6566V12.3636H52.4308V16.3636ZM59.6835 14.0367L56.7005 32.041L60.6468 32.6948L63.6297 14.6905L59.6835 14.0367ZM58.6737 34.3679H77.4023V30.3679H58.6737V34.3679ZM79.3754 32.6948L82.3584 14.6905L78.4122 14.0367L75.4292 32.041L79.3754 32.6948ZM80.3853 16.3636H89.5898V12.3636H80.3853V16.3636ZM87.6168 14.0361L80.3725 57.6725L84.3185 58.3275L91.5628 14.6912L87.6168 14.0361ZM82.3455 56H73.141V60H82.3455V56ZM75.1141 58.3265L78.0971 40.301L74.1508 39.6479L71.1678 57.6735L75.1141 58.3265ZM76.1239 37.9744H57.3952V41.9744H76.1239V37.9744ZM55.4221 39.6479L52.4391 57.6735L56.3855 58.3265L59.3684 40.301L55.4221 39.6479ZM54.4123 56H45.1864V60H54.4123V56ZM132.417 21.267L133.447 19.5529L133.447 19.5529L132.417 21.267ZM137.722 27.5099L135.866 28.2561L135.871 28.268L137.722 27.5099ZM138.446 36.9276L136.474 36.5937L136.473 36.604L136.471 36.6144L138.446 36.9276ZM127.282 52.1406L128.159 53.9381L128.166 53.9346L127.282 52.1406ZM98.8583 52.1619L97.8543 53.8917L97.866 53.8984L98.8583 52.1619ZM93.4677 46.1108L91.6278 46.895L91.6315 46.9035L93.4677 46.1108ZM92.6793 36.9062L90.7074 36.5724L90.7059 36.5813L92.6793 36.9062ZM96.5998 27.4886L98.1998 28.6886L98.2028 28.6846L96.5998 27.4886ZM104.057 21.267L104.941 23.061L104.948 23.0576L104.057 21.267ZM107.275 27.8935L108.136 29.6986L108.143 29.6952L107.275 27.8935ZM103.375 31.2599L105.015 32.4048L105.015 32.4048L103.375 31.2599ZM101.223 36.9062L99.2516 36.5714L99.2497 36.5829L99.2478 36.5943L101.223 36.9062ZM101.586 42.2969L99.7324 43.0491L99.7324 43.0491L101.586 42.2969ZM104.419 45.5142L103.464 47.2715L103.464 47.2715L104.419 45.5142ZM124.022 45.4929L123.161 43.6875L123.161 43.6875L124.022 45.4929ZM127.814 42.2543L126.186 41.0933L126.178 41.1041L127.814 42.2543ZM129.838 36.9276L127.867 36.5927L127.864 36.6076L127.862 36.6224L129.838 36.9276ZM129.625 31.2812L127.732 31.9244L127.734 31.9324L127.737 31.9404L129.625 31.2812ZM126.941 27.8935L125.917 29.6119L125.926 29.6168L126.941 27.8935ZM123.787 13.5966L125.761 13.9207L126.142 11.5966H123.787V13.5966ZM116.202 59.7898V61.7898H117.9L118.176 60.1138L116.202 59.7898ZM107.445 59.7898L105.471 59.4657L105.09 61.7898H107.445V59.7898ZM115.03 13.5966V11.5966H113.332L113.057 13.2725L115.03 13.5966ZM113.709 21.0511H123.468V17.0511H113.709V21.0511ZM123.468 21.0511C126.694 21.0511 129.303 21.7287 131.386 22.9812L133.447 19.5529C130.616 17.8508 127.258 17.0511 123.468 17.0511V21.0511ZM131.386 22.9812C133.467 24.2319 134.948 25.9713 135.866 28.2561L139.578 26.7638C138.337 23.6793 136.281 21.2567 133.447 19.5529L131.386 22.9812ZM135.871 28.268C136.79 30.5115 137.039 33.2562 136.474 36.5937L140.418 37.2614C141.075 33.383 140.841 29.8493 139.573 26.7519L135.871 28.268ZM136.471 36.6144C135.964 39.8109 134.82 42.5434 133.061 44.8585L136.246 47.2779C138.437 44.3941 139.821 41.0329 140.422 37.2407L136.471 36.6144ZM133.061 44.8585C131.275 47.2097 129.061 49.0343 126.398 50.3466L128.166 53.9346C131.383 52.3492 134.083 50.1255 136.246 47.2779L133.061 44.8585ZM126.405 50.3432C123.757 51.635 120.835 52.2926 117.608 52.2926V56.2926C121.398 56.2926 124.926 55.5155 128.159 53.9381L126.405 50.3432ZM117.608 52.2926H107.85V56.2926H117.608V52.2926ZM107.85 52.2926C104.611 52.2926 101.973 51.6383 99.8506 50.4254L97.866 53.8984C100.715 55.5265 104.071 56.2926 107.85 56.2926V52.2926ZM99.8623 50.4322C97.7576 49.2105 96.2545 47.5202 95.3039 45.3181L91.6315 46.9035C92.9252 49.9003 95.0158 52.244 97.8543 53.8916L99.8623 50.4322ZM95.3075 45.3266C94.3838 43.1594 94.1157 40.4931 94.6528 37.2312L90.7059 36.5813C90.0782 40.3933 90.3357 43.8633 91.6278 46.895L95.3075 45.3266ZM94.6513 37.2401C95.2141 33.9156 96.4061 31.0803 98.1998 28.6886L94.9998 26.2886C92.7878 29.2379 91.3662 32.681 90.7074 36.5724L94.6513 37.2401ZM98.2028 28.6846C100.019 26.2501 102.26 24.3826 104.941 23.061L103.173 19.4731C99.9173 21.0776 97.1862 23.3579 94.9967 26.2927L98.2028 28.6846ZM104.948 23.0576C107.628 21.7244 110.538 21.0511 113.709 21.0511V17.0511C109.948 17.0511 106.424 17.8552 103.166 19.4765L104.948 23.0576ZM112.431 24.7642C110.28 24.7642 108.261 25.198 106.406 26.0917L108.143 29.6952C109.413 29.0832 110.832 28.7642 112.431 28.7642V24.7642ZM106.413 26.0884C104.531 26.9865 102.97 28.3463 101.735 30.1151L105.015 32.4048C105.883 31.1622 106.922 30.2777 108.136 29.6986L106.413 26.0884ZM101.735 30.1151C100.479 31.9153 99.6726 34.0919 99.2516 36.5714L103.195 37.2411C103.541 35.2036 104.17 33.616 105.015 32.4048L101.735 30.1151ZM99.2478 36.5943C98.8724 38.972 98.9681 41.1663 99.7324 43.0491L103.439 41.5446C103.038 40.5581 102.893 39.1586 103.199 37.2182L99.2478 36.5943ZM99.7324 43.0491C100.481 44.8935 101.733 46.3306 103.464 47.2715L105.374 43.757C104.492 43.2774 103.855 42.5695 103.439 41.5446L99.7324 43.0491ZM103.464 47.2715C105.125 48.1739 107.039 48.5795 109.128 48.5795V44.5795C107.553 44.5795 106.328 44.275 105.374 43.757L103.464 47.2715ZM109.128 48.5795H118.929V44.5795H109.128V48.5795ZM118.929 48.5795C121.068 48.5795 123.064 48.1648 124.882 47.2983L123.161 43.6875C121.939 44.2699 120.541 44.5795 118.929 44.5795V48.5795ZM124.882 47.2983C126.726 46.4196 128.253 45.1084 129.45 43.4044L126.178 41.1041C125.359 42.2694 124.357 43.1174 123.161 43.6875L124.882 47.2983ZM129.443 43.4152C130.682 41.6773 131.451 39.5921 131.815 37.2327L127.862 36.6224C127.573 38.496 126.992 39.9619 126.186 41.0933L129.443 43.4152ZM131.81 37.2624C132.227 34.8071 132.189 32.5558 131.514 30.6221L127.737 31.9404C128.113 33.018 128.217 34.531 127.867 36.5927L131.81 37.2624ZM131.519 30.6381C130.866 28.7139 129.678 27.1843 127.956 26.1701L125.926 29.6168C126.76 30.1083 127.362 30.8372 127.732 31.9244L131.519 30.6381ZM127.964 26.1751C126.318 25.1951 124.38 24.7642 122.253 24.7642V28.7642C123.848 28.7642 125.035 29.0862 125.917 29.6118L127.964 26.1751ZM122.253 24.7642H112.431V28.7642H122.253V24.7642ZM121.814 13.2725L114.228 59.4657L118.176 60.1138L125.761 13.9207L121.814 13.2725ZM116.202 57.7898H107.445V61.7898H116.202V57.7898ZM109.419 60.1138L117.004 13.9207L113.057 13.2725L105.471 59.4657L109.419 60.1138ZM115.03 15.5966H123.787V11.5966H115.03V15.5966ZM185.385 36.7784L187.357 37.115L187.359 37.1025L185.385 36.7784ZM180.762 48.6463L179.126 47.496L179.122 47.5008L180.762 48.6463ZM172.431 56.0611L171.515 54.2831L171.512 54.2848L172.431 56.0611ZM151.614 55.8906L150.546 57.5814L150.549 57.5838L151.614 55.8906ZM145.414 48.071L143.54 48.7707L143.541 48.7733L145.414 48.071ZM144.689 35.6918L146.663 36.0168L146.663 36.0157L144.689 35.6918ZM149.27 23.8026L150.906 24.9528L150.909 24.9495L149.27 23.8026ZM157.644 16.3452L158.563 18.1216L158.569 18.1185L157.644 16.3452ZM178.461 16.4943L177.386 18.1813L177.39 18.1837L178.461 16.4943ZM184.661 24.3778L182.784 25.0682L182.787 25.0775L184.661 24.3778ZM176.202 35.6918L178.175 36.0206L178.175 36.019L176.202 35.6918ZM176.138 28.1491L174.201 28.6469L174.203 28.6548L174.205 28.6628L176.138 28.1491ZM173.24 23.5043L174.438 21.9023L174.438 21.9023L173.24 23.5043ZM161.5 23.6747L160.473 21.9586L160.468 21.962L161.5 23.6747ZM156.6 28.7457L154.887 27.7135L154.885 27.7167L156.6 28.7457ZM153.851 36.7784L155.823 37.1132L155.824 37.1059L155.825 37.0986L153.851 36.7784ZM153.894 44.321L151.962 44.8381L151.965 44.8507L153.894 44.321ZM156.855 48.902L155.676 50.5174L155.685 50.524L155.695 50.5305L156.855 48.902ZM168.553 48.7315L169.573 50.4521L169.576 50.4499L168.553 48.7315ZM173.432 43.7244L175.144 44.7583L175.147 44.7534L173.432 43.7244ZM183.414 36.4418C182.659 40.8628 181.212 44.5277 179.126 47.496L182.398 49.7966C184.885 46.2592 186.521 42.0122 187.357 37.115L183.414 36.4418ZM179.122 47.5008C177.021 50.5077 174.486 52.7527 171.515 54.2831L173.347 57.839C176.938 55.9887 179.957 53.2906 182.401 49.7918L179.122 47.5008ZM171.512 54.2848C168.537 55.824 165.33 56.5966 161.863 56.5966V60.5966C165.952 60.5966 169.791 59.6788 173.35 57.8374L171.512 54.2848ZM161.863 56.5966C158.211 56.5966 155.178 55.769 152.679 54.1975L150.549 57.5838C153.788 59.6202 157.588 60.5966 161.863 60.5966V56.5966ZM152.682 54.1998C150.225 52.6475 148.424 50.4033 147.286 47.3688L143.541 48.7733C144.96 52.5569 147.292 55.5258 150.546 57.5814L152.682 54.1998ZM147.287 47.3713C146.166 44.3677 145.905 40.6147 146.663 36.0168L142.716 35.3667C141.882 40.4279 142.105 44.9278 143.54 48.7707L147.287 47.3713ZM146.663 36.0157C147.39 31.5835 148.823 27.9165 150.906 24.9528L147.634 22.6523C145.144 26.1943 143.522 30.4534 142.716 35.3678L146.663 36.0157ZM150.909 24.9495C153.024 21.927 155.576 19.6666 158.563 18.1216L156.725 14.5687C153.121 16.4329 150.09 19.144 147.632 22.6556L150.909 24.9495ZM158.569 18.1185C161.573 16.5518 164.799 15.767 168.276 15.767V11.767C164.168 11.767 160.306 12.7011 156.719 14.5719L158.569 18.1185ZM168.276 15.767C171.893 15.767 174.902 16.599 177.386 18.1813L179.535 14.8073C176.309 12.7533 172.528 11.767 168.276 11.767V15.767ZM177.39 18.1837C179.858 19.7477 181.659 22.0089 182.784 25.0682L186.538 23.6875C185.135 19.8717 182.802 16.8773 179.531 14.8049L177.39 18.1837ZM182.787 25.0775C183.909 28.0808 184.169 31.8409 183.412 36.4543L187.359 37.1025C188.192 32.0285 187.97 27.5215 186.534 23.6782L182.787 25.0775ZM178.175 36.019C178.7 32.857 178.709 30.035 178.071 27.6355L174.205 28.6628C174.647 30.3258 174.699 32.5322 174.229 35.3645L178.175 36.019ZM178.075 27.6514C177.46 25.2572 176.279 23.2788 174.438 21.9023L172.043 25.1062C173.014 25.832 173.765 26.9502 174.201 28.6469L178.075 27.6514ZM174.438 21.9023C172.615 20.5398 170.392 19.9276 167.914 19.9276V23.9276C169.725 23.9276 171.053 24.3665 172.043 25.1062L174.438 21.9023ZM167.914 19.9276C165.233 19.9276 162.738 20.6028 160.473 21.9586L162.528 25.3908C164.154 24.417 165.936 23.9276 167.914 23.9276V19.9276ZM160.468 21.962C158.219 23.3181 156.365 25.26 154.887 27.7135L158.313 29.778C159.505 27.7996 160.919 26.3609 162.533 25.3875L160.468 21.962ZM154.885 27.7167C153.406 30.1822 152.419 33.1133 151.877 36.4583L155.825 37.0986C156.306 34.1367 157.152 31.7127 158.315 29.7747L154.885 27.7167ZM151.879 36.4436C151.34 39.6178 151.321 42.4453 151.962 44.838L155.826 43.804C155.387 42.1626 155.339 39.9617 155.823 37.1132L151.879 36.4436ZM151.965 44.8507C152.615 47.2181 153.824 49.1656 155.676 50.5174L158.035 47.2866C157.046 46.5645 156.28 45.458 155.822 43.7913L151.965 44.8507ZM155.695 50.5305C157.534 51.8418 159.745 52.4361 162.203 52.4361V48.4361C160.4 48.4361 159.046 48.0077 158.016 47.2734L155.695 50.5305ZM162.203 52.4361C164.863 52.4361 167.334 51.7787 169.573 50.4521L167.533 47.011C165.937 47.9571 164.175 48.4361 162.203 48.4361V52.4361ZM169.576 50.4499C171.827 49.1094 173.677 47.1882 175.144 44.7583L171.72 42.6905C170.546 44.6356 169.143 46.0525 167.53 47.0132L169.576 50.4499ZM175.147 44.7534C176.625 42.291 177.618 39.363 178.175 36.0206L174.229 35.363C173.735 38.3274 172.882 40.7545 171.717 42.6954L175.147 44.7534ZM188.683 58L186.71 57.6725L186.323 60H188.683V58ZM195.927 14.3636V12.3636H194.232L193.954 14.0361L195.927 14.3636ZM221.261 16.2599L220.235 17.977L220.242 17.981L220.249 17.985L221.261 16.2599ZM225.735 21.4801L223.867 22.1941L223.87 22.2013L223.872 22.2085L225.735 21.4801ZM226.332 29.1506L228.305 29.4778L228.306 29.4699L226.332 29.1506ZM223.178 36.8423L221.563 35.6623L221.562 35.6641L223.178 36.8423ZM216.914 41.9986L217.78 43.8012L217.78 43.8012L216.914 41.9986ZM197.035 43.8523L195.061 43.5281L194.679 45.8523H197.035V43.8523ZM198.249 36.4588V34.4588H196.551L196.276 36.1346L198.249 36.4588ZM212.312 35.5426L213.182 37.3435L213.19 37.3394L212.312 35.5426ZM215.359 32.9645L217.006 34.0985L217.013 34.0885L215.359 32.9645ZM216.829 29.1506L214.855 28.8249L214.853 28.8376L216.829 29.1506ZM216.594 25.3366L218.471 24.6452L218.471 24.6452L216.594 25.3366ZM214.4 22.8224L213.395 24.5517L213.409 24.5597L213.423 24.5675L214.4 22.8224ZM203.938 21.9062V19.9062H202.245L201.966 21.5767L203.938 21.9062ZM197.908 58V60H199.602L199.881 58.3296L197.908 58ZM190.656 58.3275L197.9 14.6912L193.954 14.0361L186.71 57.6725L190.656 58.3275ZM195.927 16.3636H213.143V12.3636H195.927V16.3636ZM213.143 16.3636C216.195 16.3636 218.516 16.9503 220.235 17.977L222.286 14.5429C219.772 13.0412 216.682 12.3636 213.143 12.3636V16.3636ZM220.249 17.985C222.002 19.0137 223.183 20.4042 223.867 22.1941L227.603 20.7661C226.583 18.0958 224.781 16.0062 222.273 14.5349L220.249 17.985ZM223.872 22.2085C224.581 24.0217 224.782 26.2044 224.357 28.8312L228.306 29.4699C228.819 26.3013 228.622 23.3703 227.598 20.7518L223.872 22.2085ZM224.359 28.8233C223.923 31.4507 222.985 33.7175 221.563 35.6623L224.793 38.0224C226.611 35.5353 227.775 32.6743 228.305 29.4778L224.359 28.8233ZM221.562 35.6641C220.161 37.5863 218.336 39.0963 216.048 40.196L217.78 43.8012C220.635 42.4293 222.986 40.5017 224.794 38.0205L221.562 35.6641ZM216.048 40.196C213.791 41.2805 211.128 41.8523 208.008 41.8523V45.8523C211.621 45.8523 214.895 45.1883 217.78 43.8012L216.048 40.196ZM208.008 41.8523H197.035V45.8523H208.008V41.8523ZM199.008 44.1765L200.223 36.783L196.276 36.1346L195.061 43.5281L199.008 44.1765ZM198.249 38.4588H207.731V34.4588H198.249V38.4588ZM207.731 38.4588C209.742 38.4588 211.582 38.1162 213.182 37.3434L211.442 33.7418C210.513 34.1906 209.299 34.4588 207.731 34.4588V38.4588ZM213.19 37.3394C214.755 36.5745 216.044 35.4959 217.006 34.0985L213.711 31.8305C213.167 32.6206 212.426 33.2608 211.433 33.7458L213.19 37.3394ZM217.013 34.0885C217.945 32.7171 218.535 31.164 218.804 29.4635L214.853 28.8376C214.668 30.0065 214.278 30.996 213.704 31.8404L217.013 34.0885ZM218.802 29.4763C219.084 27.7679 219.018 26.1305 218.471 24.6452L214.718 26.0281C214.966 26.7018 215.057 27.6071 214.856 28.8249L218.802 29.4763ZM218.471 24.6452C217.898 23.0897 216.831 21.8914 215.377 21.0774L213.423 24.5675C214.1 24.9467 214.495 25.4245 214.718 26.0281L218.471 24.6452ZM215.405 21.0932C213.939 20.2417 212.136 19.9062 210.16 19.9062V23.9062C211.735 23.9062 212.758 24.1816 213.395 24.5517L215.405 21.0932ZM210.16 19.9062H203.938V23.9062H210.16V19.9062ZM201.966 21.5767L195.936 57.6704L199.881 58.3296L205.911 22.2358L201.966 21.5767ZM197.908 56H188.683V60H197.908V56ZM234.775 14.3636V12.3636H233.079L232.802 14.0361L234.775 14.3636ZM246.152 14.3636L248.095 13.8879L247.722 12.3636H246.152V14.3636ZM253.333 43.6818L251.39 44.1576L251.763 45.6818H253.333V43.6818ZM253.844 43.6818V45.6818H255.001L255.578 44.6786L253.844 43.6818ZM270.698 14.3636V12.3636H269.541L268.964 13.3669L270.698 14.3636ZM282.076 14.3636L284.049 14.6912L284.435 12.3636H282.076V14.3636ZM274.831 58V60H276.527L276.804 58.3275L274.831 58ZM265.882 58L263.91 57.6714L263.522 60H265.882V58ZM270.613 29.598L272.585 29.9266L272.973 27.598H270.613V29.598ZM270.229 29.598V27.598H269.062L268.488 28.6137L270.229 29.598ZM254.292 57.7869V59.7869H255.458L256.033 58.7713L254.292 57.7869ZM248.176 57.7869L246.228 58.2388L246.587 59.7869H248.176V57.7869ZM241.614 29.4915L243.562 29.0396L243.203 27.4915H241.614V29.4915ZM241.252 29.4915V27.4915H239.559L239.279 29.1612L241.252 29.4915ZM236.479 58V60H238.172L238.452 58.3302L236.479 58ZM227.53 58L225.557 57.6725L225.171 60H227.53V58ZM234.775 16.3636H246.152V12.3636H234.775V16.3636ZM244.21 14.8394L251.39 44.1576L255.275 43.2061L248.095 13.8879L244.21 14.8394ZM253.333 45.6818H253.844V41.6818H253.333V45.6818ZM255.578 44.6786L272.432 15.3604L268.964 13.3669L252.11 42.6851L255.578 44.6786ZM270.698 16.3636H282.076V12.3636H270.698V16.3636ZM280.103 14.0361L272.858 57.6725L276.804 58.3275L284.049 14.6912L280.103 14.0361ZM274.831 56H265.882V60H274.831V56ZM267.855 58.3286L272.585 29.9266L268.64 29.2695L263.91 57.6714L267.855 58.3286ZM270.613 27.598H270.229V31.598H270.613V27.598ZM268.488 28.6137L252.551 56.8026L256.033 58.7713L271.97 30.5823L268.488 28.6137ZM254.292 55.7869H248.176V59.7869H254.292V55.7869ZM250.125 57.3351L243.562 29.0396L239.666 29.9433L246.228 58.2388L250.125 57.3351ZM241.614 27.4915H241.252V31.4915H241.614V27.4915ZM239.279 29.1612L234.507 57.6698L238.452 58.3302L243.224 29.8217L239.279 29.1612ZM236.479 56H227.53V60H236.479V56ZM229.503 58.3275L236.747 14.6912L232.802 14.0361L225.557 57.6725L229.503 58.3275ZM289.954 58V60H291.198L291.748 58.8835L289.954 58ZM280.067 58L278.287 57.0896L276.799 60H280.067V58ZM302.376 14.3636V12.3636H301.152L300.595 13.4532L302.376 14.3636ZM314.265 14.3636L316.234 14.0118L315.939 12.3636H314.265V14.3636ZM322.063 58V60H324.452L324.032 57.6482L322.063 58ZM312.177 58L310.201 58.3113L310.467 60H312.177V58ZM306.871 24.3352L308.847 24.0239L308.581 22.3352H306.871V24.3352ZM306.531 24.3352V22.3352H305.286L304.736 23.4517L306.531 24.3352ZM292.212 40.848V38.848H290.526L290.241 40.5098L292.212 40.848ZM315.565 40.848L317.536 41.1863L317.937 38.848H315.565V40.848ZM314.329 48.0497V50.0497H316.015L316.3 48.388L314.329 48.0497ZM290.977 48.0497L289.005 47.7115L288.604 50.0497H290.977V48.0497ZM289.954 56H280.067V60H289.954V56ZM281.848 58.9104L304.156 15.274L300.595 13.4532L278.287 57.0896L281.848 58.9104ZM302.376 16.3636H314.265V12.3636H302.376V16.3636ZM312.296 14.7155L320.094 58.3518L324.032 57.6482L316.234 14.0118L312.296 14.7155ZM322.063 56H312.177V60H322.063V56ZM314.152 57.6887L308.847 24.0239L304.896 24.6466L310.201 58.3113L314.152 57.6887ZM306.871 22.3352H306.531V26.3352H306.871V22.3352ZM304.736 23.4517L288.16 57.1165L291.748 58.8835L308.325 25.2187L304.736 23.4517ZM292.212 42.848H315.565V38.848H292.212V42.848ZM313.593 40.5098L312.358 47.7115L316.3 48.388L317.536 41.1863L313.593 40.5098ZM314.329 46.0497H290.977V50.0497H314.329V46.0497ZM292.948 48.388L294.184 41.1863L290.241 40.5098L289.005 47.7115L292.948 48.388ZM370.611 50.6278L372.573 51.0155L373.045 48.6278H370.611V50.6278ZM367.116 68.3125V70.3125H368.76L369.079 68.7002L367.116 68.3125ZM358.338 68.3125L356.365 67.9863L355.98 70.3125H358.338V68.3125ZM360.043 58L362.016 58.3262L362.4 56H360.043V58ZM356.974 58L355.003 57.6638L354.605 60H356.974V58ZM358.232 50.6278V48.6278H356.544L356.26 50.2917L358.232 50.6278ZM327.315 58L325.342 57.6725L324.956 60H327.315V58ZM334.56 14.3636V12.3636H332.864L332.587 14.0361L334.56 14.3636ZM343.423 14.3636L345.397 14.6887L345.78 12.3636H343.423V14.3636ZM337.457 50.5852L335.484 50.2602L335.101 52.5852H337.457V50.5852ZM355.611 50.5852V52.5852H357.308L357.584 50.9103L355.611 50.5852ZM361.577 14.3636V12.3636H359.879L359.603 14.0386L361.577 14.3636ZM370.547 14.3636L372.52 14.6912L372.906 12.3636H370.547V14.3636ZM363.303 58V60H364.998L365.276 58.3275L363.303 58ZM368.649 50.2402L365.154 67.9248L369.079 68.7002L372.573 51.0155L368.649 50.2402ZM367.116 66.3125H358.338V70.3125H367.116V66.3125ZM360.311 68.6387L362.016 58.3262L358.069 57.6738L356.365 67.9863L360.311 68.6387ZM360.043 56H356.974V60H360.043V56ZM358.946 58.3362L360.203 50.964L356.26 50.2917L355.003 57.6638L358.946 58.3362ZM358.232 52.6278H370.611V48.6278H358.232V52.6278ZM329.288 58.3275L336.533 14.6912L332.587 14.0361L325.342 57.6725L329.288 58.3275ZM334.56 16.3636H343.423V12.3636H334.56V16.3636ZM341.45 14.0386L335.484 50.2602L339.431 50.9103L345.397 14.6887L341.45 14.0386ZM337.457 52.5852H355.611V48.5852H337.457V52.5852ZM357.584 50.9103L363.55 14.6887L359.603 14.0386L353.637 50.2602L357.584 50.9103ZM361.577 16.3636H370.547V12.3636H361.577V16.3636ZM368.574 14.0361L361.33 57.6725L365.276 58.3275L372.52 14.6912L368.574 14.0361ZM363.303 56H327.315V60H363.303V56ZM382.196 14.3636V12.3636H380.501L380.223 14.0361L382.196 14.3636ZM391.401 14.3636L393.374 14.6914L393.761 12.3636H391.401V14.3636ZM386.841 41.8068L384.868 41.479L384.482 43.8068H386.841V41.8068ZM387.225 41.8068V43.8068H388.148L388.747 43.1043L387.225 41.8068ZM410.62 14.3636V12.3636H409.697L409.098 13.0661L410.62 14.3636ZM418.695 14.3636L420.668 14.6912L421.054 12.3636H418.695V14.3636ZM411.451 58V60H413.146L413.424 58.3275L411.451 58ZM402.225 58L400.252 57.6724L399.865 60H402.225V58ZM406.784 30.5355L408.757 30.8631L409.144 28.5355H406.784V30.5355ZM406.465 30.5355V28.5355H405.545L404.946 29.2345L406.465 30.5355ZM382.942 58V60H383.862L384.461 59.301L382.942 58ZM374.952 58L372.979 57.6725L372.593 60H374.952V58ZM382.196 16.3636H391.401V12.3636H382.196V16.3636ZM389.428 14.0358L384.868 41.479L388.814 42.1346L393.374 14.6914L389.428 14.0358ZM386.841 43.8068H387.225V39.8068H386.841V43.8068ZM388.747 43.1043L412.142 15.6611L409.098 13.0661L385.703 40.5093L388.747 43.1043ZM410.62 16.3636H418.695V12.3636H410.62V16.3636ZM416.722 14.0361L409.478 57.6725L413.424 58.3275L420.668 14.6912L416.722 14.0361ZM411.451 56H402.225V60H411.451V56ZM404.198 58.3276L408.757 30.8631L404.811 30.208L400.252 57.6724L404.198 58.3276ZM406.784 28.5355H406.465V32.5355H406.784V28.5355ZM404.946 29.2345L381.423 56.699L384.461 59.301L407.984 31.8365L404.946 29.2345ZM382.942 56H374.952V60H382.942V56ZM376.925 58.3275L384.169 14.6912L380.223 14.0361L372.979 57.6725L376.925 58.3275ZM452.525 58V60H454.221L454.498 58.3266L452.525 58ZM443.299 58L441.326 57.6727L440.94 60H443.299V58ZM449.286 21.9062L451.259 22.2335L451.645 19.9062H449.286V21.9062ZM438.505 22.6946L439.262 24.5457L439.273 24.5414L438.505 22.6946ZM435.501 24.9531L433.906 23.7459L433.901 23.7531L433.895 23.7605L435.501 24.9531ZM434.031 28.6179L432.058 28.2891L432.056 28.297L432.055 28.305L434.031 28.6179ZM434.308 32.2188L432.468 33.0033L432.473 33.0147L432.478 33.026L434.308 32.2188ZM436.566 34.392L435.749 36.2177L435.758 36.2216L436.566 34.392ZM450.863 35.1165L452.836 35.4453L453.224 33.1165H450.863V35.1165ZM449.627 42.5312V44.5312H451.321L451.6 42.86L449.627 42.5312ZM429.812 40.8693L428.903 42.6511L428.908 42.6535L429.812 40.8693ZM425.188 36.0966L423.354 36.895L423.356 36.8995L425.188 36.0966ZM424.528 28.6179L422.557 28.2781L422.555 28.2883L422.553 28.2985L424.528 28.6179ZM427.638 21.0966L426.032 19.9051L426.031 19.9069L427.638 21.0966ZM433.817 16.1321L434.654 17.9486L434.663 17.9447L433.817 16.1321ZM459.748 14.3636L461.721 14.6902L462.106 12.3636H459.748V14.3636ZM432.262 38.142V36.142H431.23L430.632 36.9827L432.262 38.142ZM442.212 38.142L443.85 39.2897L446.056 36.142H442.212V38.142ZM428.299 58V60H429.34L429.937 59.1476L428.299 58ZM418.136 58L416.506 56.8407L414.258 60H418.136V58ZM452.525 56H443.299V60H452.525V56ZM445.272 58.3273L451.259 22.2335L447.313 21.579L441.326 57.6727L445.272 58.3273ZM449.286 19.9062H443.065V23.9062H449.286V19.9062ZM443.065 19.9062C441.1 19.9062 439.305 20.1959 437.737 20.8478L439.273 24.5414C440.233 24.1421 441.478 23.9062 443.065 23.9062V19.9062ZM437.748 20.8435C436.194 21.4789 434.893 22.4422 433.906 23.7459L437.095 26.1604C437.614 25.4754 438.316 24.933 439.262 24.5457L437.748 20.8435ZM433.895 23.7605C432.935 25.0528 432.342 26.5851 432.058 28.2891L436.003 28.9467C436.202 27.753 436.589 26.8421 437.106 26.1458L433.895 23.7605ZM432.055 28.305C431.791 29.9741 431.862 31.5831 432.468 33.0033L436.147 31.4342C435.929 30.9226 435.816 30.131 436.006 28.9308L432.055 28.305ZM432.478 33.026C433.128 34.5005 434.276 35.5586 435.749 36.2177L437.383 32.5664C436.697 32.2596 436.339 31.8688 436.137 31.4115L432.478 33.026ZM435.758 36.2216C437.197 36.8571 438.93 37.1165 440.849 37.1165V33.1165C439.245 33.1165 438.122 32.8929 437.374 32.5625L435.758 36.2216ZM440.849 37.1165H450.863V33.1165H440.849V37.1165ZM448.89 34.7877L447.654 42.2025L451.6 42.86L452.836 35.4453L448.89 34.7877ZM449.627 40.5312H438.1V44.5312H449.627V40.5312ZM438.1 40.5312C434.968 40.5312 432.54 40.0094 430.715 39.0851L428.908 42.6535C431.458 43.9451 434.556 44.5312 438.1 44.5312V40.5312ZM430.72 39.0875C428.924 38.172 427.729 36.9105 427.02 35.2936L423.356 36.8995C424.466 39.4304 426.353 41.3507 428.903 42.6511L430.72 39.0875ZM427.022 35.2982C426.304 33.65 426.077 31.5646 426.502 28.9373L422.553 28.2985C422.041 31.4666 422.254 34.3671 423.354 36.895L427.022 35.2982ZM426.499 28.9577C426.948 26.3495 427.874 24.1407 429.246 22.2863L426.031 19.9069C424.25 22.3138 423.101 25.1193 422.557 28.2781L426.499 28.9577ZM429.245 22.2881C430.627 20.4244 432.417 18.9791 434.654 17.9486L432.981 14.3156C430.161 15.6146 427.832 17.479 426.032 19.9051L429.245 22.2881ZM434.663 17.9447C436.883 16.9095 439.497 16.3636 442.553 16.3636V12.3636C439.018 12.3636 435.809 12.9967 432.972 14.3195L434.663 17.9447ZM442.553 16.3636H459.748V12.3636H442.553V16.3636ZM457.775 14.037L450.552 57.6734L454.498 58.3266L461.721 14.6902L457.775 14.037ZM432.262 40.142H442.212V36.142H432.262V40.142ZM440.574 36.9944L426.661 56.8524L429.937 59.1476L443.85 39.2897L440.574 36.9944ZM428.299 56H418.136V60H428.299V56ZM419.765 59.1593L433.892 39.3014L430.632 36.9827L416.506 56.8407L419.765 59.1593Z" fill="url(#paint0_linear_1748_281)"/>
<path d="M3.79261 14.3636H12.9972V41.8068H13.3594L32.2159 14.3636H40.2912V58H31.0653V30.5355H30.7457L11.7827 58H3.79261V14.3636ZM47.9137 58V14.3636H57.1396V32.3679H75.8683V14.3636H85.0728V58H75.8683V39.9744H57.1396V58H47.9137ZM109.938 19.0511H119.696C123.191 19.0511 126.287 19.7898 128.986 21.267C131.699 22.7443 133.823 24.8253 135.357 27.5099C136.905 30.1804 137.679 33.3196 137.679 36.9276C137.679 40.4219 136.905 43.4687 135.357 46.0682C133.823 48.6676 131.699 50.6918 128.986 52.1406C126.287 53.5753 123.191 54.2926 119.696 54.2926H109.938C106.429 54.2926 103.319 53.5824 100.605 52.1619C97.8924 50.7273 95.7617 48.7102 94.2134 46.1108C92.6793 43.5114 91.9123 40.4432 91.9123 36.9062C91.9123 33.2983 92.6864 30.1591 94.2347 27.4886C95.7972 24.804 97.935 22.7301 100.648 21.267C103.361 19.7898 106.458 19.0511 109.938 19.0511ZM109.938 26.7642C108.063 26.7642 106.408 27.1406 104.973 27.8935C103.553 28.6321 102.445 29.7543 101.65 31.2599C100.854 32.7656 100.456 34.6477 100.456 36.9062C100.456 39.0653 100.861 40.8622 101.671 42.2969C102.495 43.7315 103.617 44.804 105.037 45.5142C106.458 46.2244 108.091 46.5795 109.938 46.5795H119.76C121.621 46.5795 123.248 46.2173 124.64 45.4929C126.046 44.7685 127.132 43.6889 127.9 42.2543C128.681 40.8196 129.071 39.044 129.071 36.9276C129.071 34.669 128.681 32.7869 127.9 31.2812C127.132 29.7756 126.046 28.6463 124.64 27.8935C123.248 27.1406 121.621 26.7642 119.76 26.7642H109.938ZM119.185 13.5966V59.7898H110.428V13.5966H119.185ZM184.576 36.1818C184.576 40.9403 183.674 44.9886 181.87 48.3267C180.08 51.6648 177.637 54.2145 174.54 55.9759C171.458 57.723 167.992 58.5966 164.142 58.5966C160.265 58.5966 156.784 57.7159 153.702 55.9545C150.62 54.1932 148.184 51.6435 146.394 48.3054C144.604 44.9673 143.709 40.9261 143.709 36.1818C143.709 31.4233 144.604 27.375 146.394 24.0369C148.184 20.6989 150.62 18.1562 153.702 16.4091C156.784 14.6477 160.265 13.767 164.142 13.767C167.992 13.767 171.458 14.6477 174.54 16.4091C177.637 18.1562 180.08 20.6989 181.87 24.0369C183.674 27.375 184.576 31.4233 184.576 36.1818ZM175.222 36.1818C175.222 33.0994 174.76 30.5 173.837 28.3835C172.928 26.267 171.642 24.6619 169.98 23.5682C168.319 22.4744 166.373 21.9276 164.142 21.9276C161.912 21.9276 159.966 22.4744 158.304 23.5682C156.642 24.6619 155.35 26.267 154.426 28.3835C153.517 30.5 153.063 33.0994 153.063 36.1818C153.063 39.2642 153.517 41.8636 154.426 43.9801C155.35 46.0966 156.642 47.7017 158.304 48.7955C159.966 49.8892 161.912 50.4361 164.142 50.4361C166.373 50.4361 168.319 49.8892 169.98 48.7955C171.642 47.7017 172.928 46.0966 173.837 43.9801C174.76 41.8636 175.222 39.2642 175.222 36.1818ZM191.41 58V14.3636H208.626C211.935 14.3636 214.755 14.9957 217.085 16.2599C219.414 17.5099 221.19 19.25 222.411 21.4801C223.647 23.696 224.265 26.2528 224.265 29.1506C224.265 32.0483 223.64 34.6051 222.39 36.821C221.14 39.0369 219.329 40.7628 216.957 41.9986C214.599 43.2344 211.744 43.8523 208.391 43.8523H197.418V36.4588H206.9C208.675 36.4588 210.138 36.1534 211.289 35.5426C212.454 34.9176 213.32 34.0582 213.888 32.9645C214.471 31.8565 214.762 30.5852 214.762 29.1506C214.762 27.7017 214.471 26.4375 213.888 25.358C213.32 24.2642 212.454 23.419 211.289 22.8224C210.124 22.2116 208.647 21.9062 206.857 21.9062H200.636V58H191.41ZM230.257 14.3636H241.635L253.652 43.6818H254.164L266.181 14.3636H277.559V58H268.61V29.598H268.248L256.955 57.7869H250.861L239.569 29.4915H239.206V58H230.257V14.3636ZM292.681 58H282.795L297.859 14.3636H309.748L324.79 58H314.904L303.974 24.3352H303.633L292.681 58ZM292.063 40.848H315.415V48.0497H292.063V40.848ZM372.081 50.6278L371.548 68.3125H362.77V58H359.702V50.6278H372.081ZM330.043 58V14.3636H338.906V50.5852H357.06V14.3636H366.03V58H330.043ZM377.679 14.3636H386.884V41.8068H387.246L406.103 14.3636H414.178V58H404.952V30.5355H404.632L385.669 58H377.679V14.3636ZM455.295 58H446.09V21.9062H439.869C438.093 21.9062 436.616 22.169 435.437 22.6946C434.272 23.206 433.398 23.9588 432.816 24.9531C432.234 25.9474 431.942 27.169 431.942 28.6179C431.942 30.0526 432.234 31.2528 432.816 32.2188C433.398 33.1847 434.272 33.9091 435.437 34.392C436.602 34.875 438.065 35.1165 439.826 35.1165H449.84V42.5312H438.335C434.996 42.5312 432.141 41.9773 429.769 40.8693C427.397 39.7614 425.586 38.1705 424.336 36.0966C423.086 34.0085 422.461 31.5156 422.461 28.6179C422.461 25.7344 423.072 23.2273 424.293 21.0966C425.529 18.9517 427.312 17.2969 429.641 16.1321C431.985 14.9531 434.805 14.3636 438.1 14.3636H455.295V58ZM431.751 38.142H441.701L431.09 58H420.906L431.751 38.142Z" fill="white"/>
<defs>
<linearGradient id="paint0_linear_1748_281" x1="3.05269e-07" y1="36.9999" x2="460" y2="36.9999" gradientUnits="userSpaceOnUse">
<stop stop-color="#8D72E1"/>
<stop offset="1" stop-color="#8D9EFF"/>
</linearGradient>
</defs>
</svg>
