<svg width="944" height="109" viewBox="0 0 944 109" fill="none" xmlns="http://www.w3.org/2000/svg">
<path d="M8.30966 14.3636V12.3636H6.61432L6.33666 14.0361L8.30966 14.3636ZM17.5142 14.3636L19.4872 14.6914L19.8739 12.3636H17.5142V14.3636ZM12.9545 41.8068L10.9816 41.479L10.5948 43.8068H12.9545V41.8068ZM13.3381 41.8068V43.8068H14.2612L14.8601 43.1043L13.3381 41.8068ZM36.733 14.3636V12.3636H35.8098L35.2109 13.0661L36.733 14.3636ZM44.8082 14.3636L46.7812 14.6912L47.1676 12.3636H44.8082V14.3636ZM37.5639 58V60H39.2593L39.5369 58.3275L37.5639 58ZM28.3381 58L26.3651 57.6724L25.9787 60H28.3381V58ZM32.8977 30.5355L34.8707 30.8631L35.2571 28.5355H32.8977V30.5355ZM32.5781 30.5355V28.5355H31.6578L31.0591 29.2345L32.5781 30.5355ZM9.0554 58V60H9.97573L10.5744 59.301L9.0554 58ZM1.06534 58L-0.907655 57.6725L-1.29406 60H1.06534V58ZM8.30966 16.3636H17.5142V12.3636H8.30966V16.3636ZM15.5413 14.0358L10.9816 41.479L14.9275 42.1346L19.4872 14.6914L15.5413 14.0358ZM12.9545 43.8068H13.3381V39.8068H12.9545V43.8068ZM14.8601 43.1043L38.255 15.6611L35.2109 13.0661L11.8161 40.5093L14.8601 43.1043ZM36.733 16.3636H44.8082V12.3636H36.733V16.3636ZM42.8352 14.0361L35.5909 57.6725L39.5369 58.3275L46.7812 14.6912L42.8352 14.0361ZM37.5639 56H28.3381V60H37.5639V56ZM30.3111 58.3276L34.8707 30.8631L30.9247 30.208L26.3651 57.6724L30.3111 58.3276ZM32.8977 28.5355H32.5781V32.5355H32.8977V28.5355ZM31.0591 29.2345L7.53639 56.699L10.5744 59.301L34.0971 31.8365L31.0591 29.2345ZM9.0554 56H1.06534V60H9.0554V56ZM3.03834 58.3275L10.2827 14.6912L6.33666 14.0361L-0.907655 57.6725L3.03834 58.3275ZM53.006 56.956L53.8476 55.1416L53.006 56.956ZM47.7646 52.3963L46.032 53.3954L46.0375 53.4048L47.7646 52.3963ZM46.6779 45.6634V43.6634H44.9664L44.7019 45.3543L46.6779 45.6634ZM55.8398 45.6634L57.8218 45.9312L58.1283 43.6634H55.8398V45.6634ZM56.3299 48.4545L54.599 49.4566L54.6056 49.4679L54.6123 49.4791L56.3299 48.4545ZM58.4819 50.3295L57.642 52.1447L57.6523 52.1494L58.4819 50.3295ZM65.9393 50.1591L65.1212 48.3341L65.1212 48.3341L65.9393 50.1591ZM69.0075 47.9006L67.4858 46.6027L67.4841 46.6046L69.0075 47.9006ZM70.5202 44.6406L68.5455 44.3237L68.5443 44.331L68.5432 44.3383L70.5202 44.6406ZM70.0515 41.7003L68.3391 42.7336L68.3431 42.7402L68.3471 42.7468L70.0515 41.7003ZM67.6651 39.804L68.4121 37.9487L68.4121 37.9487L67.6651 39.804ZM59.3555 39.1435L57.3827 38.8147L56.9945 41.1435H59.3555V39.1435ZM60.4847 32.3679V30.3679H58.7905L58.5119 32.0391L60.4847 32.3679ZM68.2191 31.5795L67.4129 29.7492L67.4048 29.7528L68.2191 31.5795ZM72.6509 26.125L70.6789 25.7917L70.6776 25.7995L70.6763 25.8072L72.6509 26.125ZM72.4165 23.483L70.5644 24.2375L70.5729 24.2584L70.5819 24.2791L72.4165 23.483ZM70.7546 21.7145L69.7969 23.4703L69.8158 23.4806L69.8349 23.4905L70.7546 21.7145ZM64.0217 21.7571L64.7141 23.6334L64.7239 23.6298L64.7337 23.6261L64.0217 21.7571ZM60.9961 23.6534L62.4103 25.0676L62.4103 25.0676L60.9961 23.6534ZM59.4833 26.5511V28.5511H61.1776L61.4561 26.8799L59.4833 26.5511ZM50.6836 26.5511L48.7136 26.2061L48.3029 28.5511H50.6836V26.5511ZM53.837 19.9034L52.3311 18.5872L52.3256 18.5935L53.837 19.9034ZM60.0799 15.4077L60.8766 17.2421L60.8815 17.24L60.0799 15.4077ZM75.9748 15.5568L74.9926 17.2991L75.0015 17.304L75.9748 15.5568ZM80.5771 20.2443L78.7804 21.123L78.7843 21.1309L78.7882 21.1387L80.5771 20.2443ZM81.4719 26.5511L83.4453 26.8763L83.4461 26.8719L81.4719 26.5511ZM78.1907 32.4957L79.4612 34.0403L79.4625 34.0392L78.1907 32.4957ZM71.6069 35.3082L71.2867 33.334L69.6069 33.6064V35.3082H71.6069ZM71.6069 35.6278H69.6069V37.3755L71.3388 37.6098L71.6069 35.6278ZM78.2546 39.1435L76.6672 40.3601L76.6728 40.3673L78.2546 39.1435ZM79.8313 46.2386L77.8574 45.9164L77.8561 45.9249L79.8313 46.2386ZM76.6992 52.652L75.2244 51.301L75.2244 51.301L76.6992 52.652ZM70.2006 57.0199L69.4579 55.1629L69.4579 55.1629L70.2006 57.0199ZM61.4435 56.5966C58.3947 56.5966 55.8832 56.0859 53.8476 55.1416L52.1645 58.7703C54.8448 60.0136 57.9583 60.5966 61.4435 60.5966V56.5966ZM53.8476 55.1416C51.8015 54.1926 50.3917 52.9291 49.4917 51.3878L46.0375 53.4048C47.4102 55.7556 49.4946 57.5319 52.1645 58.7703L53.8476 55.1416ZM49.4971 51.3972C48.6357 49.9033 48.3159 48.1331 48.6539 45.9724L44.7019 45.3543C44.2445 48.2788 44.6491 50.9972 46.032 53.3954L49.4971 51.3972ZM46.6779 47.6634H55.8398V43.6634H46.6779V47.6634ZM53.8579 45.3955C53.6648 46.8244 53.8788 48.2126 54.599 49.4566L58.0608 47.4525C57.8435 47.0772 57.7308 46.6046 57.8218 45.9312L53.8579 45.3955ZM54.6123 49.4791C55.3244 50.673 56.3676 51.555 57.6421 52.1447L59.3217 48.5144C58.6928 48.2234 58.3013 47.8554 58.0475 47.43L54.6123 49.4791ZM57.6523 52.1494C58.9316 52.7326 60.3625 52.9901 61.891 52.9901V48.9901C60.8059 48.9901 59.964 48.8072 59.3115 48.5097L57.6523 52.1494ZM61.891 52.9901C63.6131 52.9901 65.2441 52.6625 66.7574 51.9841L65.1212 48.3341C64.1628 48.7637 63.095 48.9901 61.891 48.9901V52.9901ZM66.7574 51.9841C68.2415 51.3188 69.5125 50.3934 70.5308 49.1965L67.4841 46.6046C66.8831 47.3112 66.1086 47.8914 65.1212 48.3341L66.7574 51.9841ZM70.5291 49.1985C71.5844 47.9612 72.2541 46.533 72.4973 44.943L68.5432 44.3383C68.4171 45.163 68.0782 45.9081 67.4858 46.6027L70.5291 49.1985ZM72.495 44.9576C72.7376 43.4459 72.5564 41.9576 71.7558 40.6538L68.3471 42.7468C68.5409 43.0623 68.6722 43.5342 68.5455 44.3237L72.495 44.9576ZM71.7639 40.667C70.9959 39.3943 69.8156 38.5137 68.4121 37.9487L66.9182 41.6593C67.7022 41.9749 68.1128 42.3585 68.3391 42.7336L71.7639 40.667ZM68.4121 37.9487C67.0102 37.3843 65.3815 37.1435 63.5955 37.1435V41.1435C65.0482 41.1435 66.1326 41.343 66.9182 41.6593L68.4121 37.9487ZM63.5955 37.1435H59.3555V41.1435H63.5955V37.1435ZM61.3283 39.4723L62.4575 32.6967L58.5119 32.0391L57.3827 38.8147L61.3283 39.4723ZM60.4847 34.3679H64.32V30.3679H60.4847V34.3679ZM64.32 34.3679C65.9926 34.3679 67.5734 34.0571 69.0334 33.4063L67.4048 29.7528C66.5068 30.1531 65.4882 30.3679 64.32 30.3679V34.3679ZM69.0253 33.4099C70.4813 32.7685 71.7249 31.8561 72.7172 30.6653L69.6443 28.1046C69.0741 28.7888 68.3433 29.3394 67.4129 29.7492L69.0253 33.4099ZM72.7172 30.6653C73.7343 29.4447 74.3712 28.0234 74.6255 26.4428L70.6763 25.8072C70.533 26.6982 70.1897 27.4502 69.6443 28.1046L72.7172 30.6653ZM74.623 26.4583C74.842 25.162 74.7661 23.8733 74.2512 22.6868L70.5819 24.2791C70.7204 24.5983 70.8007 25.071 70.6789 25.7917L74.623 26.4583ZM74.2687 22.7284C73.7616 21.4836 72.855 20.5499 71.6743 19.9385L69.8349 23.4905C70.2451 23.7029 70.4465 23.9483 70.5644 24.2375L74.2687 22.7284ZM71.7123 19.9587C70.5424 19.3206 69.1645 19.0753 67.7077 19.0753V23.0753C68.751 23.0753 69.4043 23.2561 69.7969 23.4703L71.7123 19.9587ZM67.7077 19.0753C66.1977 19.0753 64.7279 19.3478 63.3097 19.8881L64.7337 23.6261C65.7018 23.2573 66.6893 23.0753 67.7077 23.0753V19.0753ZM63.3292 19.8808C61.89 20.4119 60.6283 21.1928 59.5819 22.2392L62.4103 25.0676C63.0117 24.4663 63.7669 23.983 64.7141 23.6334L63.3292 19.8808ZM59.5819 22.2392C58.475 23.3461 57.7664 24.6872 57.5105 26.2223L61.4561 26.8799C61.5696 26.1992 61.8695 25.6085 62.4103 25.0676L59.5819 22.2392ZM59.4833 24.5511H50.6836V28.5511H59.4833V24.5511ZM52.6536 26.8962C53.0318 24.737 53.9255 22.8551 55.3484 21.2133L52.3256 18.5935C50.4247 20.7869 49.2161 23.3369 48.7136 26.2061L52.6536 26.8962ZM55.3428 21.2196C56.8115 19.5393 58.6449 18.2113 60.8766 17.2421L59.2832 13.5732C56.5433 14.7631 54.2147 16.4323 52.3312 18.5872L55.3428 21.2196ZM60.8815 17.24C63.1133 16.2636 65.5373 15.767 68.1765 15.767V11.767C65.0202 11.767 62.0465 12.3643 59.2783 13.5754L60.8815 17.24ZM68.1765 15.767C71.0055 15.767 73.2461 16.3144 74.9926 17.299L76.957 13.8146C74.4705 12.4129 71.5123 11.767 68.1765 11.767V15.767ZM75.0015 17.304C76.8053 18.3088 78.029 19.5865 78.7804 21.123L82.3737 19.3657C81.2217 17.0101 79.3773 15.1628 76.9481 13.8096L75.0015 17.304ZM78.7882 21.1387C79.5536 22.6695 79.8045 24.3431 79.4978 26.2303L83.4461 26.8719C83.878 24.2137 83.5323 21.6828 82.3659 19.3499L78.7882 21.1387ZM79.4986 26.226C79.1567 28.3004 78.282 29.829 76.9189 30.9522L79.4625 34.0392C81.6505 32.2364 82.9633 29.8019 83.4453 26.8763L79.4986 26.226ZM76.9202 30.9512C75.4748 32.1401 73.6244 32.955 71.2867 33.334L71.927 37.2824C74.8451 36.8093 77.3839 35.7491 79.4612 34.0403L76.9202 30.9512ZM69.6069 35.3082V35.6278H73.6069V35.3082H69.6069ZM71.3388 37.6098C73.8729 37.9526 75.5627 38.9189 76.6672 40.3601L79.842 37.9268C77.9636 35.476 75.2216 34.0986 71.875 33.6459L71.3388 37.6098ZM76.6728 40.3673C77.7881 41.8088 78.237 43.5917 77.8575 45.9164L81.8052 46.5609C82.3347 43.3174 81.7325 40.3702 79.8364 37.9196L76.6728 40.3673ZM77.8561 45.9249C77.5361 47.9394 76.6731 49.7196 75.2244 51.301L78.174 54.0029C80.1344 51.8628 81.3595 49.3674 81.8066 46.5524L77.8561 45.9249ZM75.2244 51.301C73.7463 52.9147 71.841 54.2097 69.4579 55.1629L70.9434 58.8768C73.816 57.7278 76.2431 56.1108 78.174 54.0029L75.2244 51.301ZM69.4579 55.1629C67.0958 56.1077 64.4333 56.5966 61.4435 56.5966V60.5966C64.8743 60.5966 68.0498 60.0343 70.9434 58.8768L69.4579 55.1629ZM84.7372 58L82.7642 57.6725L82.3778 60H84.7372V58ZM91.9815 14.3636V12.3636H90.2862L90.0085 14.0361L91.9815 14.3636ZM120.938 14.3636L122.91 14.6951L123.302 12.3636H120.938V14.3636ZM119.659 21.9702V23.9702H121.351L121.631 22.3017L119.659 21.9702ZM99.929 21.9702V19.9702H98.2361L97.9565 21.6398L99.929 21.9702ZM98.5014 30.4929L96.5289 30.1625L96.1386 32.4929H98.5014V30.4929ZM114.29 32.1761L113.417 33.9759L113.424 33.9791L113.431 33.9823L114.29 32.1761ZM119.318 36.8849L117.532 37.7844L117.537 37.7943L119.318 36.8849ZM120.192 44.0653L122.163 44.4024L122.165 44.3908L120.192 44.0653ZM116.911 51.331L115.362 50.0651L115.361 50.0662L116.911 51.331ZM110.284 56.2315L109.487 54.3972L109.483 54.3988L110.284 56.2315ZM95.1989 50.5852L93.226 50.257L92.8386 52.5852H95.1989V50.5852ZM106.619 49.6903L107.489 51.4914L107.497 51.4874L107.505 51.4833L106.619 49.6903ZM109.602 47.2827L108.01 46.0719L108.008 46.0754L109.602 47.2827ZM111.051 43.9801L113.024 44.3089L113.025 44.3037L111.051 43.9801ZM109.794 39.5909L108.32 40.9431L108.329 40.9522L108.337 40.9611L109.794 39.5909ZM97.3295 37.7798V35.7798H95.6348L95.3567 37.4516L97.3295 37.7798ZM86.7102 58.3275L93.9545 14.6912L90.0085 14.0361L82.7642 57.6725L86.7102 58.3275ZM91.9815 16.3636H120.938V12.3636H91.9815V16.3636ZM118.965 14.0321L117.687 21.6387L121.631 22.3017L122.91 14.6951L118.965 14.0321ZM119.659 19.9702H99.929V23.9702H119.659V19.9702ZM97.9565 21.6398L96.5289 30.1625L100.474 30.8233L101.901 22.3006L97.9565 21.6398ZM98.5014 32.4929H105.639V28.4929H98.5014V32.4929ZM105.639 32.4929C108.887 32.4929 111.45 33.0225 113.417 33.9759L115.162 30.3764C112.498 29.0854 109.295 28.4929 105.639 28.4929V32.4929ZM113.431 33.9823C115.416 34.9263 116.735 36.2025 117.532 37.7844L121.105 35.9855C119.856 33.5048 117.823 31.6419 115.149 30.37L113.431 33.9823ZM117.537 37.7943C118.339 39.3662 118.619 41.3091 118.218 43.7398L122.165 44.3908C122.673 41.3102 122.371 38.4662 121.1 35.9756L117.537 37.7943ZM118.22 43.7283C117.808 46.1374 116.856 48.2373 115.362 50.0651L118.459 52.5969C120.402 50.2201 121.638 47.4762 122.163 44.4024L118.22 43.7283ZM115.361 50.0662C113.877 51.8837 111.937 53.3328 109.487 54.3972L111.081 58.0658C114.058 56.7723 116.534 54.9543 118.46 52.5957L115.361 50.0662ZM109.483 54.3988C107.077 55.4501 104.281 56 101.058 56V60C104.739 60 108.094 59.3709 111.085 58.0643L109.483 54.3988ZM101.058 56H84.7372V60H101.058V56ZM95.1989 52.5852H102.294V48.5852H95.1989V52.5852ZM102.294 52.5852C104.183 52.5852 105.933 52.2426 107.489 51.4914L105.75 47.8892C104.834 48.3312 103.7 48.5852 102.294 48.5852V52.5852ZM107.505 51.4833C108.99 50.7496 110.237 49.757 111.197 48.4899L108.008 46.0754C107.461 46.797 106.72 47.4095 105.733 47.8974L107.505 51.4833ZM111.194 48.4934C112.148 47.2389 112.769 45.838 113.024 44.3089L109.078 43.6513C108.935 44.5086 108.59 45.3094 108.01 46.0719L111.194 48.4934ZM113.025 44.3037C113.401 42.0078 112.834 39.9039 111.251 38.2207L108.337 40.9611C108.998 41.6643 109.269 42.4865 109.077 43.6566L113.025 44.3037ZM111.268 38.2387C109.624 36.4473 107.172 35.7798 104.425 35.7798V39.7798C106.621 39.7798 107.748 40.3197 108.32 40.9431L111.268 38.2387ZM104.425 35.7798H97.3295V39.7798H104.425V35.7798ZM95.3567 37.4516L93.226 50.257L97.1717 50.9135L99.3024 38.1081L95.3567 37.4516ZM123.878 58L121.905 57.6725L121.518 60H123.878V58ZM131.122 14.3636V12.3636H129.427L129.149 14.0361L131.122 14.3636ZM156.456 16.2599L155.43 17.977L155.437 17.981L155.444 17.985L156.456 16.2599ZM160.93 21.4801L159.062 22.1941L159.065 22.2013L159.068 22.2085L160.93 21.4801ZM161.527 29.1506L163.5 29.4778L163.501 29.4699L161.527 29.1506ZM158.374 36.8423L156.759 35.6623L156.757 35.6641L158.374 36.8423ZM152.109 41.9986L152.976 43.8012L152.976 43.8012L152.109 41.9986ZM132.23 43.8523L130.257 43.5281L129.875 45.8523H132.23V43.8523ZM133.445 36.4588V34.4588H131.746L131.471 36.1346L133.445 36.4588ZM147.507 35.5426L148.377 37.3435L148.386 37.3394L147.507 35.5426ZM150.554 32.9645L152.201 34.0985L152.208 34.0885L150.554 32.9645ZM152.024 29.1506L150.051 28.8249L150.049 28.8376L152.024 29.1506ZM151.79 25.3366L153.666 24.6452L153.666 24.6452L151.79 25.3366ZM149.595 22.8224L148.59 24.5517L148.604 24.5597L148.618 24.5675L149.595 22.8224ZM139.134 21.9062V19.9062H137.44L137.161 21.5767L139.134 21.9062ZM133.104 58V60H134.797L135.076 58.3296L133.104 58ZM125.851 58.3275L133.095 14.6912L129.149 14.0361L121.905 57.6725L125.851 58.3275ZM131.122 16.3636H148.338V12.3636H131.122V16.3636ZM148.338 16.3636C151.39 16.3636 153.711 16.9503 155.43 17.977L157.482 14.5429C154.967 13.0412 151.877 12.3636 148.338 12.3636V16.3636ZM155.444 17.985C157.197 19.0137 158.378 20.4042 159.062 22.1941L162.799 20.7661C161.778 18.0958 159.976 16.0062 157.468 14.5349L155.444 17.985ZM159.068 22.2085C159.777 24.0217 159.978 26.2044 159.553 28.8312L163.501 29.4699C164.014 26.3013 163.817 23.3703 162.793 20.7518L159.068 22.2085ZM159.554 28.8233C159.118 31.4507 158.18 33.7175 156.759 35.6623L159.988 38.0224C161.806 35.5353 162.97 32.6743 163.5 29.4778L159.554 28.8233ZM156.757 35.6641C155.356 37.5863 153.531 39.0963 151.243 40.196L152.976 43.8012C155.83 42.4293 158.181 40.5017 159.99 38.0205L156.757 35.6641ZM151.243 40.196C148.987 41.2805 146.323 41.8523 143.203 41.8523V45.8523C146.816 45.8523 150.09 45.1883 152.976 43.8012L151.243 40.196ZM143.203 41.8523H132.23V45.8523H143.203V41.8523ZM134.204 44.1765L135.418 36.783L131.471 36.1346L130.257 43.5281L134.204 44.1765ZM133.445 38.4588H142.926V34.4588H133.445V38.4588ZM142.926 38.4588C144.937 38.4588 146.778 38.1162 148.377 37.3434L146.637 33.7418C145.708 34.1906 144.495 34.4588 142.926 34.4588V38.4588ZM148.386 37.3394C149.95 36.5745 151.24 35.4959 152.201 34.0985L148.907 31.8305C148.363 32.6206 147.621 33.2608 146.629 33.7458L148.386 37.3394ZM152.208 34.0885C153.14 32.7171 153.73 31.164 154 29.4635L150.049 28.8376C149.864 30.0065 149.474 30.996 148.9 31.8404L152.208 34.0885ZM153.997 29.4763C154.279 27.7679 154.214 26.1305 153.666 24.6452L149.913 26.0281C150.161 26.7018 150.252 27.6071 150.051 28.8249L153.997 29.4763ZM153.666 24.6452C153.093 23.0897 152.026 21.8914 150.572 21.0774L148.618 24.5675C149.295 24.9467 149.691 25.4245 149.913 26.0281L153.666 24.6452ZM150.6 21.0932C149.135 20.2417 147.332 19.9062 145.355 19.9062V23.9062C146.93 23.9062 147.953 24.1816 148.59 24.5517L150.6 21.0932ZM145.355 19.9062H139.134V23.9062H145.355V19.9062ZM137.161 21.5767L131.131 57.6704L135.076 58.3296L141.106 22.2358L137.161 21.5767ZM133.104 56H123.878V60H133.104V56ZM165.208 58V60H166.452L167.002 58.8835L165.208 58ZM155.321 58L153.541 57.0896L152.053 60H155.321V58ZM177.63 14.3636V12.3636H176.406L175.849 13.4532L177.63 14.3636ZM189.519 14.3636L191.488 14.0118L191.193 12.3636H189.519V14.3636ZM197.317 58V60H199.706L199.286 57.6482L197.317 58ZM187.431 58L185.455 58.3113L185.721 60H187.431V58ZM182.125 24.3352L184.101 24.0239L183.835 22.3352H182.125V24.3352ZM181.784 24.3352V22.3352H180.54L179.99 23.4517L181.784 24.3352ZM167.466 40.848V38.848H165.78L165.495 40.5098L167.466 40.848ZM190.819 40.848L192.79 41.1863L193.191 38.848H190.819V40.848ZM189.583 48.0497V50.0497H191.269L191.554 48.388L189.583 48.0497ZM166.23 48.0497L164.259 47.7115L163.858 50.0497H166.23V48.0497ZM165.208 56H155.321V60H165.208V56ZM157.102 58.9104L179.41 15.274L175.849 13.4532L153.541 57.0896L157.102 58.9104ZM177.63 16.3636H189.519V12.3636H177.63V16.3636ZM187.55 14.7155L195.348 58.3518L199.286 57.6482L191.488 14.0118L187.55 14.7155ZM197.317 56H187.431V60H197.317V56ZM189.406 57.6887L184.101 24.0239L180.15 24.6466L185.455 58.3113L189.406 57.6887ZM182.125 22.3352H181.784V26.3352H182.125V22.3352ZM179.99 23.4517L163.413 57.1165L167.002 58.8835L183.579 25.2187L179.99 23.4517ZM167.466 42.848H190.819V38.848H167.466V42.848ZM188.847 40.5098L187.612 47.7115L191.554 48.388L192.79 41.1863L188.847 40.5098ZM189.583 46.0497H166.23V50.0497H189.583V46.0497ZM168.202 48.388L169.437 41.1863L165.495 40.5098L164.259 47.7115L168.202 48.388ZM202.569 58L200.596 57.6725L200.21 60H202.569V58ZM209.814 14.3636V12.3636H208.118L207.841 14.0361L209.814 14.3636ZM219.039 14.3636L221.013 14.6905L221.398 12.3636H219.039V14.3636ZM216.056 32.3679L214.083 32.041L213.698 34.3679H216.056V32.3679ZM234.785 32.3679V34.3679H236.481L236.758 32.6948L234.785 32.3679ZM237.768 14.3636V12.3636H236.072L235.795 14.0367L237.768 14.3636ZM246.973 14.3636L248.946 14.6912L249.332 12.3636H246.973V14.3636ZM239.728 58V60H241.424L241.701 58.3275L239.728 58ZM230.524 58L228.551 57.6735L228.166 60H230.524V58ZM233.507 39.9744L235.48 40.301L235.865 37.9744H233.507V39.9744ZM214.778 39.9744V37.9744H213.082L212.805 39.6479L214.778 39.9744ZM211.795 58V60H213.491L213.768 58.3265L211.795 58ZM204.542 58.3275L211.787 14.6912L207.841 14.0361L200.596 57.6725L204.542 58.3275ZM209.814 16.3636H219.039V12.3636H209.814V16.3636ZM217.066 14.0367L214.083 32.041L218.03 32.6948L221.013 14.6905L217.066 14.0367ZM216.056 34.3679H234.785V30.3679H216.056V34.3679ZM236.758 32.6948L239.741 14.6905L235.795 14.0367L232.812 32.041L236.758 32.6948ZM237.768 16.3636H246.973V12.3636H237.768V16.3636ZM245 14.0361L237.755 57.6725L241.701 58.3275L248.946 14.6912L245 14.0361ZM239.728 56H230.524V60H239.728V56ZM232.497 58.3265L235.48 40.301L231.534 39.6479L228.551 57.6735L232.497 58.3265ZM233.507 37.9744H214.778V41.9744H233.507V37.9744ZM212.805 39.6479L209.822 57.6735L213.768 58.3265L216.751 40.301L212.805 39.6479ZM211.795 56H202.569V60H211.795V56ZM247.335 58L245.362 57.6725L244.975 60H247.335V58ZM254.579 14.3636V12.3636H252.884L252.606 14.0361L254.579 14.3636ZM263.805 14.3636L265.778 14.6905L266.164 12.3636H263.805V14.3636ZM260.822 32.3679L258.849 32.041L258.463 34.3679H260.822V32.3679ZM279.551 32.3679V34.3679H281.247L281.524 32.6948L279.551 32.3679ZM282.534 14.3636V12.3636H280.838L280.561 14.0367L282.534 14.3636ZM291.738 14.3636L293.711 14.6912L294.098 12.3636H291.738V14.3636ZM284.494 58V60H286.189L286.467 58.3275L284.494 58ZM275.289 58L273.316 57.6735L272.931 60H275.289V58ZM278.272 39.9744L280.246 40.301L280.631 37.9744H278.272V39.9744ZM259.544 39.9744V37.9744H257.847L257.571 39.6479L259.544 39.9744ZM256.561 58V60H258.257L258.534 58.3265L256.561 58ZM249.308 58.3275L256.552 14.6912L252.606 14.0361L245.362 57.6725L249.308 58.3275ZM254.579 16.3636H263.805V12.3636H254.579V16.3636ZM261.832 14.0367L258.849 32.041L262.795 32.6948L265.778 14.6905L261.832 14.0367ZM260.822 34.3679H279.551V30.3679H260.822V34.3679ZM281.524 32.6948L284.507 14.6905L280.561 14.0367L277.578 32.041L281.524 32.6948ZM282.534 16.3636H291.738V12.3636H282.534V16.3636ZM289.765 14.0361L282.521 57.6725L286.467 58.3275L293.711 14.6912L289.765 14.0361ZM284.494 56H275.289V60H284.494V56ZM277.263 58.3265L280.246 40.301L276.299 39.6479L273.316 57.6735L277.263 58.3265ZM278.272 37.9744H259.544V41.9744H278.272V37.9744ZM257.571 39.6479L254.588 57.6735L258.534 58.3265L261.517 40.301L257.571 39.6479ZM256.561 56H247.335V60H256.561V56ZM302.349 30.4929V28.4929H300.655L300.376 30.1641L302.349 30.4929ZM321.419 32.1761L320.546 33.9759L320.553 33.9791L320.56 33.9823L321.419 32.1761ZM326.447 36.8849L324.661 37.7844L324.666 37.7943L326.447 36.8849ZM327.299 44.0653L325.328 43.7299L325.326 43.7382L327.299 44.0653ZM324.039 51.331L325.584 52.602L325.588 52.5969L324.039 51.331ZM317.392 56.2315L316.595 54.3972L316.591 54.3988L317.392 56.2315ZM291.845 58L289.872 57.6725L289.485 60H291.845V58ZM299.089 14.3636V12.3636H297.394L297.116 14.0361L299.089 14.3636ZM308.315 14.3636L310.288 14.6909L310.674 12.3636H308.315V14.3636ZM302.306 50.5852L300.333 50.2579L299.947 52.5852H302.306V50.5852ZM313.727 49.6903L314.596 51.4915L314.605 51.4873L313.727 49.6903ZM316.731 47.2827L315.139 46.0719L315.137 46.0754L316.731 47.2827ZM318.159 43.9801L316.188 43.6408L316.185 43.6575L316.182 43.6742L318.159 43.9801ZM316.923 39.5909L315.458 40.9525L315.466 40.9611L316.923 39.5909ZM301.135 37.7798L299.162 37.451L298.774 39.7798H301.135V37.7798ZM345.368 14.3636L347.341 14.6912L347.727 12.3636H345.368V14.3636ZM338.123 58V60H339.819L340.096 58.3275L338.123 58ZM328.919 58L326.946 57.6725L326.559 60H328.919V58ZM336.163 14.3636V12.3636H334.468L334.19 14.0361L336.163 14.3636ZM302.349 32.4929H312.747V28.4929H302.349V32.4929ZM312.747 32.4929C316.01 32.4929 318.58 33.023 320.546 33.9759L322.291 30.3764C319.626 29.0849 316.415 28.4929 312.747 28.4929V32.4929ZM320.56 33.9823C322.545 34.9263 323.864 36.2025 324.661 37.7844L328.233 35.9855C326.984 33.5048 324.952 31.6419 322.278 30.37L320.56 33.9823ZM324.666 37.7943C325.466 39.3621 325.741 41.301 325.328 43.73L329.271 44.4007C329.795 41.3183 329.502 38.4703 328.228 35.9756L324.666 37.7943ZM325.326 43.7382C324.927 46.1435 323.983 48.2398 322.491 50.0651L325.588 52.5969C327.533 50.2176 328.762 47.4702 329.272 44.3925L325.326 43.7382ZM322.495 50.0599C320.996 51.8815 319.045 53.3323 316.595 54.3972L318.189 58.0658C321.164 56.7729 323.645 54.9566 325.584 52.602L322.495 50.0599ZM316.591 54.3988C314.184 55.4501 311.389 56 308.166 56V60C311.846 60 315.201 59.3709 318.192 58.0643L316.591 54.3988ZM308.166 56H291.845V60H308.166V56ZM293.818 58.3275L301.062 14.6912L297.116 14.0361L289.872 57.6725L293.818 58.3275ZM299.089 16.3636H308.315V12.3636H299.089V16.3636ZM306.342 14.0363L300.333 50.2579L304.28 50.9125L310.288 14.6909L306.342 14.0363ZM302.306 52.5852H309.402V48.5852H302.306V52.5852ZM309.402 52.5852C311.291 52.5852 313.04 52.2426 314.596 51.4914L312.857 47.8892C311.942 48.3312 310.808 48.5852 309.402 48.5852V52.5852ZM314.605 51.4873C316.104 50.7549 317.363 49.762 318.326 48.4899L315.137 46.0754C314.594 46.792 313.85 47.4042 312.849 47.8934L314.605 51.4873ZM318.323 48.4934C319.281 47.2335 319.897 45.8245 320.135 44.286L316.182 43.6742C316.051 44.5221 315.715 45.3148 315.139 46.0719L318.323 48.4934ZM320.13 44.3194C320.525 42.0204 319.968 39.9091 318.38 38.2207L315.466 40.9611C316.122 41.6591 316.389 42.474 316.188 43.6408L320.13 44.3194ZM318.388 38.2293C316.733 36.4484 314.282 35.7798 311.532 35.7798V39.7798C313.726 39.7798 314.869 40.3186 315.458 40.9525L318.388 38.2293ZM311.532 35.7798H301.135V39.7798H311.532V35.7798ZM303.107 38.1086L304.322 30.8217L300.376 30.1641L299.162 37.451L303.107 38.1086ZM343.395 14.0361L336.15 57.6725L340.096 58.3275L347.341 14.6912L343.395 14.0361ZM338.123 56H328.919V60H338.123V56ZM330.892 58.3275L338.136 14.6912L334.19 14.0361L326.946 57.6725L330.892 58.3275ZM336.163 16.3636H345.368V12.3636H336.163V16.3636ZM345.714 58L343.741 57.6725L343.354 60H345.714V58ZM352.958 14.3636V12.3636H351.263L350.985 14.0361L352.958 14.3636ZM382.362 14.3636L384.334 14.6951L384.726 12.3636H382.362V14.3636ZM381.083 21.9702V23.9702H382.775L383.055 22.3017L381.083 21.9702ZM360.906 21.9702V19.9702H359.207L358.932 21.6466L360.906 21.9702ZM359.201 32.3679L357.227 32.0443L356.846 34.3679H359.201V32.3679ZM377.866 32.3679L379.838 32.6994L380.23 30.3679H377.866V32.3679ZM376.587 39.9744V41.9744H378.279L378.56 40.3059L376.587 39.9744ZM357.923 39.9744V37.9744H356.223L355.949 39.6515L357.923 39.9744ZM356.218 50.3935L354.244 50.0706L353.864 52.3935H356.218V50.3935ZM376.481 50.3935L378.453 50.725L378.845 48.3935H376.481V50.3935ZM375.202 58V60H376.894L377.175 58.3315L375.202 58ZM347.687 58.3275L354.931 14.6912L350.985 14.0361L343.741 57.6725L347.687 58.3275ZM352.958 16.3636H382.362V12.3636H352.958V16.3636ZM380.389 14.0321L379.111 21.6387L383.055 22.3017L384.334 14.6951L380.389 14.0321ZM381.083 19.9702H360.906V23.9702H381.083V19.9702ZM358.932 21.6466L357.227 32.0443L361.175 32.6914L362.879 22.2937L358.932 21.6466ZM359.201 34.3679H377.866V30.3679H359.201V34.3679ZM375.893 32.0364L374.615 39.6429L378.56 40.3059L379.838 32.6994L375.893 32.0364ZM376.587 37.9744H357.923V41.9744H376.587V37.9744ZM355.949 39.6515L354.244 50.0706L358.192 50.7164L359.896 40.2973L355.949 39.6515ZM356.218 52.3935H376.481V48.3935H356.218V52.3935ZM374.508 50.062L373.23 57.6685L377.175 58.3315L378.453 50.725L374.508 50.062ZM375.202 56H345.714V60H375.202V56ZM403.583 14.3636V12.3636H401.888L401.61 14.0361L403.583 14.3636ZM412.788 14.3636L414.761 14.6914L415.147 12.3636H412.788V14.3636ZM408.228 41.8068L406.255 41.479L405.868 43.8068H408.228V41.8068ZM408.612 41.8068V43.8068H409.535L410.134 43.1043L408.612 41.8068ZM432.006 14.3636V12.3636H431.083L430.484 13.0661L432.006 14.3636ZM440.082 14.3636L442.055 14.6912L442.441 12.3636H440.082V14.3636ZM432.837 58V60H434.533L434.81 58.3275L432.837 58ZM423.612 58L421.639 57.6724L421.252 60H423.612V58ZM428.171 30.5355L430.144 30.8631L430.531 28.5355H428.171V30.5355ZM427.852 30.5355V28.5355H426.931L426.333 29.2345L427.852 30.5355ZM404.329 58V60H405.249L405.848 59.301L404.329 58ZM396.339 58L394.366 57.6725L393.979 60H396.339V58ZM403.583 16.3636H412.788V12.3636H403.583V16.3636ZM410.815 14.0358L406.255 41.479L410.201 42.1346L414.761 14.6914L410.815 14.0358ZM408.228 43.8068H408.612V39.8068H408.228V43.8068ZM410.134 43.1043L433.528 15.6611L430.484 13.0661L407.089 40.5093L410.134 43.1043ZM432.006 16.3636H440.082V12.3636H432.006V16.3636ZM438.109 14.0361L430.864 57.6725L434.81 58.3275L442.055 14.6912L438.109 14.0361ZM432.837 56H423.612V60H432.837V56ZM425.585 58.3276L430.144 30.8631L426.198 30.208L421.639 57.6724L425.585 58.3276ZM428.171 28.5355H427.852V32.5355H428.171V28.5355ZM426.333 29.2345L402.81 56.699L405.848 59.301L429.371 31.8365L426.333 29.2345ZM404.329 56H396.339V60H404.329V56ZM398.312 58.3275L405.556 14.6912L401.61 14.0361L394.366 57.6725L398.312 58.3275ZM476.66 14.3636L478.632 14.6951L479.024 12.3636H476.66V14.3636ZM475.382 21.9702V23.9702H477.074L477.354 22.3017L475.382 21.9702ZM455.652 21.9702V19.9702H453.956L453.679 21.6435L455.652 21.9702ZM449.686 58V60H451.382L451.659 58.3267L449.686 58ZM440.46 58L438.487 57.6725L438.1 60H440.46V58ZM447.704 14.3636V12.3636H446.009L445.731 14.0361L447.704 14.3636ZM474.688 14.0321L473.409 21.6387L477.354 22.3017L478.632 14.6951L474.688 14.0321ZM475.382 19.9702H455.652V23.9702H475.382V19.9702ZM453.679 21.6435L447.713 57.6733L451.659 58.3267L457.625 22.2969L453.679 21.6435ZM449.686 56H440.46V60H449.686V56ZM442.433 58.3275L449.677 14.6912L445.731 14.0361L438.487 57.6725L442.433 58.3275ZM447.704 16.3636H476.66V12.3636H447.704V16.3636ZM475.323 58L473.35 57.6725L472.964 60H475.323V58ZM482.567 14.3636V12.3636H480.872L480.594 14.0361L482.567 14.3636ZM507.901 16.2599L506.876 17.977L506.882 17.981L506.889 17.985L507.901 16.2599ZM512.376 21.4801L510.507 22.1941L510.51 22.2013L510.513 22.2085L512.376 21.4801ZM512.972 29.1506L514.945 29.4778L514.947 29.4699L512.972 29.1506ZM509.819 36.8423L508.204 35.6623L508.203 35.6641L509.819 36.8423ZM503.555 41.9986L504.421 43.8012L504.421 43.8012L503.555 41.9986ZM483.675 43.8523L481.702 43.5281L481.32 45.8523H483.675V43.8523ZM484.89 36.4588V34.4588H483.192L482.916 36.1346L484.89 36.4588ZM498.952 35.5426L499.822 37.3435L499.831 37.3394L498.952 35.5426ZM501.999 32.9645L503.647 34.0985L503.654 34.0885L501.999 32.9645ZM503.469 29.1506L501.496 28.8249L501.494 28.8376L503.469 29.1506ZM503.235 25.3366L505.112 24.6452L505.112 24.6452L503.235 25.3366ZM501.04 22.8224L500.036 24.5517L500.049 24.5597L500.063 24.5675L501.04 22.8224ZM490.579 21.9062V19.9062H488.885L488.606 21.5767L490.579 21.9062ZM484.549 58V60H486.243L486.522 58.3296L484.549 58ZM477.296 58.3275L484.54 14.6912L480.594 14.0361L473.35 57.6725L477.296 58.3275ZM482.567 16.3636H499.783V12.3636H482.567V16.3636ZM499.783 16.3636C502.836 16.3636 505.157 16.9503 506.876 17.977L508.927 14.5429C506.413 13.0412 503.322 12.3636 499.783 12.3636V16.3636ZM506.889 17.985C508.643 19.0137 509.823 20.4042 510.507 22.1941L514.244 20.7661C513.223 18.0958 511.421 16.0062 508.913 14.5349L506.889 17.985ZM510.513 22.2085C511.222 24.0217 511.423 26.2044 510.998 28.8312L514.947 29.4699C515.459 26.3013 515.262 23.3703 514.238 20.7518L510.513 22.2085ZM510.999 28.8233C510.563 31.4507 509.625 33.7175 508.204 35.6623L511.434 38.0224C513.251 35.5353 514.415 32.6743 514.945 29.4778L510.999 28.8233ZM508.203 35.6641C506.801 37.5863 504.976 39.0963 502.688 40.196L504.421 43.8012C507.275 42.4293 509.626 40.5017 511.435 38.0205L508.203 35.6641ZM502.688 40.196C500.432 41.2805 497.769 41.8523 494.648 41.8523V45.8523C498.261 45.8523 501.535 45.1883 504.421 43.8012L502.688 40.196ZM494.648 41.8523H483.675V45.8523H494.648V41.8523ZM485.649 44.1765L486.863 36.783L482.916 36.1346L481.702 43.5281L485.649 44.1765ZM484.89 38.4588H494.371V34.4588H484.89V38.4588ZM494.371 38.4588C496.382 38.4588 498.223 38.1162 499.822 37.3434L498.082 33.7418C497.153 34.1906 495.94 34.4588 494.371 34.4588V38.4588ZM499.831 37.3394C501.395 36.5745 502.685 35.4959 503.647 34.0985L500.352 31.8305C499.808 32.6206 499.066 33.2608 498.074 33.7458L499.831 37.3394ZM503.654 34.0885C504.585 32.7171 505.175 31.164 505.445 29.4635L501.494 28.8376C501.309 30.0065 500.919 30.996 500.345 31.8404L503.654 34.0885ZM505.443 29.4763C505.725 27.7679 505.659 26.1305 505.112 24.6452L501.358 26.0281C501.607 26.7018 501.697 27.6071 501.496 28.8249L505.443 29.4763ZM505.112 24.6452C504.539 23.0897 503.471 21.8914 502.018 21.0774L500.063 24.5675C500.74 24.9467 501.136 25.4245 501.358 26.0281L505.112 24.6452ZM502.045 21.0932C500.58 20.2417 498.777 19.9062 496.8 19.9062V23.9062C498.375 23.9062 499.399 24.1816 500.036 24.5517L502.045 21.0932ZM496.8 19.9062H490.579V23.9062H496.8V19.9062ZM488.606 21.5767L482.576 57.6704L486.522 58.3296L492.551 22.2358L488.606 21.5767ZM484.549 56H475.323V60H484.549V56ZM524.419 30.4929V28.4929H522.725L522.447 30.1641L524.419 30.4929ZM543.489 32.1761L542.617 33.9759L542.623 33.9791L542.63 33.9823L543.489 32.1761ZM548.517 36.8849L546.731 37.7844L546.736 37.7943L548.517 36.8849ZM549.37 44.0653L547.398 43.7299L547.397 43.7382L549.37 44.0653ZM546.11 51.331L547.654 52.602L547.658 52.5969L546.11 51.331ZM539.462 56.2315L538.665 54.3972L538.661 54.3988L539.462 56.2315ZM513.915 58L511.942 57.6725L511.556 60H513.915V58ZM521.159 14.3636V12.3636H519.464L519.186 14.0361L521.159 14.3636ZM530.385 14.3636L532.358 14.6909L532.744 12.3636H530.385V14.3636ZM524.377 50.5852L522.404 50.2579L522.018 52.5852H524.377V50.5852ZM535.797 49.6903L536.667 51.4915L536.675 51.4873L535.797 49.6903ZM538.801 47.2827L537.21 46.0719L537.207 46.0754L538.801 47.2827ZM540.229 43.9801L538.258 43.6408L538.255 43.6575L538.253 43.6742L540.229 43.9801ZM538.993 39.5909L537.528 40.9525L537.536 40.9611L538.993 39.5909ZM523.205 37.7798L521.232 37.451L520.844 39.7798H523.205V37.7798ZM567.438 14.3636L569.411 14.6912L569.797 12.3636H567.438V14.3636ZM560.194 58V60H561.889L562.167 58.3275L560.194 58ZM550.989 58L549.016 57.6725L548.63 60H550.989V58ZM558.233 14.3636V12.3636H556.538L556.26 14.0361L558.233 14.3636ZM524.419 32.4929H534.817V28.4929H524.419V32.4929ZM534.817 32.4929C538.081 32.4929 540.651 33.023 542.617 33.9759L544.361 30.3764C541.697 29.0849 538.485 28.4929 534.817 28.4929V32.4929ZM542.63 33.9823C544.615 34.9263 545.935 36.2025 546.731 37.7844L550.304 35.9855C549.055 33.5048 547.022 31.6419 544.348 30.37L542.63 33.9823ZM546.736 37.7943C547.536 39.3621 547.811 41.301 547.398 43.73L551.341 44.4007C551.866 41.3183 551.572 38.4703 550.299 35.9756L546.736 37.7943ZM547.397 43.7382C546.998 46.1435 546.054 48.2398 544.561 50.0651L547.658 52.5969C549.603 50.2176 550.832 47.4702 551.343 44.3925L547.397 43.7382ZM544.566 50.0599C543.066 51.8815 541.116 53.3323 538.665 54.3972L540.259 58.0658C543.235 56.7729 545.716 54.9566 547.654 52.602L544.566 50.0599ZM538.661 54.3988C536.255 55.4501 533.459 56 530.236 56V60C533.917 60 537.272 59.3709 540.263 58.0643L538.661 54.3988ZM530.236 56H513.915V60H530.236V56ZM515.888 58.3275L523.132 14.6912L519.186 14.0361L511.942 57.6725L515.888 58.3275ZM521.159 16.3636H530.385V12.3636H521.159V16.3636ZM528.412 14.0363L522.404 50.2579L526.35 50.9125L532.358 14.6909L528.412 14.0363ZM524.377 52.5852H531.472V48.5852H524.377V52.5852ZM531.472 52.5852C533.361 52.5852 535.111 52.2426 536.667 51.4914L534.928 47.8892C534.012 48.3312 532.878 48.5852 531.472 48.5852V52.5852ZM536.675 51.4873C538.174 50.7549 539.433 49.762 540.396 48.4899L537.207 46.0754C536.664 46.792 535.92 47.4042 534.919 47.8934L536.675 51.4873ZM540.393 48.4934C541.352 47.2335 541.967 45.8245 542.206 44.286L538.253 43.6742C538.121 44.5221 537.785 45.3148 537.21 46.0719L540.393 48.4934ZM542.2 44.3194C542.596 42.0204 542.038 39.9091 540.45 38.2207L537.536 40.9611C538.193 41.6591 538.459 42.474 538.258 43.6408L542.2 44.3194ZM540.458 38.2293C538.803 36.4484 536.353 35.7798 533.603 35.7798V39.7798C535.796 39.7798 536.939 40.3186 537.528 40.9525L540.458 38.2293ZM533.603 35.7798H523.205V39.7798H533.603V35.7798ZM525.178 38.1086L526.392 30.8217L522.447 30.1641L521.232 37.451L525.178 38.1086ZM565.465 14.0361L558.221 57.6725L562.167 58.3275L569.411 14.6912L565.465 14.0361ZM560.194 56H550.989V60H560.194V56ZM552.962 58.3275L560.206 14.6912L556.26 14.0361L549.016 57.6725L552.962 58.3275ZM558.233 16.3636H567.438V12.3636H558.233V16.3636ZM588.915 14.3636V12.3636H587.22L586.942 14.0361L588.915 14.3636ZM598.12 14.3636L600.093 14.6914L600.479 12.3636H598.12V14.3636ZM593.56 41.8068L591.587 41.479L591.2 43.8068H593.56V41.8068ZM593.944 41.8068V43.8068H594.867L595.466 43.1043L593.944 41.8068ZM617.338 14.3636V12.3636H616.415L615.816 13.0661L617.338 14.3636ZM625.414 14.3636L627.387 14.6912L627.773 12.3636H625.414V14.3636ZM618.169 58V60H619.865L620.142 58.3275L618.169 58ZM608.944 58L606.971 57.6724L606.584 60H608.944V58ZM613.503 30.5355L615.476 30.8631L615.863 28.5355H613.503V30.5355ZM613.184 30.5355V28.5355H612.263L611.665 29.2345L613.184 30.5355ZM589.661 58V60H590.581L591.18 59.301L589.661 58ZM581.671 58L579.698 57.6725L579.311 60H581.671V58ZM588.915 16.3636H598.12V12.3636H588.915V16.3636ZM596.147 14.0358L591.587 41.479L595.533 42.1346L600.093 14.6914L596.147 14.0358ZM593.56 43.8068H593.944V39.8068H593.56V43.8068ZM595.466 43.1043L618.86 15.6611L615.816 13.0661L592.422 40.5093L595.466 43.1043ZM617.338 16.3636H625.414V12.3636H617.338V16.3636ZM623.441 14.0361L616.196 57.6725L620.142 58.3275L627.387 14.6912L623.441 14.0361ZM618.169 56H608.944V60H618.169V56ZM610.917 58.3276L615.476 30.8631L611.53 30.208L606.971 57.6724L610.917 58.3276ZM613.503 28.5355H613.184V32.5355H613.503V28.5355ZM611.665 29.2345L588.142 56.699L591.18 59.301L614.703 31.8365L611.665 29.2345ZM589.661 56H581.671V60H589.661V56ZM583.644 58.3275L590.888 14.6912L586.942 14.0361L579.698 57.6725L583.644 58.3275ZM684.018 14.3636L685.991 14.6912L686.378 12.3636H684.018V14.3636ZM676.774 58V60H678.469L678.747 58.3275L676.774 58ZM667.654 58L665.682 57.6708L665.293 60H667.654V58ZM673.684 21.8636L675.657 22.1928L676.046 19.8636H673.684V21.8636ZM656.042 21.8636V19.8636H654.348L654.07 21.5345L656.042 21.8636ZM650.012 58V60H651.706L651.985 58.3292L650.012 58ZM640.893 58L638.92 57.6725L638.534 60H640.893V58ZM648.137 14.3636V12.3636H646.442L646.164 14.0361L648.137 14.3636ZM682.045 14.0361L674.801 57.6725L678.747 58.3275L685.991 14.6912L682.045 14.0361ZM676.774 56H667.654V60H676.774V56ZM669.627 58.3292L675.657 22.1928L671.712 21.5345L665.682 57.6708L669.627 58.3292ZM673.684 19.8636H656.042V23.8636H673.684V19.8636ZM654.07 21.5345L648.04 57.6708L651.985 58.3292L658.015 22.1928L654.07 21.5345ZM650.012 56H640.893V60H650.012V56ZM642.866 58.3275L650.11 14.6912L646.164 14.0361L638.92 57.6725L642.866 58.3275ZM648.137 16.3636H684.018V12.3636H648.137V16.3636ZM685.558 58L683.585 57.6725L683.198 60H685.558V58ZM692.802 14.3636V12.3636H691.107L690.829 14.0361L692.802 14.3636ZM718.136 16.2599L717.11 17.977L717.117 17.981L717.124 17.985L718.136 16.2599ZM722.61 21.4801L720.742 22.1941L720.745 22.2013L720.747 22.2085L722.61 21.4801ZM723.207 29.1506L725.18 29.4778L725.181 29.4699L723.207 29.1506ZM720.053 36.8423L718.438 35.6623L718.437 35.6641L720.053 36.8423ZM713.789 41.9986L714.655 43.8012L714.655 43.8012L713.789 41.9986ZM693.91 43.8523L691.936 43.5281L691.554 45.8523H693.91V43.8523ZM695.124 36.4588V34.4588H693.426L693.151 36.1346L695.124 36.4588ZM709.187 35.5426L710.057 37.3435L710.065 37.3394L709.187 35.5426ZM712.234 32.9645L713.881 34.0985L713.888 34.0885L712.234 32.9645ZM713.704 29.1506L711.73 28.8249L711.728 28.8376L713.704 29.1506ZM713.469 25.3366L715.346 24.6452L715.346 24.6452L713.469 25.3366ZM711.275 22.8224L710.27 24.5517L710.284 24.5597L710.298 24.5675L711.275 22.8224ZM700.813 21.9062V19.9062H699.12L698.841 21.5767L700.813 21.9062ZM694.783 58V60H696.477L696.756 58.3296L694.783 58ZM687.531 58.3275L694.775 14.6912L690.829 14.0361L683.585 57.6725L687.531 58.3275ZM692.802 16.3636H710.018V12.3636H692.802V16.3636ZM710.018 16.3636C713.07 16.3636 715.391 16.9503 717.11 17.977L719.161 14.5429C716.647 13.0412 713.557 12.3636 710.018 12.3636V16.3636ZM717.124 17.985C718.877 19.0137 720.058 20.4042 720.742 22.1941L724.478 20.7661C723.458 18.0958 721.656 16.0062 719.148 14.5349L717.124 17.985ZM720.747 22.2085C721.456 24.0217 721.657 26.2044 721.232 28.8312L725.181 29.4699C725.694 26.3013 725.497 23.3703 724.473 20.7518L720.747 22.2085ZM721.234 28.8233C720.798 31.4507 719.86 33.7175 718.438 35.6623L721.668 38.0224C723.486 35.5353 724.65 32.6743 725.18 29.4778L721.234 28.8233ZM718.437 35.6641C717.036 37.5863 715.211 39.0963 712.923 40.196L714.655 43.8012C717.51 42.4293 719.861 40.5017 721.669 38.0205L718.437 35.6641ZM712.923 40.196C710.666 41.2805 708.003 41.8523 704.883 41.8523V45.8523C708.496 45.8523 711.77 45.1883 714.655 43.8012L712.923 40.196ZM704.883 41.8523H693.91V45.8523H704.883V41.8523ZM695.883 44.1765L697.098 36.783L693.151 36.1346L691.936 43.5281L695.883 44.1765ZM695.124 38.4588H704.606V34.4588H695.124V38.4588ZM704.606 38.4588C706.617 38.4588 708.457 38.1162 710.057 37.3434L708.317 33.7418C707.388 34.1906 706.174 34.4588 704.606 34.4588V38.4588ZM710.065 37.3394C711.63 36.5745 712.919 35.4959 713.881 34.0985L710.586 31.8305C710.042 32.6206 709.301 33.2608 708.308 33.7458L710.065 37.3394ZM713.888 34.0885C714.82 32.7171 715.41 31.164 715.679 29.4635L711.728 28.8376C711.543 30.0065 711.153 30.996 710.579 31.8404L713.888 34.0885ZM715.677 29.4763C715.959 27.7679 715.893 26.1305 715.346 24.6452L711.593 26.0281C711.841 26.7018 711.932 27.6071 711.731 28.8249L715.677 29.4763ZM715.346 24.6452C714.773 23.0897 713.706 21.8914 712.252 21.0774L710.298 24.5675C710.975 24.9467 711.37 25.4245 711.593 26.0281L715.346 24.6452ZM712.28 21.0932C710.814 20.2417 709.011 19.9062 707.035 19.9062V23.9062C708.61 23.9062 709.633 24.1816 710.27 24.5517L712.28 21.0932ZM707.035 19.9062H700.813V23.9062H707.035V19.9062ZM698.841 21.5767L692.811 57.6704L696.756 58.3296L702.786 22.2358L698.841 21.5767ZM694.783 56H685.558V60H694.783V56ZM768.042 36.7784L770.013 37.115L770.015 37.1025L768.042 36.7784ZM763.418 48.6463L761.782 47.496L761.778 47.5008L763.418 48.6463ZM755.087 56.0611L754.171 54.2831L754.168 54.2848L755.087 56.0611ZM734.27 55.8906L733.202 57.5814L733.206 57.5838L734.27 55.8906ZM728.07 48.071L726.196 48.7707L726.197 48.7733L728.07 48.071ZM727.346 35.6918L729.319 36.0168L729.319 36.0157L727.346 35.6918ZM731.926 23.8026L733.563 24.9528L733.565 24.9495L731.926 23.8026ZM740.3 16.3452L741.219 18.1216L741.225 18.1185L740.3 16.3452ZM761.117 16.4943L760.043 18.1813L760.046 18.1837L761.117 16.4943ZM767.317 24.3778L765.44 25.0682L765.444 25.0775L767.317 24.3778ZM758.858 35.6918L760.831 36.0206L760.831 36.019L758.858 35.6918ZM758.794 28.1491L756.857 28.6469L756.859 28.6548L756.861 28.6628L758.794 28.1491ZM755.897 23.5043L757.094 21.9023L757.094 21.9023L755.897 23.5043ZM744.157 23.6747L743.129 21.9586L743.124 21.962L744.157 23.6747ZM739.256 28.7457L737.543 27.7135L737.541 27.7167L739.256 28.7457ZM736.507 36.7784L738.479 37.1132L738.48 37.1059L738.482 37.0986L736.507 36.7784ZM736.55 44.321L734.618 44.8381L734.621 44.8507L736.55 44.321ZM739.512 48.902L738.332 50.5174L738.342 50.524L738.351 50.5305L739.512 48.902ZM751.209 48.7315L752.229 50.4521L752.233 50.4499L751.209 48.7315ZM756.088 43.7244L757.8 44.7583L757.803 44.7534L756.088 43.7244ZM766.07 36.4418C765.315 40.8628 763.869 44.5277 761.782 47.496L765.054 49.7966C767.541 46.2592 769.177 42.0122 770.013 37.115L766.07 36.4418ZM761.778 47.5008C759.678 50.5077 757.142 52.7527 754.171 54.2831L756.003 57.839C759.595 55.9887 762.613 53.2906 765.057 49.7918L761.778 47.5008ZM754.168 54.2848C751.193 55.824 747.986 56.5966 744.519 56.5966V60.5966C748.608 60.5966 752.447 59.6788 756.006 57.8374L754.168 54.2848ZM744.519 56.5966C740.868 56.5966 737.834 55.769 735.335 54.1975L733.206 57.5838C736.445 59.6202 740.244 60.5966 744.519 60.5966V56.5966ZM735.339 54.1998C732.882 52.6475 731.081 50.4033 729.943 47.3688L726.197 48.7733C727.616 52.5569 729.949 55.5258 733.202 57.5814L735.339 54.1998ZM729.944 47.3713C728.822 44.3677 728.562 40.6147 729.319 36.0168L725.372 35.3667C724.539 40.4279 724.761 44.9278 726.196 48.7707L729.944 47.3713ZM729.319 36.0157C730.047 31.5835 731.479 27.9165 733.563 24.9528L730.29 22.6523C727.8 26.1943 726.179 30.4534 725.372 35.3678L729.319 36.0157ZM733.565 24.9495C735.681 21.927 738.232 19.6666 741.219 18.1216L739.381 14.5687C735.777 16.4329 732.746 19.144 730.288 22.6556L733.565 24.9495ZM741.225 18.1185C744.229 16.5518 747.455 15.767 750.932 15.767V11.767C746.824 11.767 742.962 12.7011 739.375 14.5719L741.225 18.1185ZM750.932 15.767C754.549 15.767 757.558 16.599 760.043 18.1813L762.191 14.8073C758.966 12.7533 755.184 11.767 750.932 11.767V15.767ZM760.046 18.1837C762.515 19.7477 764.315 22.0089 765.44 25.0682L769.194 23.6875C767.791 19.8717 765.458 16.8773 762.187 14.8049L760.046 18.1837ZM765.444 25.0775C766.565 28.0808 766.826 31.8409 766.068 36.4543L770.015 37.1025C770.848 32.0285 770.626 27.5215 769.191 23.6782L765.444 25.0775ZM760.831 36.019C761.356 32.857 761.365 30.035 760.727 27.6355L756.861 28.6628C757.303 30.3258 757.355 32.5322 756.885 35.3645L760.831 36.019ZM760.731 27.6514C760.116 25.2572 758.936 23.2788 757.094 21.9023L754.699 25.1062C755.67 25.832 756.421 26.9502 756.857 28.6469L760.731 27.6514ZM757.094 21.9023C755.271 20.5398 753.049 19.9276 750.57 19.9276V23.9276C752.381 23.9276 753.71 24.3665 754.699 25.1062L757.094 21.9023ZM750.57 19.9276C747.889 19.9276 745.395 20.6028 743.129 21.9586L745.184 25.3908C746.811 24.417 748.592 23.9276 750.57 23.9276V19.9276ZM743.124 21.962C740.875 23.3181 739.021 25.26 737.543 27.7135L740.969 29.778C742.161 27.7996 743.575 26.3609 745.189 25.3875L743.124 21.962ZM737.541 27.7167C736.062 30.1822 735.076 33.1133 734.533 36.4583L738.482 37.0986C738.962 34.1367 739.808 31.7127 740.971 29.7747L737.541 27.7167ZM734.536 36.4436C733.997 39.6178 733.978 42.4453 734.618 44.838L738.482 43.804C738.043 42.1626 737.996 39.9617 738.479 37.1132L734.536 36.4436ZM734.621 44.8507C735.272 47.2181 736.481 49.1656 738.332 50.5174L740.691 47.2866C739.702 46.5645 738.936 45.458 738.479 43.7913L734.621 44.8507ZM738.351 50.5305C740.19 51.8418 742.402 52.4361 744.86 52.4361V48.4361C743.056 48.4361 741.703 48.0077 740.673 47.2734L738.351 50.5305ZM744.86 52.4361C747.519 52.4361 749.99 51.7787 752.229 50.4521L750.19 47.011C748.593 47.9571 746.831 48.4361 744.86 48.4361V52.4361ZM752.233 50.4499C754.483 49.1094 756.333 47.1882 757.8 44.7583L754.376 42.6905C753.202 44.6356 751.799 46.0525 750.186 47.0132L752.233 50.4499ZM757.803 44.7534C759.281 42.291 760.274 39.363 760.831 36.0206L756.886 35.363C756.391 38.3274 755.538 40.7545 754.373 42.6954L757.803 44.7534ZM771.339 58L769.366 57.6725L768.979 60H771.339V58ZM778.583 14.3636V12.3636H776.888L776.61 14.0361L778.583 14.3636ZM807.987 14.3636L809.959 14.6951L810.351 12.3636H807.987V14.3636ZM806.708 21.9702V23.9702H808.4L808.68 22.3017L806.708 21.9702ZM786.531 21.9702V19.9702H784.832L784.557 21.6466L786.531 21.9702ZM784.826 32.3679L782.852 32.0443L782.471 34.3679H784.826V32.3679ZM803.491 32.3679L805.463 32.6994L805.855 30.3679H803.491V32.3679ZM802.212 39.9744V41.9744H803.904L804.185 40.3059L802.212 39.9744ZM783.548 39.9744V37.9744H781.848L781.574 39.6515L783.548 39.9744ZM781.843 50.3935L779.869 50.0706L779.489 52.3935H781.843V50.3935ZM802.106 50.3935L804.078 50.725L804.47 48.3935H802.106V50.3935ZM800.827 58V60H802.519L802.8 58.3315L800.827 58ZM773.312 58.3275L780.556 14.6912L776.61 14.0361L769.366 57.6725L773.312 58.3275ZM778.583 16.3636H807.987V12.3636H778.583V16.3636ZM806.014 14.0321L804.736 21.6387L808.68 22.3017L809.959 14.6951L806.014 14.0321ZM806.708 19.9702H786.531V23.9702H806.708V19.9702ZM784.557 21.6466L782.852 32.0443L786.8 32.6914L788.504 22.2937L784.557 21.6466ZM784.826 34.3679H803.491V30.3679H784.826V34.3679ZM801.518 32.0364L800.24 39.6429L804.185 40.3059L805.463 32.6994L801.518 32.0364ZM802.212 37.9744H783.548V41.9744H802.212V37.9744ZM781.574 39.6515L779.869 50.0706L783.817 50.7164L785.521 40.2973L781.574 39.6515ZM781.843 52.3935H802.106V48.3935H781.843V52.3935ZM800.133 50.062L798.855 57.6685L802.8 58.3315L804.078 50.725L800.133 50.062ZM800.827 56H771.339V60H800.827V56ZM834.476 58L832.752 59.0133L833.332 60H834.476V58ZM823.546 39.3991L825.27 38.3859L824.69 37.3991H823.546V39.3991ZM820.392 39.3991V37.3991H818.697L818.419 39.0714L820.392 39.3991ZM817.303 58V60H818.998L819.276 58.3277L817.303 58ZM808.077 58L806.104 57.6725L805.718 60H808.077V58ZM815.321 14.3636V12.3636H813.626L813.348 14.0361L815.321 14.3636ZM824.547 14.3636L826.52 14.6917L826.907 12.3636H824.547V14.3636ZM821.65 31.7926L819.677 31.4646L819.29 33.7926H821.65V31.7926ZM823.503 31.7926V33.7926H824.333L824.919 33.2051L823.503 31.7926ZM840.89 14.3636V12.3636H840.06L839.474 12.9512L840.89 14.3636ZM852.374 14.3636L853.784 15.7823L857.224 12.3636H852.374V14.3636ZM832.005 34.6051L830.595 33.1865L829.488 34.2863L830.286 35.6274L832.005 34.6051ZM845.918 58V60H849.434L847.637 56.9777L845.918 58ZM836.201 56.9867L825.27 38.3859L821.821 40.4124L832.752 59.0133L836.201 56.9867ZM823.546 37.3991H820.392V41.3991H823.546V37.3991ZM818.419 39.0714L815.33 57.6723L819.276 58.3277L822.365 39.7268L818.419 39.0714ZM817.303 56H808.077V60H817.303V56ZM810.05 58.3275L817.294 14.6912L813.348 14.0361L806.104 57.6725L810.05 58.3275ZM815.321 16.3636H824.547V12.3636H815.321V16.3636ZM822.574 14.0356L819.677 31.4646L823.622 32.1206L826.52 14.6917L822.574 14.0356ZM821.65 33.7926H823.503V29.7926H821.65V33.7926ZM824.919 33.2051L842.306 15.7761L839.474 12.9512L822.087 30.3801L824.919 33.2051ZM840.89 16.3636H852.374V12.3636H840.89V16.3636ZM850.964 12.945L830.595 33.1865L833.414 36.0238L853.784 15.7823L850.964 12.945ZM830.286 35.6274L844.199 59.0223L847.637 56.9777L833.724 33.5828L830.286 35.6274ZM845.918 56H834.476V60H845.918V56ZM854.862 21.9702L852.889 21.6387L852.497 23.9702H854.862V21.9702ZM856.14 14.3636V12.3636H854.448L854.168 14.0321L856.14 14.3636ZM891.978 14.3636L893.95 14.6951L894.342 12.3636H891.978V14.3636ZM890.7 21.9702V23.9702H892.391L892.672 22.3017L890.7 21.9702ZM877.34 21.9702V19.9702H875.644L875.367 21.6435L877.34 21.9702ZM871.374 58V60H873.07L873.347 58.3267L871.374 58ZM862.255 58L860.282 57.6733L859.897 60H862.255V58ZM868.221 21.9702L870.194 22.2969L870.579 19.9702H868.221V21.9702ZM856.834 22.3017L858.112 14.6951L854.168 14.0321L852.889 21.6387L856.834 22.3017ZM856.14 16.3636H891.978V12.3636H856.14V16.3636ZM890.006 14.0321L888.727 21.6387L892.672 22.3017L893.95 14.6951L890.006 14.0321ZM890.7 19.9702H877.34V23.9702H890.7V19.9702ZM875.367 21.6435L869.401 57.6733L873.347 58.3267L879.313 22.2969L875.367 21.6435ZM871.374 56H862.255V60H871.374V56ZM864.228 58.3267L870.194 22.2969L866.248 21.6435L860.282 57.6733L864.228 58.3267ZM868.221 19.9702H854.862V23.9702H868.221V19.9702ZM900.884 30.4929V28.4929H899.19L898.911 30.1641L900.884 30.4929ZM919.954 32.1761L919.082 33.9759L919.088 33.9791L919.095 33.9823L919.954 32.1761ZM924.982 36.8849L923.196 37.7844L923.201 37.7943L924.982 36.8849ZM925.835 44.0653L923.863 43.7299L923.861 43.7382L925.835 44.0653ZM922.575 51.331L924.119 52.602L924.123 52.5969L922.575 51.331ZM915.927 56.2315L915.13 54.3972L915.126 54.3988L915.927 56.2315ZM890.38 58L888.407 57.6725L888.021 60H890.38V58ZM897.624 14.3636V12.3636H895.929L895.651 14.0361L897.624 14.3636ZM906.85 14.3636L908.823 14.6909L909.209 12.3636H906.85V14.3636ZM900.842 50.5852L898.869 50.2579L898.483 52.5852H900.842V50.5852ZM912.262 49.6903L913.132 51.4915L913.14 51.4873L912.262 49.6903ZM915.266 47.2827L913.674 46.0719L913.672 46.0754L915.266 47.2827ZM916.694 43.9801L914.723 43.6408L914.72 43.6575L914.717 43.6742L916.694 43.9801ZM915.458 39.5909L913.993 40.9525L914.001 40.9611L915.458 39.5909ZM899.67 37.7798L897.697 37.451L897.309 39.7798H899.67V37.7798ZM943.903 14.3636L945.876 14.6912L946.262 12.3636H943.903V14.3636ZM936.658 58V60H938.354L938.631 58.3275L936.658 58ZM927.454 58L925.481 57.6725L925.094 60H927.454V58ZM934.698 14.3636V12.3636H933.003L932.725 14.0361L934.698 14.3636ZM900.884 32.4929H911.282V28.4929H900.884V32.4929ZM911.282 32.4929C914.545 32.4929 917.115 33.023 919.082 33.9759L920.826 30.3764C918.162 29.0849 914.95 28.4929 911.282 28.4929V32.4929ZM919.095 33.9823C921.08 34.9263 922.399 36.2025 923.196 37.7844L926.769 35.9855C925.52 33.5048 923.487 31.6419 920.813 30.37L919.095 33.9823ZM923.201 37.7943C924.001 39.3621 924.276 41.301 923.863 43.73L927.806 44.4007C928.331 41.3183 928.037 38.4703 926.764 35.9756L923.201 37.7943ZM923.861 43.7382C923.463 46.1435 922.518 48.2398 921.026 50.0651L924.123 52.5969C926.068 50.2176 927.297 47.4702 927.808 44.3925L923.861 43.7382ZM921.03 50.0599C919.531 51.8815 917.58 53.3323 915.13 54.3972L916.724 58.0658C919.699 56.7729 922.181 54.9566 924.119 52.602L921.03 50.0599ZM915.126 54.3988C912.72 55.4501 909.924 56 906.701 56V60C910.381 60 913.736 59.3709 916.727 58.0643L915.126 54.3988ZM906.701 56H890.38V60H906.701V56ZM892.353 58.3275L899.597 14.6912L895.651 14.0361L888.407 57.6725L892.353 58.3275ZM897.624 16.3636H906.85V12.3636H897.624V16.3636ZM904.877 14.0363L898.869 50.2579L902.815 50.9125L908.823 14.6909L904.877 14.0363ZM900.842 52.5852H907.937V48.5852H900.842V52.5852ZM907.937 52.5852C909.826 52.5852 911.576 52.2426 913.132 51.4914L911.393 47.8892C910.477 48.3312 909.343 48.5852 907.937 48.5852V52.5852ZM913.14 51.4873C914.639 50.7549 915.898 49.762 916.861 48.4899L913.672 46.0754C913.129 46.792 912.385 47.4042 911.384 47.8934L913.14 51.4873ZM916.858 48.4934C917.816 47.2335 918.432 45.8245 918.67 44.286L914.717 43.6742C914.586 44.5221 914.25 45.3148 913.674 46.0719L916.858 48.4934ZM918.665 44.3194C919.061 42.0204 918.503 39.9091 916.915 38.2207L914.001 40.9611C914.658 41.6591 914.924 42.474 914.723 43.6408L918.665 44.3194ZM916.923 38.2293C915.268 36.4484 912.817 35.7798 910.067 35.7798V39.7798C912.261 39.7798 913.404 40.3186 913.993 40.9525L916.923 38.2293ZM910.067 35.7798H899.67V39.7798H910.067V35.7798ZM901.643 38.1086L902.857 30.8217L898.911 30.1641L897.697 37.451L901.643 38.1086ZM941.93 14.0361L934.685 57.6725L938.631 58.3275L945.876 14.6912L941.93 14.0361ZM936.658 56H927.454V60H936.658V56ZM929.427 58.3275L936.671 14.6912L932.725 14.0361L925.481 57.6725L929.427 58.3275ZM934.698 16.3636H943.903V12.3636H934.698V16.3636Z" fill="url(#paint0_linear_1748_279)"/>
<path d="M3.79261 14.3636H12.9972V41.8068H13.3594L32.2159 14.3636H40.2912V58H31.0653V30.5355H30.7457L11.7827 58H3.79261V14.3636ZM63.7873 58.5966C60.6055 58.5966 57.7717 58.0497 55.2859 56.956C52.8143 55.848 50.8612 54.3281 49.4265 52.3963C48.006 50.4503 47.2745 48.206 47.2319 45.6634H56.5217C56.5785 46.7287 56.9265 47.6662 57.5657 48.4759C58.2191 49.2713 59.0856 49.8892 60.1651 50.3295C61.2447 50.7699 62.4592 50.9901 63.8086 50.9901C65.2148 50.9901 66.4577 50.7415 67.5373 50.2443C68.6168 49.7472 69.462 49.0582 70.0728 48.1776C70.6836 47.2969 70.989 46.2812 70.989 45.1307C70.989 43.9659 70.6623 42.9361 70.0089 42.0412C69.3697 41.1321 68.4464 40.4219 67.239 39.9105C66.0458 39.3991 64.6254 39.1435 62.9776 39.1435H58.908V32.3679H62.9776C64.3697 32.3679 65.5984 32.1264 66.6637 31.6435C67.7433 31.1605 68.5813 30.4929 69.1779 29.6406C69.7745 28.7741 70.0728 27.7656 70.0728 26.6151C70.0728 25.5213 69.81 24.5625 69.2844 23.7386C68.7731 22.9006 68.0487 22.2472 67.1112 21.7784C66.1879 21.3097 65.1083 21.0753 63.8725 21.0753C62.6225 21.0753 61.479 21.3026 60.4421 21.7571C59.4052 22.1974 58.5742 22.8295 57.9492 23.6534C57.3242 24.4773 56.9904 25.4432 56.9478 26.5511H48.1055C48.1481 24.0369 48.8654 21.821 50.2575 19.9034C51.6495 17.9858 53.5245 16.4872 55.8825 15.4077C58.2546 14.3139 60.9322 13.767 63.9151 13.767C66.9265 13.767 69.5614 14.3139 71.82 15.4077C74.0785 16.5014 75.8327 17.9787 77.0827 19.8395C78.3469 21.6861 78.9719 23.7599 78.9577 26.0611C78.9719 28.5043 78.212 30.5426 76.6779 32.1761C75.158 33.8097 73.1765 34.8466 70.7333 35.2869V35.6278C73.9435 36.0398 76.3867 37.1548 78.0629 38.973C79.7532 40.777 80.5913 43.0355 80.5771 45.7486C80.5913 48.2344 79.8739 50.4432 78.4251 52.375C76.9904 54.3068 75.0089 55.8267 72.4805 56.9347C69.9521 58.0426 67.0543 58.5966 63.7873 58.5966ZM87.4645 58V14.3636H116.42V21.9702H96.6903V30.4929H103.786C107.237 30.4929 110.213 31.054 112.713 32.1761C115.227 33.2841 117.166 34.8537 118.53 36.8849C119.893 38.9162 120.575 41.3097 120.575 44.0653C120.575 46.8068 119.893 49.2287 118.53 51.331C117.166 53.419 115.227 55.0526 112.713 56.2315C110.213 57.4105 107.237 58 103.786 58H87.4645ZM96.6903 50.5852H103.786C105.433 50.5852 106.825 50.2869 107.962 49.6903C109.098 49.0795 109.957 48.277 110.54 47.2827C111.136 46.2741 111.435 45.1733 111.435 43.9801C111.435 42.2472 110.774 40.7841 109.453 39.5909C108.146 38.3835 106.257 37.7798 103.786 37.7798H96.6903V50.5852ZM126.547 58V14.3636H143.762C147.072 14.3636 149.892 14.9957 152.221 16.2599C154.551 17.5099 156.326 19.25 157.548 21.4801C158.784 23.696 159.402 26.2528 159.402 29.1506C159.402 32.0483 158.777 34.6051 157.527 36.821C156.277 39.0369 154.466 40.7628 152.093 41.9986C149.735 43.2344 146.88 43.8523 143.528 43.8523H132.555V36.4588H142.037C143.812 36.4588 145.275 36.1534 146.426 35.5426C147.591 34.9176 148.457 34.0582 149.025 32.9645C149.608 31.8565 149.899 30.5852 149.899 29.1506C149.899 27.7017 149.608 26.4375 149.025 25.358C148.457 24.2642 147.591 23.419 146.426 22.8224C145.261 22.2116 143.784 21.9062 141.994 21.9062H135.772V58H126.547ZM167.876 58H157.99L173.054 14.3636H184.943L199.986 58H190.099L179.169 24.3352H178.828L167.876 58ZM167.259 40.848H190.611V48.0497H167.259V40.848ZM205.238 58V14.3636H214.464V32.3679H233.192V14.3636H242.397V58H233.192V39.9744H214.464V58H205.238ZM250.004 58V14.3636H259.229V32.3679H277.958V14.3636H287.163V58H277.958V39.9744H259.229V58H250.004ZM300.842 30.4929H311.239C314.705 30.4929 317.688 31.054 320.188 32.1761C322.702 33.2841 324.641 34.8537 326.005 36.8849C327.369 38.9162 328.043 41.3097 328.029 44.0653C328.043 46.8068 327.369 49.2287 326.005 51.331C324.641 53.419 322.702 55.0526 320.188 56.2315C317.688 57.4105 314.705 58 311.239 58H294.94V14.3636H304.144V50.5852H311.239C312.901 50.5852 314.3 50.2869 315.437 49.6903C316.573 49.0795 317.433 48.277 318.015 47.2827C318.612 46.2741 318.903 45.1733 318.888 43.9801C318.903 42.2472 318.249 40.7841 316.928 39.5909C315.621 38.3835 313.725 37.7798 311.239 37.7798H300.842V30.4929ZM340.792 14.3636V58H331.587V14.3636H340.792ZM348.382 58V14.3636H377.786V21.9702H357.608V32.3679H376.273V39.9744H357.608V50.3935H377.871V58H348.382ZM399.007 14.3636H408.212V41.8068H408.574L427.431 14.3636H435.506V58H426.28V30.5355H425.961L406.998 58H399.007V14.3636ZM472.085 14.3636V21.9702H452.354V58H443.129V14.3636H472.085ZM477.992 58V14.3636H495.208C498.517 14.3636 501.337 14.9957 503.667 16.2599C505.996 17.5099 507.772 19.25 508.993 21.4801C510.229 23.696 510.847 26.2528 510.847 29.1506C510.847 32.0483 510.222 34.6051 508.972 36.821C507.722 39.0369 505.911 40.7628 503.539 41.9986C501.181 43.2344 498.326 43.8523 494.973 43.8523H484V36.4588H493.482C495.257 36.4588 496.721 36.1534 497.871 35.5426C499.036 34.9176 499.902 34.0582 500.471 32.9645C501.053 31.8565 501.344 30.5852 501.344 29.1506C501.344 27.7017 501.053 26.4375 500.471 25.358C499.902 24.2642 499.036 23.419 497.871 22.8224C496.706 22.2116 495.229 21.9062 493.439 21.9062H487.218V58H477.992ZM522.912 30.4929H533.31C536.776 30.4929 539.759 31.054 542.259 32.1761C544.773 33.2841 546.712 34.8537 548.075 36.8849C549.439 38.9162 550.114 41.3097 550.099 44.0653C550.114 46.8068 549.439 49.2287 548.075 51.331C546.712 53.419 544.773 55.0526 542.259 56.2315C539.759 57.4105 536.776 58 533.31 58H517.01V14.3636H526.214V50.5852H533.31C534.972 50.5852 536.371 50.2869 537.507 49.6903C538.643 49.0795 539.503 48.277 540.085 47.2827C540.682 46.2741 540.973 45.1733 540.959 43.9801C540.973 42.2472 540.32 40.7841 538.999 39.5909C537.692 38.3835 535.795 37.7798 533.31 37.7798H522.912V30.4929ZM562.862 14.3636V58H553.658V14.3636H562.862ZM584.339 14.3636H593.544V41.8068H593.906L612.763 14.3636H620.838V58H611.612V30.5355H611.293L592.33 58H584.339V14.3636ZM679.442 14.3636V58H670.323V21.8636H652.681V58H643.562V14.3636H679.442ZM688.226 58V14.3636H705.442C708.752 14.3636 711.571 14.9957 713.901 16.2599C716.23 17.5099 718.006 19.25 719.228 21.4801C720.463 23.696 721.081 26.2528 721.081 29.1506C721.081 32.0483 720.456 34.6051 719.206 36.821C717.956 39.0369 716.145 40.7628 713.773 41.9986C711.415 43.2344 708.56 43.8523 705.208 43.8523H694.235V36.4588H703.716C705.492 36.4588 706.955 36.1534 708.105 35.5426C709.27 34.9176 710.137 34.0582 710.705 32.9645C711.287 31.8565 711.578 30.5852 711.578 29.1506C711.578 27.7017 711.287 26.4375 710.705 25.358C710.137 24.2642 709.27 23.419 708.105 22.8224C706.941 22.2116 705.463 21.9062 703.674 21.9062H697.452V58H688.226ZM767.173 36.1818C767.173 40.9403 766.271 44.9886 764.467 48.3267C762.678 51.6648 760.234 54.2145 757.138 55.9759C754.055 57.723 750.589 58.5966 746.74 58.5966C742.862 58.5966 739.382 57.7159 736.3 55.9545C733.217 54.1932 730.781 51.6435 728.991 48.3054C727.202 44.9673 726.307 40.9261 726.307 36.1818C726.307 31.4233 727.202 27.375 728.991 24.0369C730.781 20.6989 733.217 18.1562 736.3 16.4091C739.382 14.6477 742.862 13.767 746.74 13.767C750.589 13.767 754.055 14.6477 757.138 16.4091C760.234 18.1562 762.678 20.6989 764.467 24.0369C766.271 27.375 767.173 31.4233 767.173 36.1818ZM757.82 36.1818C757.82 33.0994 757.358 30.5 756.435 28.3835C755.526 26.267 754.24 24.6619 752.578 23.5682C750.916 22.4744 748.97 21.9276 746.74 21.9276C744.51 21.9276 742.564 22.4744 740.902 23.5682C739.24 24.6619 737.947 26.267 737.024 28.3835C736.115 30.5 735.661 33.0994 735.661 36.1818C735.661 39.2642 736.115 41.8636 737.024 43.9801C737.947 46.0966 739.24 47.7017 740.902 48.7955C742.564 49.8892 744.51 50.4361 746.74 50.4361C748.97 50.4361 750.916 49.8892 752.578 48.7955C754.24 47.7017 755.526 46.0966 756.435 43.9801C757.358 41.8636 757.82 39.2642 757.82 36.1818ZM774.007 58V14.3636H803.411V21.9702H783.233V32.3679H801.898V39.9744H783.233V50.3935H803.496V58H774.007ZM837.145 58L823.125 39.3991H819.972V58H810.746V14.3636H819.972V31.7926H821.825L836.314 14.3636H847.798L830.774 34.6051L848.587 58H837.145ZM851.564 21.9702V14.3636H887.402V21.9702H874.043V58H864.924V21.9702H851.564ZM899.377 30.4929H909.775C913.24 30.4929 916.223 31.054 918.723 32.1761C921.238 33.2841 923.176 34.8537 924.54 36.8849C925.904 38.9162 926.578 41.3097 926.564 44.0653C926.578 46.8068 925.904 49.2287 924.54 51.331C923.176 53.419 921.238 55.0526 918.723 56.2315C916.223 57.4105 913.24 58 909.775 58H893.475V14.3636H902.679V50.5852H909.775C911.436 50.5852 912.836 50.2869 913.972 49.6903C915.108 49.0795 915.968 48.277 916.55 47.2827C917.147 46.2741 917.438 45.1733 917.424 43.9801C917.438 42.2472 916.784 40.7841 915.463 39.5909C914.157 38.3835 912.26 37.7798 909.775 37.7798H899.377V30.4929ZM939.327 14.3636V58H930.123V14.3636H939.327Z" fill="white"/>
<path d="M65.7056 102V80.1818H73.4826C75.18 80.1818 76.5863 80.4908 77.7013 81.1087C78.8164 81.7266 79.6509 82.5717 80.2049 83.6442C80.7589 84.7095 81.0359 85.9098 81.0359 87.245C81.0359 88.5874 80.7553 89.7947 80.1942 90.8672C79.6403 91.9325 78.8022 92.7777 77.68 93.4027C76.565 94.0206 75.1623 94.3295 73.4719 94.3295H68.1239V91.5384H73.1737C74.2461 91.5384 75.1161 91.3537 75.7837 90.9844C76.4513 90.608 76.9414 90.0966 77.2539 89.4503C77.5664 88.804 77.7227 88.0689 77.7227 87.245C77.7227 86.4212 77.5664 85.6896 77.2539 85.0504C76.9414 84.4112 76.4478 83.9105 75.7731 83.5483C75.1055 83.1861 74.2248 83.005 73.131 83.005H68.9975V102H65.7056ZM89.255 102.362C88.218 102.362 87.2805 102.17 86.4425 101.787C85.6044 101.396 84.9403 100.832 84.4503 100.093C83.9673 99.3544 83.7259 98.4489 83.7259 97.3764C83.7259 96.4531 83.9034 95.6932 84.2585 95.0966C84.6136 94.5 85.093 94.0277 85.6967 93.6797C86.3004 93.3317 86.9751 93.0689 87.7209 92.8913C88.4666 92.7138 89.2266 92.5788 90.0007 92.4865C90.9808 92.3729 91.7763 92.2805 92.3871 92.2095C92.9979 92.1314 93.4418 92.0071 93.7188 91.8366C93.9957 91.6662 94.1342 91.3892 94.1342 91.0057V90.9311C94.1342 90.0007 93.8714 89.2798 93.3459 88.7685C92.8274 88.2571 92.0533 88.0014 91.0234 88.0014C89.951 88.0014 89.1058 88.2393 88.4879 88.7152C87.8771 89.1839 87.4545 89.706 87.2202 90.2812L84.2266 89.5994C84.5817 88.6051 85.1001 87.8026 85.782 87.1918C86.4709 86.5739 87.2628 86.1264 88.1577 85.8494C89.0526 85.5653 89.9936 85.4233 90.9808 85.4233C91.6342 85.4233 92.3267 85.5014 93.0582 85.6577C93.7969 85.8068 94.4858 86.0838 95.125 86.4886C95.7713 86.8935 96.3004 87.4723 96.7124 88.2251C97.1243 88.9709 97.3303 89.9403 97.3303 91.1335V102H94.2195V99.7628H94.0916C93.8857 100.175 93.5767 100.58 93.1648 100.977C92.7528 101.375 92.2237 101.705 91.5774 101.968C90.9311 102.231 90.157 102.362 89.255 102.362ZM89.9474 99.8054C90.8281 99.8054 91.581 99.6314 92.206 99.2834C92.8381 98.9354 93.3175 98.4808 93.6442 97.9197C93.978 97.3516 94.1449 96.7443 94.1449 96.098V93.9886C94.0313 94.1023 93.8111 94.2088 93.4844 94.3082C93.1648 94.4006 92.799 94.4822 92.3871 94.5533C91.9751 94.6172 91.5739 94.6776 91.1832 94.7344C90.7926 94.7841 90.4659 94.8267 90.2031 94.8622C89.5852 94.9403 89.0206 95.0717 88.5092 95.2564C88.005 95.4411 87.6001 95.7074 87.2947 96.0554C86.9964 96.3963 86.8473 96.8509 86.8473 97.419C86.8473 98.2074 87.1385 98.804 87.7209 99.2088C88.3033 99.6065 89.0455 99.8054 89.9474 99.8054ZM100.604 97.6747H103.863C103.906 98.3423 104.208 98.8572 104.769 99.2195C105.337 99.5817 106.072 99.7628 106.974 99.7628C107.89 99.7628 108.672 99.5675 109.318 99.1768C109.964 98.7791 110.287 98.1648 110.287 97.3338C110.287 96.8366 110.163 96.4034 109.915 96.0341C109.673 95.6577 109.329 95.3665 108.881 95.1605C108.441 94.9545 107.919 94.8516 107.315 94.8516H104.652V92.348H107.315C108.217 92.348 108.892 92.142 109.339 91.7301C109.787 91.3182 110.01 90.8033 110.01 90.1854C110.01 89.5178 109.769 88.9815 109.286 88.5767C108.81 88.1648 108.146 87.9588 107.294 87.9588C106.427 87.9588 105.706 88.1541 105.131 88.5447C104.556 88.9283 104.254 89.4254 104.226 90.0362H101.008C101.03 89.12 101.307 88.3175 101.839 87.6286C102.379 86.9325 103.104 86.3928 104.013 86.0092C104.929 85.6186 105.969 85.4233 107.134 85.4233C108.349 85.4233 109.4 85.6186 110.287 86.0092C111.175 86.3999 111.861 86.9396 112.344 87.6286C112.834 88.3175 113.079 89.1094 113.079 90.0043C113.079 90.9062 112.809 91.6449 112.269 92.2202C111.736 92.7884 111.04 93.1967 110.181 93.4453V93.6158C110.813 93.6584 111.374 93.8501 111.864 94.1911C112.354 94.532 112.738 94.983 113.015 95.544C113.292 96.1051 113.43 96.7408 113.43 97.451C113.43 98.4524 113.153 99.3189 112.599 100.05C112.052 100.782 111.292 101.347 110.319 101.744C109.354 102.135 108.249 102.33 107.006 102.33C105.799 102.33 104.716 102.142 103.757 101.766C102.805 101.382 102.049 100.842 101.488 100.146C100.934 99.4503 100.639 98.6264 100.604 97.6747ZM127.81 92.4439V95.2031H118.946V92.4439H127.81ZM119.841 85.6364V102H116.719V85.6364H119.841ZM130.036 85.6364V102H126.925V85.6364H130.036ZM136.695 91.2614H141.446C143.449 91.2614 144.99 91.7585 146.07 92.7528C147.149 93.7472 147.689 95.0291 147.689 96.5987C147.689 97.6214 147.447 98.5412 146.964 99.358C146.482 100.175 145.775 100.821 144.844 101.297C143.914 101.766 142.781 102 141.446 102H134.298V85.6364H137.419V99.2514H141.446C142.362 99.2514 143.115 99.0135 143.705 98.5376C144.294 98.0547 144.589 97.4403 144.589 96.6946C144.589 95.9062 144.294 95.2635 143.705 94.7663C143.115 94.2621 142.362 94.0099 141.446 94.0099H136.695V91.2614ZM150.011 102V85.6364H153.197V102H150.011ZM164.524 102.33C162.912 102.33 161.523 101.986 160.358 101.297C159.201 100.601 158.306 99.6243 157.674 98.3672C157.049 97.103 156.736 95.6222 156.736 93.9247C156.736 92.2486 157.049 90.7713 157.674 89.4929C158.306 88.2145 159.187 87.2166 160.316 86.4993C161.452 85.782 162.78 85.4233 164.3 85.4233C165.224 85.4233 166.118 85.576 166.985 85.8814C167.851 86.1868 168.629 86.6662 169.318 87.3196C170.007 87.973 170.55 88.8217 170.948 89.8658C171.346 90.9027 171.545 92.1634 171.545 93.6477V94.777H158.537V92.3906H168.423C168.423 91.5526 168.253 90.8104 167.912 90.1641C167.571 89.5107 167.091 88.9957 166.474 88.6193C165.863 88.2429 165.145 88.0547 164.322 88.0547C163.427 88.0547 162.645 88.2749 161.978 88.7152C161.317 89.1484 160.806 89.7166 160.444 90.4197C160.089 91.1158 159.911 91.8722 159.911 92.6889V94.5533C159.911 95.647 160.103 96.5774 160.486 97.3445C160.877 98.1115 161.42 98.6974 162.116 99.1023C162.812 99.5 163.626 99.6989 164.556 99.6989C165.16 99.6989 165.71 99.6136 166.207 99.4432C166.704 99.2656 167.134 99.0028 167.496 98.6548C167.858 98.3068 168.135 97.8771 168.327 97.3658L171.342 97.9091C171.101 98.7969 170.667 99.5746 170.042 100.242C169.425 100.903 168.647 101.418 167.709 101.787C166.779 102.149 165.717 102.33 164.524 102.33ZM183.018 102V85.6364H196.367V102H193.246V88.3849H186.118V102H183.018ZM200.626 108.136V85.6364H203.737V88.2891H204.003C204.188 87.9482 204.454 87.554 204.802 87.1065C205.15 86.6591 205.633 86.2685 206.251 85.9347C206.869 85.5938 207.685 85.4233 208.701 85.4233C210.022 85.4233 211.201 85.7571 212.238 86.4247C213.275 87.0923 214.088 88.0547 214.678 89.3118C215.274 90.5689 215.572 92.0817 215.572 93.8501C215.572 95.6186 215.278 97.1349 214.688 98.3991C214.099 99.6562 213.289 100.626 212.259 101.308C211.229 101.982 210.054 102.32 208.733 102.32C207.739 102.32 206.925 102.153 206.293 101.819C205.668 101.485 205.178 101.094 204.823 100.647C204.468 100.2 204.195 99.8018 204.003 99.4538H203.811V108.136H200.626ZM203.747 93.8182C203.747 94.9687 203.914 95.9773 204.248 96.8438C204.582 97.7102 205.065 98.3885 205.697 98.8786C206.329 99.3615 207.103 99.603 208.019 99.603C208.971 99.603 209.766 99.3509 210.406 98.8466C211.045 98.3352 211.528 97.6428 211.854 96.7692C212.188 95.8956 212.355 94.9119 212.355 93.8182C212.355 92.7386 212.192 91.7692 211.865 90.9098C211.545 90.0504 211.063 89.3722 210.416 88.875C209.777 88.3778 208.978 88.1293 208.019 88.1293C207.096 88.1293 206.315 88.3672 205.675 88.843C205.043 89.3189 204.564 89.983 204.237 90.8352C203.911 91.6875 203.747 92.6818 203.747 93.8182ZM226.034 102.33C224.5 102.33 223.161 101.979 222.018 101.276C220.874 100.572 219.987 99.5888 219.354 98.3246C218.722 97.0604 218.406 95.5831 218.406 93.8928C218.406 92.1953 218.722 90.7109 219.354 89.4396C219.987 88.1683 220.874 87.1811 222.018 86.478C223.161 85.7749 224.5 85.4233 226.034 85.4233C227.568 85.4233 228.907 85.7749 230.05 86.478C231.194 87.1811 232.082 88.1683 232.714 89.4396C233.346 90.7109 233.662 92.1953 233.662 93.8928C233.662 95.5831 233.346 97.0604 232.714 98.3246C232.082 99.5888 231.194 100.572 230.05 101.276C228.907 101.979 227.568 102.33 226.034 102.33ZM226.045 99.6562C227.039 99.6562 227.863 99.3935 228.516 98.8679C229.17 98.3423 229.653 97.6428 229.965 96.7692C230.285 95.8956 230.445 94.9332 230.445 93.8821C230.445 92.8381 230.285 91.8793 229.965 91.0057C229.653 90.125 229.17 89.4183 228.516 88.8857C227.863 88.353 227.039 88.0866 226.045 88.0866C225.043 88.0866 224.212 88.353 223.552 88.8857C222.898 89.4183 222.412 90.125 222.092 91.0057C221.78 91.8793 221.624 92.8381 221.624 93.8821C221.624 94.9332 221.78 95.8956 222.092 96.7692C222.412 97.6428 222.898 98.3423 223.552 98.8679C224.212 99.3935 225.043 99.6562 226.045 99.6562ZM244.27 102.33C242.658 102.33 241.269 101.986 240.105 101.297C238.947 100.601 238.052 99.6243 237.42 98.3672C236.795 97.103 236.482 95.6222 236.482 93.9247C236.482 92.2486 236.795 90.7713 237.42 89.4929C238.052 88.2145 238.933 87.2166 240.062 86.4993C241.198 85.782 242.526 85.4233 244.046 85.4233C244.97 85.4233 245.865 85.576 246.731 85.8814C247.597 86.1868 248.375 86.6662 249.064 87.3196C249.753 87.973 250.296 88.8217 250.694 89.8658C251.092 90.9027 251.291 92.1634 251.291 93.6477V94.777H238.283V92.3906H248.169C248.169 91.5526 247.999 90.8104 247.658 90.1641C247.317 89.5107 246.838 88.9957 246.22 88.6193C245.609 88.2429 244.892 88.0547 244.068 88.0547C243.173 88.0547 242.392 88.2749 241.724 88.7152C241.063 89.1484 240.552 89.7166 240.19 90.4197C239.835 91.1158 239.657 91.8722 239.657 92.6889V94.5533C239.657 95.647 239.849 96.5774 240.232 97.3445C240.623 98.1115 241.166 98.6974 241.862 99.1023C242.558 99.5 243.372 99.6989 244.302 99.6989C244.906 99.6989 245.456 99.6136 245.953 99.4432C246.45 99.2656 246.88 99.0028 247.242 98.6548C247.605 98.3068 247.882 97.8771 248.073 97.3658L251.088 97.9091C250.847 98.7969 250.414 99.5746 249.789 100.242C249.171 100.903 248.393 101.418 247.455 101.787C246.525 102.149 245.463 102.33 244.27 102.33ZM254.825 102V85.6364H258.01V92.4972H259.544L264.946 85.6364H268.887L262.549 93.5945L268.962 102H265.01L260.077 95.4588H258.01V102H254.825ZM270.52 88.3849V85.6364H284.327V88.3849H278.99V102H275.879V88.3849H270.52ZM290.093 91.2614H294.844C296.847 91.2614 298.388 91.7585 299.468 92.7528C300.548 93.7472 301.087 95.0291 301.087 96.5987C301.087 97.6214 300.846 98.5412 300.363 99.358C299.88 100.175 299.173 100.821 298.243 101.297C297.313 101.766 296.18 102 294.844 102H287.696V85.6364H290.817V99.2514H294.844C295.761 99.2514 296.513 99.0135 297.103 98.5376C297.692 98.0547 297.987 97.4403 297.987 96.6946C297.987 95.9062 297.692 95.2635 297.103 94.7663C296.513 94.2621 295.761 94.0099 294.844 94.0099H290.093V91.2614ZM303.41 102V85.6364H306.595V102H303.41ZM321.931 97.5362L329.143 85.6364H332.574V102H329.452V90.0895L322.272 102H318.809V85.6364H321.931V97.5362ZM347.917 97.5362L355.129 85.6364H358.56V102H355.438V90.0895L348.258 102H344.796V85.6364H347.917V97.5362ZM373.304 85.6364V88.3849H365.985V102H362.843V85.6364H373.304ZM376.671 108.136V85.6364H379.781V88.2891H380.048C380.232 87.9482 380.499 87.554 380.847 87.1065C381.195 86.6591 381.678 86.2685 382.296 85.9347C382.914 85.5938 383.73 85.4233 384.746 85.4233C386.067 85.4233 387.246 85.7571 388.283 86.4247C389.32 87.0923 390.133 88.0547 390.722 89.3118C391.319 90.5689 391.617 92.0817 391.617 93.8501C391.617 95.6186 391.323 97.1349 390.733 98.3991C390.144 99.6562 389.334 100.626 388.304 101.308C387.274 101.982 386.099 102.32 384.778 102.32C383.784 102.32 382.97 102.153 382.338 101.819C381.713 101.485 381.223 101.094 380.868 100.647C380.513 100.2 380.24 99.8018 380.048 99.4538H379.856V108.136H376.671ZM379.792 93.8182C379.792 94.9687 379.959 95.9773 380.293 96.8438C380.627 97.7102 381.11 98.3885 381.742 98.8786C382.374 99.3615 383.148 99.603 384.064 99.603C385.016 99.603 385.811 99.3509 386.45 98.8466C387.09 98.3352 387.573 97.6428 387.899 96.7692C388.233 95.8956 388.4 94.9119 388.4 93.8182C388.4 92.7386 388.237 91.7692 387.91 90.9098C387.59 90.0504 387.107 89.3722 386.461 88.875C385.822 88.3778 385.023 88.1293 384.064 88.1293C383.141 88.1293 382.36 88.3672 381.72 88.843C381.088 89.3189 380.609 89.983 380.282 90.8352C379.955 91.6875 379.792 92.6818 379.792 93.8182ZM397.583 91.2614H402.335C404.338 91.2614 405.879 91.7585 406.958 92.7528C408.038 93.7472 408.578 95.0291 408.578 96.5987C408.578 97.6214 408.336 98.5412 407.853 99.358C407.37 100.175 406.664 100.821 405.733 101.297C404.803 101.766 403.67 102 402.335 102H395.186V85.6364H398.308V99.2514H402.335C403.251 99.2514 404.004 99.0135 404.593 98.5376C405.183 98.0547 405.477 97.4403 405.477 96.6946C405.477 95.9062 405.183 95.2635 404.593 94.7663C404.004 94.2621 403.251 94.0099 402.335 94.0099H397.583V91.2614ZM410.9 102V85.6364H414.085V102H410.9ZM433.192 102.33C431.658 102.33 430.319 101.979 429.176 101.276C428.032 100.572 427.145 99.5888 426.513 98.3246C425.881 97.0604 425.564 95.5831 425.564 93.8928C425.564 92.1953 425.881 90.7109 426.513 89.4396C427.145 88.1683 428.032 87.1811 429.176 86.478C430.319 85.7749 431.658 85.4233 433.192 85.4233C434.726 85.4233 436.065 85.7749 437.209 86.478C438.352 87.1811 439.24 88.1683 439.872 89.4396C440.504 90.7109 440.82 92.1953 440.82 93.8928C440.82 95.5831 440.504 97.0604 439.872 98.3246C439.24 99.5888 438.352 100.572 437.209 101.276C436.065 101.979 434.726 102.33 433.192 102.33ZM433.203 99.6562C434.197 99.6562 435.021 99.3935 435.675 98.8679C436.328 98.3423 436.811 97.6428 437.123 96.7692C437.443 95.8956 437.603 94.9332 437.603 93.8821C437.603 92.8381 437.443 91.8793 437.123 91.0057C436.811 90.125 436.328 89.4183 435.675 88.8857C435.021 88.353 434.197 88.0866 433.203 88.0866C432.202 88.0866 431.371 88.353 430.71 88.8857C430.057 89.4183 429.57 90.125 429.251 91.0057C428.938 91.8793 428.782 92.8381 428.782 93.8821C428.782 94.9332 428.938 95.8956 429.251 96.7692C429.57 97.6428 430.057 98.3423 430.71 98.8679C431.371 99.3935 432.202 99.6562 433.203 99.6562ZM442.405 88.3849V85.6364H456.212V88.3849H450.874V102H447.763V88.3849H442.405ZM470.642 97.5362L477.854 85.6364H481.284V102H478.163V90.0895L470.983 102H467.52V85.6364H470.642V97.5362ZM496.029 85.6364V88.3849H488.71V102H485.567V85.6364H496.029ZM499.395 108.136V85.6364H502.506V88.2891H502.772C502.957 87.9482 503.223 87.554 503.571 87.1065C503.919 86.6591 504.402 86.2685 505.02 85.9347C505.638 85.5938 506.455 85.4233 507.471 85.4233C508.792 85.4233 509.971 85.7571 511.007 86.4247C512.044 87.0923 512.858 88.0547 513.447 89.3118C514.044 90.5689 514.342 92.0817 514.342 93.8501C514.342 95.6186 514.047 97.1349 513.458 98.3991C512.868 99.6562 512.059 100.626 511.029 101.308C509.999 101.982 508.824 102.32 507.502 102.32C506.508 102.32 505.695 102.153 505.063 101.819C504.438 101.485 503.948 101.094 503.593 100.647C503.238 100.2 502.964 99.8018 502.772 99.4538H502.581V108.136H499.395ZM502.517 93.8182C502.517 94.9687 502.684 95.9773 503.017 96.8438C503.351 97.7102 503.834 98.3885 504.466 98.8786C505.098 99.3615 505.873 99.603 506.789 99.603C507.74 99.603 508.536 99.3509 509.175 98.8466C509.814 98.3352 510.297 97.6428 510.624 96.7692C510.958 95.8956 511.125 94.9119 511.125 93.8182C511.125 92.7386 510.961 91.7692 510.635 90.9098C510.315 90.0504 509.832 89.3722 509.186 88.875C508.547 88.3778 507.748 88.1293 506.789 88.1293C505.865 88.1293 505.084 88.3672 504.445 88.843C503.813 89.3189 503.333 89.983 503.007 90.8352C502.68 91.6875 502.517 92.6818 502.517 93.8182ZM524.804 102.33C523.27 102.33 521.931 101.979 520.787 101.276C519.644 100.572 518.756 99.5888 518.124 98.3246C517.492 97.0604 517.176 95.5831 517.176 93.8928C517.176 92.1953 517.492 90.7109 518.124 89.4396C518.756 88.1683 519.644 87.1811 520.787 86.478C521.931 85.7749 523.27 85.4233 524.804 85.4233C526.338 85.4233 527.676 85.7749 528.82 86.478C529.963 87.1811 530.851 88.1683 531.483 89.4396C532.115 90.7109 532.431 92.1953 532.431 93.8928C532.431 95.5831 532.115 97.0604 531.483 98.3246C530.851 99.5888 529.963 100.572 528.82 101.276C527.676 101.979 526.338 102.33 524.804 102.33ZM524.814 99.6562C525.809 99.6562 526.632 99.3935 527.286 98.8679C527.939 98.3423 528.422 97.6428 528.735 96.7692C529.054 95.8956 529.214 94.9332 529.214 93.8821C529.214 92.8381 529.054 91.8793 528.735 91.0057C528.422 90.125 527.939 89.4183 527.286 88.8857C526.632 88.353 525.809 88.0866 524.814 88.0866C523.813 88.0866 522.982 88.353 522.321 88.8857C521.668 89.4183 521.181 90.125 520.862 91.0057C520.549 91.8793 520.393 92.8381 520.393 93.8821C520.393 94.9332 520.549 95.8956 520.862 96.7692C521.181 97.6428 521.668 98.3423 522.321 98.8679C522.982 99.3935 523.813 99.6562 524.814 99.6562ZM535.987 102V85.6364H542.773C544.62 85.6364 546.083 86.0305 547.162 86.8189C548.242 87.6001 548.782 88.6619 548.782 90.0043C548.782 90.9631 548.476 91.723 547.866 92.2841C547.255 92.8452 546.445 93.2216 545.437 93.4134C546.168 93.4986 546.839 93.7187 547.45 94.0739C548.061 94.4219 548.551 94.8906 548.92 95.4801C549.297 96.0696 549.485 96.7727 549.485 97.5895C549.485 98.456 549.261 99.223 548.814 99.8906C548.366 100.551 547.716 101.07 546.864 101.446C546.019 101.815 545 102 543.807 102H535.987ZM538.981 99.3366H543.807C544.595 99.3366 545.213 99.1484 545.66 98.772C546.108 98.3956 546.331 97.8842 546.331 97.2379C546.331 96.478 546.108 95.8814 545.66 95.4482C545.213 95.0078 544.595 94.7876 543.807 94.7876H538.981V99.3366ZM538.981 92.4545H542.805C543.402 92.4545 543.913 92.3693 544.339 92.1989C544.773 92.0284 545.103 91.7869 545.33 91.4744C545.564 91.1548 545.682 90.7784 545.682 90.3452C545.682 89.7131 545.422 89.2195 544.904 88.8643C544.385 88.5092 543.675 88.3317 542.773 88.3317H538.981V92.4545ZM559.872 102.33C558.338 102.33 556.999 101.979 555.856 101.276C554.712 100.572 553.824 99.5888 553.192 98.3246C552.56 97.0604 552.244 95.5831 552.244 93.8928C552.244 92.1953 552.56 90.7109 553.192 89.4396C553.824 88.1683 554.712 87.1811 555.856 86.478C556.999 85.7749 558.338 85.4233 559.872 85.4233C561.406 85.4233 562.745 85.7749 563.888 86.478C565.032 87.1811 565.92 88.1683 566.552 89.4396C567.184 90.7109 567.5 92.1953 567.5 93.8928C567.5 95.5831 567.184 97.0604 566.552 98.3246C565.92 99.5888 565.032 100.572 563.888 101.276C562.745 101.979 561.406 102.33 559.872 102.33ZM559.883 99.6562C560.877 99.6562 561.701 99.3935 562.354 98.8679C563.008 98.3423 563.491 97.6428 563.803 96.7692C564.123 95.8956 564.282 94.9332 564.282 93.8821C564.282 92.8381 564.123 91.8793 563.803 91.0057C563.491 90.125 563.008 89.4183 562.354 88.8857C561.701 88.353 560.877 88.0866 559.883 88.0866C558.881 88.0866 558.05 88.353 557.39 88.8857C556.736 89.4183 556.25 90.125 555.93 91.0057C555.618 91.8793 555.461 92.8381 555.461 93.8821C555.461 94.9332 555.618 95.8956 555.93 96.7692C556.25 97.6428 556.736 98.3423 557.39 98.8679C558.05 99.3935 558.881 99.6562 559.883 99.6562ZM581.517 85.6364V88.3849H574.198V102H571.055V85.6364H581.517ZM591.015 102.33C589.48 102.33 588.142 101.979 586.998 101.276C585.855 100.572 584.967 99.5888 584.335 98.3246C583.703 97.0604 583.387 95.5831 583.387 93.8928C583.387 92.1953 583.703 90.7109 584.335 89.4396C584.967 88.1683 585.855 87.1811 586.998 86.478C588.142 85.7749 589.48 85.4233 591.015 85.4233C592.549 85.4233 593.887 85.7749 595.031 86.478C596.174 87.1811 597.062 88.1683 597.694 89.4396C598.326 90.7109 598.642 92.1953 598.642 93.8928C598.642 95.5831 598.326 97.0604 597.694 98.3246C597.062 99.5888 596.174 100.572 595.031 101.276C593.887 101.979 592.549 102.33 591.015 102.33ZM591.025 99.6562C592.02 99.6562 592.843 99.3935 593.497 98.8679C594.15 98.3423 594.633 97.6428 594.946 96.7692C595.265 95.8956 595.425 94.9332 595.425 93.8821C595.425 92.8381 595.265 91.8793 594.946 91.0057C594.633 90.125 594.15 89.4183 593.497 88.8857C592.843 88.353 592.02 88.0866 591.025 88.0866C590.024 88.0866 589.193 88.353 588.532 88.8857C587.879 89.4183 587.392 90.125 587.073 91.0057C586.76 91.8793 586.604 92.8381 586.604 93.8821C586.604 94.9332 586.76 95.8956 587.073 96.7692C587.392 97.6428 587.879 98.3423 588.532 98.8679C589.193 99.3935 590.024 99.6562 591.025 99.6562ZM610.137 102V85.6364H623.486V102H620.365V88.3849H613.238V102H610.137ZM627.745 108.136V85.6364H630.856V88.2891H631.122C631.307 87.9482 631.573 87.554 631.921 87.1065C632.269 86.6591 632.752 86.2685 633.37 85.9347C633.988 85.5938 634.805 85.4233 635.82 85.4233C637.141 85.4233 638.32 85.7571 639.357 86.4247C640.394 87.0923 641.207 88.0547 641.797 89.3118C642.393 90.5689 642.692 92.0817 642.692 93.8501C642.692 95.6186 642.397 97.1349 641.807 98.3991C641.218 99.6562 640.408 100.626 639.378 101.308C638.349 101.982 637.173 102.32 635.852 102.32C634.858 102.32 634.045 102.153 633.412 101.819C632.787 101.485 632.297 101.094 631.942 100.647C631.587 100.2 631.314 99.8018 631.122 99.4538H630.93V108.136H627.745ZM630.866 93.8182C630.866 94.9687 631.033 95.9773 631.367 96.8438C631.701 97.7102 632.184 98.3885 632.816 98.8786C633.448 99.3615 634.222 99.603 635.138 99.603C636.09 99.603 636.885 99.3509 637.525 98.8466C638.164 98.3352 638.647 97.6428 638.974 96.7692C639.307 95.8956 639.474 94.9119 639.474 93.8182C639.474 92.7386 639.311 91.7692 638.984 90.9098C638.665 90.0504 638.182 89.3722 637.535 88.875C636.896 88.3778 636.097 88.1293 635.138 88.1293C634.215 88.1293 633.434 88.3672 632.795 88.843C632.162 89.3189 631.683 89.983 631.356 90.8352C631.03 91.6875 630.866 92.6818 630.866 93.8182ZM653.153 102.33C651.619 102.33 650.28 101.979 649.137 101.276C647.993 100.572 647.106 99.5888 646.474 98.3246C645.841 97.0604 645.525 95.5831 645.525 93.8928C645.525 92.1953 645.841 90.7109 646.474 89.4396C647.106 88.1683 647.993 87.1811 649.137 86.478C650.28 85.7749 651.619 85.4233 653.153 85.4233C654.687 85.4233 656.026 85.7749 657.17 86.478C658.313 87.1811 659.201 88.1683 659.833 89.4396C660.465 90.7109 660.781 92.1953 660.781 93.8928C660.781 95.5831 660.465 97.0604 659.833 98.3246C659.201 99.5888 658.313 100.572 657.17 101.276C656.026 101.979 654.687 102.33 653.153 102.33ZM653.164 99.6562C654.158 99.6562 654.982 99.3935 655.635 98.8679C656.289 98.3423 656.772 97.6428 657.084 96.7692C657.404 95.8956 657.564 94.9332 657.564 93.8821C657.564 92.8381 657.404 91.8793 657.084 91.0057C656.772 90.125 656.289 89.4183 655.635 88.8857C654.982 88.353 654.158 88.0866 653.164 88.0866C652.162 88.0866 651.331 88.353 650.671 88.8857C650.018 89.4183 649.531 90.125 649.211 91.0057C648.899 91.8793 648.743 92.8381 648.743 93.8821C648.743 94.9332 648.899 95.8956 649.211 96.7692C649.531 97.6428 650.018 98.3423 650.671 98.8679C651.331 99.3935 652.162 99.6562 653.164 99.6562ZM671.389 102.33C669.777 102.33 668.388 101.986 667.224 101.297C666.066 100.601 665.171 99.6243 664.539 98.3672C663.914 97.103 663.602 95.6222 663.602 93.9247C663.602 92.2486 663.914 90.7713 664.539 89.4929C665.171 88.2145 666.052 87.2166 667.181 86.4993C668.317 85.782 669.646 85.4233 671.165 85.4233C672.089 85.4233 672.984 85.576 673.85 85.8814C674.717 86.1868 675.494 86.6662 676.183 87.3196C676.872 87.973 677.415 88.8217 677.813 89.8658C678.211 90.9027 678.41 92.1634 678.41 93.6477V94.777H665.402V92.3906H675.288C675.288 91.5526 675.118 90.8104 674.777 90.1641C674.436 89.5107 673.957 88.9957 673.339 88.6193C672.728 88.2429 672.011 88.0547 671.187 88.0547C670.292 88.0547 669.511 88.2749 668.843 88.7152C668.183 89.1484 667.671 89.7166 667.309 90.4197C666.954 91.1158 666.776 91.8722 666.776 92.6889V94.5533C666.776 95.647 666.968 96.5774 667.352 97.3445C667.742 98.1115 668.286 98.6974 668.982 99.1023C669.678 99.5 670.491 99.6989 671.421 99.6989C672.025 99.6989 672.575 99.6136 673.072 99.4432C673.57 99.2656 673.999 99.0028 674.362 98.6548C674.724 98.3068 675.001 97.8771 675.192 97.3658L678.207 97.9091C677.966 98.7969 677.533 99.5746 676.908 100.242C676.29 100.903 675.512 101.418 674.575 101.787C673.644 102.149 672.582 102.33 671.389 102.33ZM681.944 102V85.6364H685.129V92.4972H686.664L692.065 85.6364H696.007L689.668 93.5945L696.081 102H692.129L687.196 95.4588H685.129V102H681.944ZM697.639 88.3849V85.6364H711.446V88.3849H706.109V102H702.998V88.3849H697.639ZM718.816 102.362C717.779 102.362 716.841 102.17 716.003 101.787C715.165 101.396 714.501 100.832 714.011 100.093C713.528 99.3544 713.286 98.4489 713.286 97.3764C713.286 96.4531 713.464 95.6932 713.819 95.0966C714.174 94.5 714.654 94.0277 715.257 93.6797C715.861 93.3317 716.536 93.0689 717.281 92.8913C718.027 92.7138 718.787 92.5788 719.561 92.4865C720.541 92.3729 721.337 92.2805 721.948 92.2095C722.558 92.1314 723.002 92.0071 723.279 91.8366C723.556 91.6662 723.695 91.3892 723.695 91.0057V90.9311C723.695 90.0007 723.432 89.2798 722.906 88.7685C722.388 88.2571 721.614 88.0014 720.584 88.0014C719.512 88.0014 718.666 88.2393 718.048 88.7152C717.438 89.1839 717.015 89.706 716.781 90.2812L713.787 89.5994C714.142 88.6051 714.661 87.8026 715.343 87.1918C716.031 86.5739 716.823 86.1264 717.718 85.8494C718.613 85.5653 719.554 85.4233 720.541 85.4233C721.195 85.4233 721.887 85.5014 722.619 85.6577C723.357 85.8068 724.046 86.0838 724.686 86.4886C725.332 86.8935 725.861 87.4723 726.273 88.2251C726.685 88.9709 726.891 89.9403 726.891 91.1335V102H723.78V99.7628H723.652C723.446 100.175 723.137 100.58 722.725 100.977C722.313 101.375 721.784 101.705 721.138 101.968C720.492 102.231 719.718 102.362 718.816 102.362ZM719.508 99.8054C720.389 99.8054 721.142 99.6314 721.767 99.2834C722.399 98.9354 722.878 98.4808 723.205 97.9197C723.539 97.3516 723.705 96.7443 723.705 96.098V93.9886C723.592 94.1023 723.372 94.2088 723.045 94.3082C722.725 94.4006 722.36 94.4822 721.948 94.5533C721.536 94.6172 721.134 94.6776 720.744 94.7344C720.353 94.7841 720.026 94.8267 719.764 94.8622C719.146 94.9403 718.581 95.0717 718.07 95.2564C717.566 95.4411 717.161 95.7074 716.855 96.0554C716.557 96.3963 716.408 96.8509 716.408 97.419C716.408 98.2074 716.699 98.804 717.281 99.2088C717.864 99.6065 718.606 99.8054 719.508 99.8054ZM747.351 94.9261H750.589L752.869 97.8984L753.945 99.2195L757.578 103.96H754.211L751.782 100.796L750.952 99.6456L747.351 94.9261ZM758.281 91.0909C758.281 93.4205 757.855 95.4233 757.003 97.0994C756.15 98.7685 754.982 100.054 753.498 100.956C752.02 101.851 750.341 102.298 748.459 102.298C746.569 102.298 744.883 101.851 743.398 100.956C741.921 100.054 740.756 98.7649 739.904 97.0888C739.052 95.4126 738.626 93.4134 738.626 91.0909C738.626 88.7614 739.052 86.7621 739.904 85.093C740.756 83.4169 741.921 82.1314 743.398 81.2365C744.883 80.3345 746.569 79.8835 748.459 79.8835C750.341 79.8835 752.02 80.3345 753.498 81.2365C754.982 82.1314 756.15 83.4169 757.003 85.093C757.855 86.7621 758.281 88.7614 758.281 91.0909ZM755.021 91.0909C755.021 89.3153 754.733 87.8203 754.158 86.6058C753.59 85.3842 752.809 84.4609 751.814 83.8359C750.827 83.2038 749.709 82.8878 748.459 82.8878C747.202 82.8878 746.079 83.2038 745.092 83.8359C744.105 84.4609 743.324 85.3842 742.748 86.6058C742.18 87.8203 741.896 89.3153 741.896 91.0909C741.896 92.8665 742.18 94.3651 742.748 95.5866C743.324 96.8011 744.105 97.7244 745.092 98.3565C746.079 98.9815 747.202 99.294 748.459 99.294C749.709 99.294 750.827 98.9815 751.814 98.3565C752.809 97.7244 753.59 96.8011 754.158 95.5866C754.733 94.3651 755.021 92.8665 755.021 91.0909ZM772.495 95.2138V85.6364H775.691V102H772.559V99.1662H772.389C772.012 100.04 771.409 100.768 770.578 101.35C769.754 101.925 768.728 102.213 767.499 102.213C766.448 102.213 765.517 101.982 764.708 101.521C763.905 101.052 763.273 100.359 762.811 99.4432C762.357 98.527 762.13 97.3942 762.13 96.0447V85.6364H765.315V95.6612C765.315 96.7763 765.624 97.6641 766.242 98.3246C766.86 98.9851 767.662 99.3153 768.65 99.3153C769.246 99.3153 769.839 99.1662 770.429 98.8679C771.025 98.5696 771.519 98.1186 771.909 97.5149C772.307 96.9112 772.502 96.1442 772.495 95.2138ZM787.024 102.33C785.412 102.33 784.023 101.986 782.858 101.297C781.701 100.601 780.806 99.6243 780.174 98.3672C779.549 97.103 779.236 95.6222 779.236 93.9247C779.236 92.2486 779.549 90.7713 780.174 89.4929C780.806 88.2145 781.687 87.2166 782.816 86.4993C783.952 85.782 785.28 85.4233 786.8 85.4233C787.724 85.4233 788.618 85.576 789.485 85.8814C790.351 86.1868 791.129 86.6662 791.818 87.3196C792.507 87.973 793.05 88.8217 793.448 89.8658C793.846 90.9027 794.045 92.1634 794.045 93.6477V94.777H781.037V92.3906H790.923C790.923 91.5526 790.753 90.8104 790.412 90.1641C790.071 89.5107 789.591 88.9957 788.974 88.6193C788.363 88.2429 787.645 88.0547 786.822 88.0547C785.927 88.0547 785.145 88.2749 784.478 88.7152C783.817 89.1484 783.306 89.7166 782.944 90.4197C782.589 91.1158 782.411 91.8722 782.411 92.6889V94.5533C782.411 95.647 782.603 96.5774 782.986 97.3445C783.377 98.1115 783.92 98.6974 784.616 99.1023C785.312 99.5 786.126 99.6989 787.056 99.6989C787.66 99.6989 788.21 99.6136 788.707 99.4432C789.204 99.2656 789.634 99.0028 789.996 98.6548C790.358 98.3068 790.635 97.8771 790.827 97.3658L793.842 97.9091C793.601 98.7969 793.167 99.5746 792.542 100.242C791.925 100.903 791.147 101.418 790.209 101.787C789.279 102.149 788.217 102.33 787.024 102.33ZM809.841 89.6314L806.954 90.1428C806.833 89.7734 806.641 89.4219 806.379 89.0881C806.123 88.7543 805.775 88.4808 805.335 88.2678C804.894 88.0547 804.344 87.9482 803.683 87.9482C802.781 87.9482 802.028 88.1506 801.425 88.5554C800.821 88.9531 800.519 89.468 800.519 90.1001C800.519 90.647 800.722 91.0874 801.126 91.4212C801.531 91.755 802.185 92.0284 803.087 92.2415L805.686 92.8381C807.192 93.1861 808.314 93.7223 809.053 94.4467C809.791 95.1712 810.161 96.1122 810.161 97.2699C810.161 98.25 809.876 99.1236 809.308 99.8906C808.747 100.651 807.962 101.247 806.954 101.68C805.952 102.114 804.791 102.33 803.47 102.33C801.638 102.33 800.143 101.94 798.985 101.158C797.827 100.37 797.117 99.2514 796.854 97.8026L799.933 97.3338C800.125 98.1364 800.519 98.7436 801.116 99.1555C801.712 99.5604 802.49 99.7628 803.449 99.7628C804.493 99.7628 805.327 99.5462 805.952 99.1129C806.577 98.6726 806.89 98.1364 806.89 97.5043C806.89 96.9929 806.698 96.5632 806.315 96.2152C805.938 95.8672 805.359 95.6044 804.578 95.4268L801.808 94.8196C800.281 94.4716 799.152 93.9176 798.42 93.1577C797.696 92.3977 797.334 91.4354 797.334 90.2706C797.334 89.3047 797.604 88.4595 798.143 87.7351C798.683 87.0107 799.429 86.446 800.381 86.0412C801.332 85.6293 802.423 85.4233 803.651 85.4233C805.42 85.4233 806.812 85.8068 807.827 86.5739C808.843 87.3338 809.514 88.353 809.841 89.6314ZM821.301 85.6364V88.1932H812.363V85.6364H821.301ZM814.76 81.7159H817.945V97.1953C817.945 97.8132 818.038 98.2784 818.222 98.5909C818.407 98.8963 818.645 99.1058 818.936 99.2195C819.235 99.326 819.558 99.3793 819.906 99.3793C820.161 99.3793 820.385 99.3615 820.577 99.326C820.769 99.2905 820.918 99.2621 821.024 99.2408L821.6 101.872C821.415 101.943 821.152 102.014 820.811 102.085C820.47 102.163 820.044 102.206 819.533 102.213C818.695 102.227 817.914 102.078 817.189 101.766C816.465 101.453 815.879 100.97 815.431 100.317C814.984 99.6634 814.76 98.843 814.76 97.8558V81.7159ZM839.846 87.0746C839.64 86.4283 839.363 85.8494 839.015 85.3381C838.674 84.8196 838.266 84.3793 837.79 84.017C837.314 83.6477 836.771 83.3672 836.16 83.1754C835.556 82.9837 834.892 82.8878 834.168 82.8878C832.939 82.8878 831.831 83.2038 830.844 83.8359C829.857 84.468 829.076 85.3949 828.5 86.6165C827.932 87.831 827.648 89.3189 827.648 91.0803C827.648 92.8487 827.936 94.3437 828.511 95.5653C829.086 96.7869 829.875 97.7138 830.876 98.3459C831.877 98.978 833.017 99.294 834.296 99.294C835.482 99.294 836.515 99.0526 837.396 98.5696C838.284 98.0866 838.969 97.4048 839.452 96.5241C839.942 95.6364 840.187 94.5923 840.187 93.392L841.039 93.5518H834.797V90.8352H843.373V93.3175C843.373 95.1499 842.982 96.7408 842.201 98.0902C841.426 99.4325 840.354 100.469 838.983 101.201C837.62 101.933 836.057 102.298 834.296 102.298C832.321 102.298 830.588 101.844 829.097 100.935C827.613 100.026 826.455 98.7365 825.624 97.0675C824.793 95.3913 824.377 93.4027 824.377 91.1016C824.377 89.3615 824.619 87.799 825.102 86.4141C825.585 85.0291 826.263 83.8537 827.137 82.8878C828.017 81.9148 829.051 81.1726 830.237 80.6612C831.43 80.1428 832.733 79.8835 834.147 79.8835C835.326 79.8835 836.423 80.0575 837.439 80.4055C838.461 80.7536 839.37 81.2472 840.166 81.8864C840.968 82.5256 841.632 83.2855 842.158 84.1662C842.684 85.0398 843.039 86.0092 843.223 87.0746H839.846ZM854.348 102.33C852.736 102.33 851.347 101.986 850.183 101.297C849.025 100.601 848.13 99.6243 847.498 98.3672C846.873 97.103 846.561 95.6222 846.561 93.9247C846.561 92.2486 846.873 90.7713 847.498 89.4929C848.13 88.2145 849.011 87.2166 850.14 86.4993C851.276 85.782 852.605 85.4233 854.124 85.4233C855.048 85.4233 855.943 85.576 856.809 85.8814C857.676 86.1868 858.453 86.6662 859.142 87.3196C859.831 87.973 860.374 88.8217 860.772 89.8658C861.17 90.9027 861.369 92.1634 861.369 93.6477V94.777H848.361V92.3906H858.247C858.247 91.5526 858.077 90.8104 857.736 90.1641C857.395 89.5107 856.916 88.9957 856.298 88.6193C855.687 88.2429 854.97 88.0547 854.146 88.0547C853.251 88.0547 852.47 88.2749 851.802 88.7152C851.142 89.1484 850.63 89.7166 850.268 90.4197C849.913 91.1158 849.735 91.8722 849.735 92.6889V94.5533C849.735 95.647 849.927 96.5774 850.311 97.3445C850.701 98.1115 851.244 98.6974 851.941 99.1023C852.637 99.5 853.45 99.6989 854.38 99.6989C854.984 99.6989 855.534 99.6136 856.031 99.4432C856.529 99.2656 856.958 99.0028 857.32 98.6548C857.683 98.3068 857.96 97.8771 858.151 97.3658L861.166 97.9091C860.925 98.7969 860.492 99.5746 859.867 100.242C859.249 100.903 858.471 101.418 857.534 101.787C856.603 102.149 855.541 102.33 854.348 102.33ZM868.088 92.2841V102H864.903V85.6364H867.961V88.2997H868.163C868.539 87.4332 869.129 86.7372 869.931 86.2116C870.741 85.6861 871.76 85.4233 872.989 85.4233C874.104 85.4233 875.081 85.6577 875.919 86.1264C876.757 86.5881 877.407 87.277 877.868 88.1932C878.33 89.1094 878.561 90.2422 878.561 91.5916V102H875.375V91.9751C875.375 90.7891 875.066 89.8622 874.449 89.1946C873.831 88.5199 872.982 88.1825 871.902 88.1825C871.164 88.1825 870.507 88.3423 869.931 88.6619C869.363 88.9815 868.912 89.4503 868.578 90.0682C868.252 90.679 868.088 91.4176 868.088 92.2841Z" fill="#BABABA"/>
<defs>
<linearGradient id="paint0_linear_1748_279" x1="6.26464e-07" y1="36.9999" x2="944" y2="36.9999" gradientUnits="userSpaceOnUse">
<stop stop-color="#8D72E1"/>
<stop offset="1" stop-color="#8D9EFF"/>
</linearGradient>
</defs>
</svg>
