<svg width="324" height="73" viewBox="0 0 324 73" fill="none" xmlns="http://www.w3.org/2000/svg">
<path d="M27.4645 58L25.7402 59.0133L26.32 60H27.4645V58ZM16.5341 39.3991L18.2584 38.3859L17.6786 37.3991H16.5341V39.3991ZM13.3807 39.3991V37.3991H11.6855L11.4077 39.0714L13.3807 39.3991ZM10.2912 58V60H11.9864L12.2642 58.3277L10.2912 58ZM1.06534 58L-0.907655 57.6725L-1.29406 60H1.06534V58ZM8.30966 14.3636V12.3636H6.61432L6.33666 14.0361L8.30966 14.3636ZM17.5355 14.3636L19.5084 14.6917L19.8955 12.3636H17.5355V14.3636ZM14.6378 31.7926L12.6649 31.4646L12.2778 33.7926H14.6378V31.7926ZM16.4915 31.7926V33.7926H17.3213L17.9074 33.2051L16.4915 31.7926ZM33.8778 14.3636V12.3636H33.048L32.4619 12.9512L33.8778 14.3636ZM45.3622 14.3636L46.772 15.7823L50.2122 12.3636H45.3622V14.3636ZM24.9929 34.6051L23.5831 33.1865L22.4763 34.2863L23.2739 35.6274L24.9929 34.6051ZM38.9062 58V60H42.4226L40.6252 56.9777L38.9062 58ZM29.1888 56.9867L18.2584 38.3859L14.8098 40.4124L25.7402 59.0133L29.1888 56.9867ZM16.5341 37.3991H13.3807V41.3991H16.5341V37.3991ZM11.4077 39.0714L8.31822 57.6723L12.2642 58.3277L15.3537 39.7268L11.4077 39.0714ZM10.2912 56H1.06534V60H10.2912V56ZM3.03834 58.3275L10.2827 14.6912L6.33666 14.0361L-0.907655 57.6725L3.03834 58.3275ZM8.30966 16.3636H17.5355V12.3636H8.30966V16.3636ZM15.5626 14.0356L12.6649 31.4646L16.6107 32.1206L19.5084 14.6917L15.5626 14.0356ZM14.6378 33.7926H16.4915V29.7926H14.6378V33.7926ZM17.9074 33.2051L35.2938 15.7761L32.4619 12.9512L15.0755 30.3801L17.9074 33.2051ZM33.8778 16.3636H45.3622V12.3636H33.8778V16.3636ZM43.9525 12.945L23.5831 33.1865L26.4027 36.0238L46.772 15.7823L43.9525 12.945ZM23.2739 35.6274L37.1873 59.0223L40.6252 56.9777L26.7119 33.5828L23.2739 35.6274ZM38.9062 56H27.4645V60H38.9062V56ZM84.7212 36.7784L86.6927 37.115L86.6948 37.1025L84.7212 36.7784ZM80.0977 48.6463L78.4615 47.496L78.4582 47.5008L80.0977 48.6463ZM71.7667 56.0611L70.8508 54.2831L70.8476 54.2848L71.7667 56.0611ZM50.9499 55.8906L49.8816 57.5814L49.8854 57.5838L50.9499 55.8906ZM44.7496 48.071L42.876 48.7707L42.877 48.7733L44.7496 48.071ZM44.0252 35.6918L45.9986 36.0168L45.9988 36.0157L44.0252 35.6918ZM48.6062 23.8026L50.2423 24.9528L50.2446 24.9495L48.6062 23.8026ZM56.9798 16.3452L57.8986 18.1216L57.9046 18.1185L56.9798 16.3452ZM77.7965 16.4943L76.7222 18.1813L76.726 18.1837L77.7965 16.4943ZM83.9968 24.3778L82.1197 25.0682L82.1232 25.0775L83.9968 24.3778ZM75.538 35.6918L77.5108 36.0206L77.511 36.019L75.538 35.6918ZM75.4741 28.1491L73.537 28.6469L73.539 28.6548L73.5412 28.6628L75.4741 28.1491ZM72.5763 23.5043L73.7738 21.9023L73.7738 21.9023L72.5763 23.5043ZM60.8363 23.6747L59.8091 21.9586L59.8036 21.962L60.8363 23.6747ZM55.9357 28.7457L54.2227 27.7135L54.2207 27.7167L55.9357 28.7457ZM53.1871 36.7784L55.1589 37.1132L55.1602 37.1059L55.1614 37.0986L53.1871 36.7784ZM53.2298 44.321L51.2977 44.8381L51.3012 44.8507L53.2298 44.321ZM56.1914 48.902L55.0122 50.5174L55.0213 50.524L55.0305 50.5305L56.1914 48.902ZM67.8889 48.7315L68.9085 50.4521L68.9123 50.4499L67.8889 48.7315ZM72.7681 43.7244L74.4802 44.7583L74.4831 44.7534L72.7681 43.7244ZM82.7498 36.4418C81.995 40.8628 80.5484 44.5277 78.4615 47.496L81.7338 49.7966C84.2208 46.2592 85.8566 42.0122 86.6927 37.115L82.7498 36.4418ZM78.4582 47.5008C76.3573 50.5077 73.8215 52.7527 70.8508 54.2831L72.6826 57.839C76.2743 55.9887 79.2925 53.2906 81.7371 49.7918L78.4582 47.5008ZM70.8476 54.2848C67.8726 55.824 64.6661 56.5966 61.1985 56.5966V60.5966C65.2877 60.5966 69.1267 59.6788 72.6857 57.8374L70.8476 54.2848ZM61.1985 56.5966C57.5472 56.5966 54.5141 55.769 52.0144 54.1975L49.8854 57.5838C53.1244 59.6202 56.9236 60.5966 61.1985 60.5966V56.5966ZM52.0182 54.1998C49.5613 52.6475 47.7603 50.4033 46.6223 47.3688L42.877 48.7733C44.2958 52.5569 46.6283 55.5258 49.8816 57.5814L52.0182 54.1998ZM46.6233 47.3713C45.5016 44.3677 45.2413 40.6147 45.9986 36.0168L42.0518 35.3667C41.2182 40.4279 41.4409 44.9278 42.876 48.7707L46.6233 47.3713ZM45.9988 36.0157C46.7263 31.5835 48.1587 27.9165 50.2423 24.9528L46.9701 22.6523C44.4798 26.1943 42.8582 30.4534 42.0516 35.3678L45.9988 36.0157ZM50.2446 24.9495C52.3604 21.927 54.9117 19.6666 57.8986 18.1216L56.0609 14.5687C52.4569 16.4329 49.4259 19.144 46.9677 22.6556L50.2446 24.9495ZM57.9046 18.1185C60.9085 16.5518 64.1345 15.767 67.6119 15.767V11.767C63.504 11.767 59.6419 12.7011 56.0549 14.5719L57.9046 18.1185ZM67.6119 15.767C71.229 15.767 74.2375 16.599 76.7222 18.1813L78.8708 14.8073C75.6453 12.7533 71.8641 11.767 67.6119 11.767V15.767ZM76.726 18.1837C79.1942 19.7477 80.9946 22.0089 82.1197 25.0682L85.8739 23.6875C84.4706 19.8717 82.1375 16.8773 78.867 14.8049L76.726 18.1837ZM82.1232 25.0775C83.2447 28.0808 83.5053 31.8409 82.7477 36.4543L86.6948 37.1025C87.5281 32.0285 87.3057 27.5215 85.8704 23.6782L82.1232 25.0775ZM77.511 36.019C78.0356 32.857 78.0446 30.035 77.407 27.6355L73.5412 28.6628C73.9831 30.3258 74.0348 32.5322 73.565 35.3645L77.511 36.019ZM77.4112 27.6514C76.796 25.2572 75.6153 23.2788 73.7738 21.9023L71.3789 25.1062C72.3499 25.832 73.101 26.9502 73.537 28.6469L77.4112 27.6514ZM73.7738 21.9023C71.9509 20.5398 69.7284 19.9276 67.2496 19.9276V23.9276C69.0607 23.9276 70.3893 24.3665 71.3789 25.1062L73.7738 21.9023ZM67.2496 19.9276C64.5687 19.9276 62.0743 20.6028 59.8091 21.9586L61.8634 25.3908C63.4903 24.417 65.2715 23.9276 67.2496 23.9276V19.9276ZM59.8036 21.962C57.5545 23.3181 55.7011 25.26 54.2227 27.7135L57.6488 29.778C58.8408 27.7996 60.2545 26.3609 61.869 25.3875L59.8036 21.962ZM54.2207 27.7167C52.7415 30.1822 51.7554 33.1133 51.2129 36.4583L55.1614 37.0986C55.6417 34.1367 56.4879 31.7127 57.6507 29.7747L54.2207 27.7167ZM51.2154 36.4436C50.6763 39.6178 50.6574 42.4453 51.2977 44.838L55.1618 43.804C54.7225 42.1626 54.6752 39.9617 55.1589 37.1132L51.2154 36.4436ZM51.3012 44.8507C51.9514 47.2181 53.1604 49.1656 55.0122 50.5174L57.3706 47.2866C56.3815 46.5645 55.6161 45.458 55.1583 43.7913L51.3012 44.8507ZM55.0305 50.5305C56.8698 51.8418 59.0814 52.4361 61.5394 52.4361V48.4361C59.7361 48.4361 58.3823 48.0077 57.3524 47.2734L55.0305 50.5305ZM61.5394 52.4361C64.199 52.4361 66.6699 51.7787 68.9085 50.4521L66.8692 47.011C65.2725 47.9571 63.5105 48.4361 61.5394 48.4361V52.4361ZM68.9123 50.4499C71.1629 49.1094 73.0127 47.1882 74.4801 44.7583L71.0561 42.6905C69.8815 44.6356 68.4784 46.0525 66.8654 47.0132L68.9123 50.4499ZM74.4831 44.7534C75.9606 42.291 76.9537 39.363 77.5108 36.0206L73.5652 35.363C73.0711 38.3274 72.2177 40.7545 71.0531 42.6954L74.4831 44.7534ZM95.2628 14.3636V12.3636H93.5674L93.2898 14.0361L95.2628 14.3636ZM106.641 14.3636L108.583 13.8879L108.21 12.3636H106.641V14.3636ZM113.821 43.6818L111.878 44.1576L112.252 45.6818H113.821V43.6818ZM114.332 43.6818V45.6818H115.49L116.066 44.6786L114.332 43.6818ZM131.186 14.3636V12.3636H130.029L129.452 13.3669L131.186 14.3636ZM142.564 14.3636L144.537 14.6912L144.923 12.3636H142.564V14.3636ZM135.32 58V60H137.015L137.293 58.3275L135.32 58ZM126.371 58L124.398 57.6714L124.01 60H126.371V58ZM131.101 29.598L133.074 29.9266L133.461 27.598H131.101V29.598ZM130.717 29.598V27.598H129.551L128.976 28.6137L130.717 29.598ZM114.78 57.7869V59.7869H115.947L116.521 58.7713L114.78 57.7869ZM108.665 57.7869L106.716 58.2388L107.076 59.7869H108.665V57.7869ZM102.102 29.4915L104.051 29.0396L103.692 27.4915H102.102V29.4915ZM101.74 29.4915V27.4915H100.047L99.7675 29.1612L101.74 29.4915ZM96.9673 58V60H98.6603L98.9399 58.3302L96.9673 58ZM88.0185 58L86.0455 57.6725L85.6591 60H88.0185V58ZM95.2628 16.3636H106.641V12.3636H95.2628V16.3636ZM104.698 14.8394L111.878 44.1576L115.764 43.2061L108.583 13.8879L104.698 14.8394ZM113.821 45.6818H114.332V41.6818H113.821V45.6818ZM116.066 44.6786L132.92 15.3604L129.452 13.3669L112.598 42.6851L116.066 44.6786ZM131.186 16.3636H142.564V12.3636H131.186V16.3636ZM140.591 14.0361L133.347 57.6725L137.293 58.3275L144.537 14.6912L140.591 14.0361ZM135.32 56H126.371V60H135.32V56ZM128.344 58.3286L133.074 29.9266L129.128 29.2695L124.398 57.6714L128.344 58.3286ZM131.101 27.598H130.717V31.598H131.101V27.598ZM128.976 28.6137L113.039 56.8026L116.521 58.7713L132.458 30.5823L128.976 28.6137ZM114.78 55.7869H108.665V59.7869H114.78V55.7869ZM110.613 57.3351L104.051 29.0396L100.154 29.9433L106.716 58.2388L110.613 57.3351ZM102.102 27.4915H101.74V31.4915H102.102V27.4915ZM99.7675 29.1612L94.9948 57.6698L98.9399 58.3302L103.713 29.8217L99.7675 29.1612ZM96.9673 56H88.0185V60H96.9673V56ZM89.9915 58.3275L97.2358 14.6912L93.2898 14.0361L86.0455 57.6725L89.9915 58.3275ZM150.442 58V60H151.687L152.236 58.8835L150.442 58ZM140.556 58L138.775 57.0896L137.287 60H140.556V58ZM162.864 14.3636V12.3636H161.64L161.083 13.4532L162.864 14.3636ZM174.753 14.3636L176.722 14.0118L176.427 12.3636H174.753V14.3636ZM182.551 58V60H184.941L184.52 57.6482L182.551 58ZM172.665 58L170.69 58.3113L170.956 60H172.665V58ZM167.36 24.3352L169.335 24.0239L169.069 22.3352H167.36V24.3352ZM167.019 24.3352V22.3352H165.774L165.225 23.4517L167.019 24.3352ZM152.701 40.848V38.848H151.015L150.729 40.5098L152.701 40.848ZM176.053 40.848L178.024 41.1863L178.425 38.848H176.053V40.848ZM174.817 48.0497V50.0497H176.503L176.788 48.388L174.817 48.0497ZM151.465 48.0497L149.494 47.7115L149.092 50.0497H151.465V48.0497ZM150.442 56H140.556V60H150.442V56ZM142.337 58.9104L164.645 15.274L161.083 13.4532L138.775 57.0896L142.337 58.9104ZM162.864 16.3636H174.753V12.3636H162.864V16.3636ZM172.784 14.7155L180.583 58.3518L184.52 57.6482L176.722 14.0118L172.784 14.7155ZM182.551 56H172.665V60H182.551V56ZM174.641 57.6887L169.335 24.0239L165.384 24.6466L170.69 58.3113L174.641 57.6887ZM167.36 22.3352H167.019V26.3352H167.36V22.3352ZM165.225 23.4517L148.648 57.1165L152.236 58.8835L168.813 25.2187L165.225 23.4517ZM152.701 42.848H176.053V38.848H152.701V42.848ZM174.082 40.5098L172.846 47.7115L176.788 48.388L178.024 41.1863L174.082 40.5098ZM174.817 46.0497H151.465V50.0497H174.817V46.0497ZM153.436 48.388L154.672 41.1863L150.729 40.5098L149.494 47.7115L153.436 48.388ZM187.804 58L185.831 57.6725L185.444 60H187.804V58ZM195.048 14.3636V12.3636H193.353L193.075 14.0361L195.048 14.3636ZM204.274 14.3636L206.247 14.6905L206.632 12.3636H204.274V14.3636ZM201.291 32.3679L199.318 32.041L198.932 34.3679H201.291V32.3679ZM220.02 32.3679V34.3679H221.715L221.993 32.6948L220.02 32.3679ZM223.002 14.3636V12.3636H221.307L221.029 14.0367L223.002 14.3636ZM232.207 14.3636L234.18 14.6912L234.566 12.3636H232.207V14.3636ZM224.963 58V60H226.658L226.936 58.3275L224.963 58ZM215.758 58L213.785 57.6735L213.4 60H215.758V58ZM218.741 39.9744L220.714 40.301L221.099 37.9744H218.741V39.9744ZM200.012 39.9744V37.9744H198.316L198.039 39.6479L200.012 39.9744ZM197.029 58V60H198.726L199.003 58.3265L197.029 58ZM189.777 58.3275L197.021 14.6912L193.075 14.0361L185.831 57.6725L189.777 58.3275ZM195.048 16.3636H204.274V12.3636H195.048V16.3636ZM202.301 14.0367L199.318 32.041L203.264 32.6948L206.247 14.6905L202.301 14.0367ZM201.291 34.3679H220.02V30.3679H201.291V34.3679ZM221.993 32.6948L224.976 14.6905L221.029 14.0367L218.046 32.041L221.993 32.6948ZM223.002 16.3636H232.207V12.3636H223.002V16.3636ZM230.234 14.0361L222.99 57.6725L226.936 58.3275L234.18 14.6912L230.234 14.0361ZM224.963 56H215.758V60H224.963V56ZM217.731 58.3265L220.714 40.301L216.768 39.6479L213.785 57.6735L217.731 58.3265ZM218.741 37.9744H200.012V41.9744H218.741V37.9744ZM198.039 39.6479L195.056 57.6735L199.003 58.3265L201.986 40.301L198.039 39.6479ZM197.029 56H187.804V60H197.029V56ZM228.5 68.5256L226.526 68.201L226.144 70.5256H228.5V68.5256ZM231.44 50.6491V48.6491H229.742L229.467 50.3245L231.44 50.6491ZM234.402 50.6491V52.6491H234.991L235.486 52.3294L234.402 50.6491ZM237.662 47.581L236.098 46.3336L236.097 46.3357L237.662 47.581ZM240.73 42.0625L238.887 41.2854L238.885 41.2909L240.73 42.0625ZM243.542 32.8153L241.595 32.361L241.594 32.3646L243.542 32.8153ZM247.846 14.3636V12.3636H246.259L245.899 13.9093L247.846 14.3636ZM276.717 14.3636L278.69 14.6904L279.075 12.3636H276.717V14.3636ZM270.708 50.6491L268.735 50.3224L268.35 52.6491H270.708V50.6491ZM275.481 50.6491L277.455 50.9745L277.838 48.6491H275.481V50.6491ZM272.541 68.483V70.483H274.238L274.514 68.8083L272.541 68.483ZM263.677 68.483L261.703 68.162L261.326 70.483H263.677V68.483ZM265.382 58L267.356 58.321L267.733 56H265.382V58ZM239.068 58V56H237.366L237.094 57.6803L239.068 58ZM237.363 68.5256V70.5256H239.065L239.338 68.8453L237.363 68.5256ZM245.055 50.6491L243.466 49.4342L241.008 52.6491H245.055V50.6491ZM261.845 50.6491V52.6491H263.542L263.818 50.9746L261.845 50.6491ZM266.575 21.9702L268.548 22.2956L268.932 19.9702H266.575V21.9702ZM254.877 21.9702V19.9702H253.282L252.927 21.5258L254.877 21.9702ZM252.406 32.8153L250.456 32.3709L250.455 32.3733L252.406 32.8153ZM250.233 40.4858L248.349 39.8139L248.345 39.8246L250.233 40.4858ZM247.74 46.3452L245.969 45.4149L245.966 45.4206L247.74 46.3452ZM230.473 68.8502L233.413 50.9737L229.467 50.3245L226.526 68.201L230.473 68.8502ZM231.44 52.6491H234.402V48.6491H231.44V52.6491ZM235.486 52.3294C236.832 51.4607 238.074 50.2746 239.227 48.8262L236.097 46.3357C235.147 47.5294 234.215 48.3888 233.317 48.9689L235.486 52.3294ZM239.225 48.8283C240.447 47.2964 241.555 45.2742 242.575 42.8341L238.885 41.2909C237.945 43.5383 237.007 45.195 236.098 46.3336L239.225 48.8283ZM242.573 42.8396C243.628 40.3365 244.596 37.1329 245.491 33.2661L241.594 32.3646C240.727 36.1114 239.82 39.0726 238.887 41.2854L242.573 42.8396ZM245.49 33.2697L249.794 14.818L245.899 13.9093L241.595 32.361L245.49 33.2697ZM247.846 16.3636H276.717V12.3636H247.846V16.3636ZM274.744 14.0369L268.735 50.3224L272.682 50.9759L278.69 14.6904L274.744 14.0369ZM270.708 52.6491H275.481V48.6491H270.708V52.6491ZM273.508 50.3238L270.567 68.1576L274.514 68.8083L277.455 50.9745L273.508 50.3238ZM272.541 66.483H263.677V70.483H272.541V66.483ZM265.651 68.8039L267.356 58.321L263.408 57.679L261.703 68.162L265.651 68.8039ZM265.382 56H239.068V60H265.382V56ZM237.094 57.6803L235.389 68.2058L239.338 68.8453L241.042 58.3197L237.094 57.6803ZM237.363 66.5256H228.5V70.5256H237.363V66.5256ZM245.055 52.6491H261.845V48.6491H245.055V52.6491ZM263.818 50.9746L268.548 22.2956L264.602 21.6447L259.871 50.3237L263.818 50.9746ZM266.575 19.9702H254.877V23.9702H266.575V19.9702ZM252.927 21.5258L250.456 32.3709L254.356 33.2597L256.827 22.4146L252.927 21.5258ZM250.455 32.3733C249.815 35.1972 249.112 37.6748 248.349 39.8139L252.116 41.1577C252.944 38.8366 253.69 36.2005 254.356 33.2573L250.455 32.3733ZM248.345 39.8246C247.589 41.9839 246.795 43.8436 245.969 45.4149L249.51 47.2754C250.446 45.4945 251.314 43.448 252.12 41.147L248.345 39.8246ZM245.966 45.4206C245.141 47.0031 244.306 48.3363 243.466 49.4342L246.644 51.864C247.651 50.5472 248.605 49.0111 249.513 47.2698L245.966 45.4206ZM287.376 58V60H288.62L289.17 58.8835L287.376 58ZM277.489 58L275.709 57.0896L274.221 60H277.489V58ZM299.798 14.3636V12.3636H298.574L298.017 13.4532L299.798 14.3636ZM311.687 14.3636L313.656 14.0118L313.361 12.3636H311.687V14.3636ZM319.485 58V60H321.874L321.454 57.6482L319.485 58ZM309.599 58L307.623 58.3113L307.889 60H309.599V58ZM304.293 24.3352L306.269 24.0239L306.003 22.3352H304.293V24.3352ZM303.952 24.3352V22.3352H302.708L302.158 23.4517L303.952 24.3352ZM289.634 40.848V38.848H287.948L287.663 40.5098L289.634 40.848ZM312.987 40.848L314.958 41.1863L315.359 38.848H312.987V40.848ZM311.751 48.0497V50.0497H313.437L313.722 48.388L311.751 48.0497ZM288.398 48.0497L286.427 47.7115L286.026 50.0497H288.398V48.0497ZM287.376 56H277.489V60H287.376V56ZM279.27 58.9104L301.578 15.274L298.017 13.4532L275.709 57.0896L279.27 58.9104ZM299.798 16.3636H311.687V12.3636H299.798V16.3636ZM309.718 14.7155L317.516 58.3518L321.454 57.6482L313.656 14.0118L309.718 14.7155ZM319.485 56H309.599V60H319.485V56ZM311.574 57.6887L306.269 24.0239L302.318 24.6466L307.623 58.3113L311.574 57.6887ZM304.293 22.3352H303.952V26.3352H304.293V22.3352ZM302.158 23.4517L285.581 57.1165L289.17 58.8835L305.747 25.2187L302.158 23.4517ZM289.634 42.848H312.987V38.848H289.634V42.848ZM311.015 40.5098L309.78 47.7115L313.722 48.388L314.958 41.1863L311.015 40.5098ZM311.751 46.0497H288.398V50.0497H311.751V46.0497ZM290.37 48.388L291.605 41.1863L287.663 40.5098L286.427 47.7115L290.37 48.388Z" fill="url(#paint0_linear_1748_282)"/>
<path d="M30.1918 58L16.1719 39.3991H13.0185V58H3.79261V14.3636H13.0185V31.7926H14.8722L29.3608 14.3636H40.8452L23.821 34.6051L41.6335 58H30.1918ZM83.9116 36.1818C83.9116 40.9403 83.0096 44.9886 81.2056 48.3267C79.4158 51.6648 76.9727 54.2145 73.8761 55.9759C70.7937 57.723 67.3278 58.5966 63.4783 58.5966C59.6005 58.5966 56.1204 57.7159 53.038 55.9545C49.9556 54.1932 47.5195 51.6435 45.7298 48.3054C43.94 44.9673 43.0451 40.9261 43.0451 36.1818C43.0451 31.4233 43.94 27.375 45.7298 24.0369C47.5195 20.6989 49.9556 18.1562 53.038 16.4091C56.1204 14.6477 59.6005 13.767 63.4783 13.767C67.3278 13.767 70.7937 14.6477 73.8761 16.4091C76.9727 18.1562 79.4158 20.6989 81.2056 24.0369C83.0096 27.375 83.9116 31.4233 83.9116 36.1818ZM74.5579 36.1818C74.5579 33.0994 74.0962 30.5 73.1729 28.3835C72.2638 26.267 70.9783 24.6619 69.3164 23.5682C67.6545 22.4744 65.7085 21.9276 63.4783 21.9276C61.2482 21.9276 59.3022 22.4744 57.6403 23.5682C55.9783 24.6619 54.6857 26.267 53.7624 28.3835C52.8533 30.5 52.3988 33.0994 52.3988 36.1818C52.3988 39.2642 52.8533 41.8636 53.7624 43.9801C54.6857 46.0966 55.9783 47.7017 57.6403 48.7955C59.3022 49.8892 61.2482 50.4361 63.4783 50.4361C65.7085 50.4361 67.6545 49.8892 69.3164 48.7955C70.9783 47.7017 72.2638 46.0966 73.1729 43.9801C74.0962 41.8636 74.5579 39.2642 74.5579 36.1818ZM90.7457 14.3636H102.124L114.141 43.6818H114.652L126.669 14.3636H138.047V58H129.098V29.598H128.736L117.443 57.7869H111.349L100.057 29.4915H99.6946V58H90.7457V14.3636ZM153.169 58H143.283L158.347 14.3636H170.236L185.279 58H175.392L164.462 24.3352H164.121L153.169 58ZM152.551 40.848H175.904V48.0497H152.551V40.848ZM190.531 58V14.3636H199.757V32.3679H218.485V14.3636H227.69V58H218.485V39.9744H199.757V58H190.531ZM232.931 68.5256V50.6491H235.893C236.902 49.9247 237.825 48.902 238.663 47.581C239.501 46.2457 240.218 44.4062 240.815 42.0625C241.412 39.7045 241.838 36.6222 242.093 32.8153L243.329 14.3636H272.2V50.6491H276.973V68.483H268.109V58H241.795V68.5256H232.931ZM246.547 50.6491H263.336V21.9702H251.639L250.957 32.8153C250.772 35.6989 250.467 38.2557 250.041 40.4858C249.629 42.7159 249.125 44.669 248.528 46.3452C247.946 48.0071 247.285 49.4418 246.547 50.6491ZM290.103 58H280.217L295.281 14.3636H307.17L322.212 58H312.326L301.396 24.3352H301.055L290.103 58ZM289.485 40.848H312.837V48.0497H289.485V40.848Z" fill="white"/>
<defs>
<linearGradient id="paint0_linear_1748_282" x1="2.15015e-07" y1="36.9999" x2="324" y2="36.9999" gradientUnits="userSpaceOnUse">
<stop stop-color="#8D72E1"/>
<stop offset="1" stop-color="#8D9EFF"/>
</linearGradient>
</defs>
</svg>
