<svg width="194" height="73" viewBox="0 0 194 73" fill="none" xmlns="http://www.w3.org/2000/svg">
<path d="M44.7017 36.7784L46.6732 37.115L46.6753 37.1025L44.7017 36.7784ZM40.0781 48.6463L38.442 47.496L38.4387 47.5008L40.0781 48.6463ZM31.7472 56.0611L30.8312 54.2831L30.8281 54.2848L31.7472 56.0611ZM10.9304 55.8906L9.86209 57.5814L9.86588 57.5838L10.9304 55.8906ZM4.73011 48.071L2.8565 48.7707L2.85746 48.7733L4.73011 48.071ZM4.00568 35.6918L5.97909 36.0168L5.97927 36.0157L4.00568 35.6918ZM8.58665 23.8026L10.2228 24.9528L10.2251 24.9495L8.58665 23.8026ZM16.9602 16.3452L17.8791 18.1216L17.8851 18.1185L16.9602 16.3452ZM37.777 16.4943L36.7027 18.1813L36.7065 18.1837L37.777 16.4943ZM43.9773 24.3778L42.1002 25.0682L42.1037 25.0775L43.9773 24.3778ZM35.5185 35.6918L37.4913 36.0206L37.4915 36.019L35.5185 35.6918ZM35.4545 28.1491L33.5175 28.6469L33.5195 28.6548L33.5216 28.6628L35.4545 28.1491ZM32.5568 23.5043L33.7542 21.9023L33.7542 21.9023L32.5568 23.5043ZM20.8168 23.6747L19.7896 21.9586L19.7841 21.962L20.8168 23.6747ZM15.9162 28.7457L14.2031 27.7135L14.2012 27.7167L15.9162 28.7457ZM13.1676 36.7784L15.1394 37.1132L15.1406 37.1059L15.1418 37.0986L13.1676 36.7784ZM13.2102 44.321L11.2782 44.8381L11.2816 44.8507L13.2102 44.321ZM16.1719 48.902L14.9927 50.5174L15.0018 50.524L15.0109 50.5305L16.1719 48.902ZM27.8693 48.7315L28.8889 50.4521L28.8927 50.4499L27.8693 48.7315ZM32.7486 43.7244L34.4606 44.7583L34.4636 44.7534L32.7486 43.7244ZM42.7302 36.4418C41.9754 40.8628 40.5289 44.5277 38.442 47.496L41.7142 49.7966C44.2012 46.2592 45.8371 42.0122 46.6732 37.115L42.7302 36.4418ZM38.4387 47.5008C36.3378 50.5077 33.802 52.7527 30.8312 54.2831L32.6631 57.839C36.2548 55.9887 39.273 53.2906 41.7176 49.7918L38.4387 47.5008ZM30.8281 54.2848C27.853 55.824 24.6466 56.5966 21.179 56.5966V60.5966C25.2682 60.5966 29.1072 59.6788 32.6662 57.8374L30.8281 54.2848ZM21.179 56.5966C17.5277 56.5966 14.4946 55.769 11.9949 54.1975L9.86588 57.5838C13.1048 59.6202 16.9041 60.5966 21.179 60.5966V56.5966ZM11.9987 54.1998C9.54179 52.6475 7.74073 50.4033 6.60277 47.3688L2.85746 48.7733C4.27631 52.5569 6.60878 55.5258 9.8621 57.5814L11.9987 54.1998ZM6.60373 47.3713C5.48202 44.3677 5.22179 40.6147 5.97909 36.0168L2.03227 35.3667C1.19866 40.4279 1.42139 44.9278 2.8565 48.7707L6.60373 47.3713ZM5.97927 36.0157C6.70674 31.5835 8.13916 27.9165 10.2228 24.9528L6.95054 22.6523C4.46027 26.1943 2.83871 30.4534 2.03209 35.3678L5.97927 36.0157ZM10.2251 24.9495C12.3408 21.927 14.8921 19.6666 17.8791 18.1216L16.0414 14.5687C12.4374 16.4329 9.40633 19.144 6.94818 22.6556L10.2251 24.9495ZM17.8851 18.1185C20.889 16.5518 24.1149 15.767 27.5923 15.767V11.767C23.4845 11.767 19.6224 12.7011 16.0354 14.5719L17.8851 18.1185ZM27.5923 15.767C31.2095 15.767 34.2179 16.599 36.7027 18.1813L38.8513 14.8073C35.6258 12.7533 31.8445 11.767 27.5923 11.767V15.767ZM36.7065 18.1837C39.1747 19.7477 40.9751 22.0089 42.1002 25.0682L45.8544 23.6875C44.451 19.8717 42.1179 16.8773 38.8475 14.8049L36.7065 18.1837ZM42.1037 25.0775C43.2252 28.0808 43.4858 31.8409 42.7281 36.4543L46.6753 37.1025C47.5085 32.0285 47.2862 27.5215 45.8509 23.6782L42.1037 25.0775ZM37.4915 36.019C38.016 32.857 38.0251 30.035 37.3875 27.6355L33.5216 28.6628C33.9636 30.3258 34.0152 32.5322 33.5454 35.3645L37.4915 36.019ZM37.3916 27.6514C36.7764 25.2572 35.5958 23.2788 33.7542 21.9023L31.3594 25.1062C32.3304 25.832 33.0815 26.9502 33.5175 28.6469L37.3916 27.6514ZM33.7542 21.9023C31.9314 20.5398 29.7088 19.9276 27.2301 19.9276V23.9276C29.0412 23.9276 30.3698 24.3665 31.3594 25.1062L33.7542 21.9023ZM27.2301 19.9276C24.5491 19.9276 22.0548 20.6028 19.7896 21.9586L21.8439 25.3908C23.4708 24.417 25.252 23.9276 27.2301 23.9276V19.9276ZM19.7841 21.962C17.5349 23.3181 15.6815 25.26 14.2031 27.7135L17.6292 29.778C18.8213 27.7996 20.2349 26.3609 21.8495 25.3875L19.7841 21.962ZM14.2012 27.7167C12.722 30.1822 11.7358 33.1133 11.1934 36.4583L15.1418 37.0986C15.6221 34.1367 16.4684 31.7127 17.6312 29.7747L14.2012 27.7167ZM11.1958 36.4436C10.6568 39.6178 10.6379 42.4453 11.2782 44.838L15.1422 43.804C14.703 42.1626 14.6557 39.9617 15.1394 37.1132L11.1958 36.4436ZM11.2816 44.8507C11.9319 47.2181 13.1409 49.1656 14.9927 50.5174L17.3511 47.2866C16.362 46.5645 15.5966 45.458 15.1388 43.7913L11.2816 44.8507ZM15.0109 50.5305C16.8503 51.8418 19.0619 52.4361 21.5199 52.4361V48.4361C19.7166 48.4361 18.3628 48.0077 17.3328 47.2734L15.0109 50.5305ZM21.5199 52.4361C24.1795 52.4361 26.6504 51.7787 28.8889 50.4521L26.8497 47.011C25.253 47.9571 23.491 48.4361 21.5199 48.4361V52.4361ZM28.8927 50.4499C31.1434 49.1094 32.9932 47.1882 34.4606 44.7583L31.0365 42.6905C29.8619 44.6356 28.4589 46.0525 26.8459 47.0132L28.8927 50.4499ZM34.4636 44.7534C35.941 42.291 36.9342 39.363 37.4913 36.0206L33.5457 35.363C33.0516 38.3274 32.1982 40.7545 31.0336 42.6954L34.4636 44.7534ZM61.8857 58L59.9127 57.6725L59.5262 60H61.8857V58ZM69.13 14.3636V12.3636H67.4346L67.157 14.0361L69.13 14.3636ZM78.3558 14.3636L80.3289 14.6905L80.7144 12.3636H78.3558V14.3636ZM75.3729 32.3679L73.3998 32.041L73.0142 34.3679H75.3729V32.3679ZM94.1016 32.3679V34.3679H95.7975L96.0747 32.6948L94.1016 32.3679ZM97.0845 14.3636V12.3636H95.3886L95.1114 14.0367L97.0845 14.3636ZM106.289 14.3636L108.262 14.6912L108.648 12.3636H106.289V14.3636ZM99.0447 58V60H100.74L101.018 58.3275L99.0447 58ZM89.8402 58L87.867 57.6735L87.482 60H89.8402V58ZM92.8232 39.9744L94.7963 40.301L95.1813 37.9744H92.8232V39.9744ZM74.0945 39.9744V37.9744H72.3982L72.1213 39.6479L74.0945 39.9744ZM71.1115 58V60H72.8077L73.0847 58.3265L71.1115 58ZM63.8586 58.3275L71.103 14.6912L67.157 14.0361L59.9127 57.6725L63.8586 58.3275ZM69.13 16.3636H78.3558V12.3636H69.13V16.3636ZM76.3827 14.0367L73.3998 32.041L77.346 32.6948L80.3289 14.6905L76.3827 14.0367ZM75.3729 34.3679H94.1016V30.3679H75.3729V34.3679ZM96.0747 32.6948L99.0576 14.6905L95.1114 14.0367L92.1285 32.041L96.0747 32.6948ZM97.0845 16.3636H106.289V12.3636H97.0845V16.3636ZM104.316 14.0361L97.0717 57.6725L101.018 58.3275L108.262 14.6912L104.316 14.0361ZM99.0447 56H89.8402V60H99.0447V56ZM91.8134 58.3265L94.7963 40.301L90.85 39.6479L87.867 57.6735L91.8134 58.3265ZM92.8232 37.9744H74.0945V41.9744H92.8232V37.9744ZM72.1213 39.6479L69.1383 57.6735L73.0847 58.3265L76.0676 40.301L72.1213 39.6479ZM71.1115 56H61.8857V60H71.1115V56ZM114.173 58V60H115.417L115.967 58.8835L114.173 58ZM104.286 58L102.505 57.0896L101.018 60H104.286V58ZM126.594 14.3636V12.3636H125.371L124.814 13.4532L126.594 14.3636ZM138.484 14.3636L140.452 14.0118L140.158 12.3636H138.484V14.3636ZM146.282 58V60H148.671L148.251 57.6482L146.282 58ZM136.396 58L134.42 58.3113L134.686 60H136.396V58ZM131.09 24.3352L133.066 24.0239L132.8 22.3352H131.09V24.3352ZM130.749 24.3352V22.3352H129.505L128.955 23.4517L130.749 24.3352ZM116.431 40.848V38.848H114.745L114.46 40.5098L116.431 40.848ZM139.783 40.848L141.755 41.1863L142.156 38.848H139.783V40.848ZM138.548 48.0497V50.0497H140.234L140.519 48.388L138.548 48.0497ZM115.195 48.0497L113.224 47.7115L112.823 50.0497H115.195V48.0497ZM114.173 56H104.286V60H114.173V56ZM106.067 58.9104L128.375 15.274L124.814 13.4532L102.505 57.0896L106.067 58.9104ZM126.594 16.3636H138.484V12.3636H126.594V16.3636ZM136.515 14.7155L144.313 58.3518L148.251 57.6482L140.452 14.0118L136.515 14.7155ZM146.282 56H136.396V60H146.282V56ZM138.371 57.6887L133.066 24.0239L129.115 24.6466L134.42 58.3113L138.371 57.6887ZM131.09 22.3352H130.749V26.3352H131.09V22.3352ZM128.955 23.4517L112.378 57.1165L115.967 58.8835L132.544 25.2187L128.955 23.4517ZM116.431 42.848H139.783V38.848H116.431V42.848ZM137.812 40.5098L136.576 47.7115L140.519 48.388L141.755 41.1863L137.812 40.5098ZM138.548 46.0497H115.195V50.0497H138.548V46.0497ZM117.167 48.388L118.402 41.1863L114.46 40.5098L113.224 47.7115L117.167 48.388ZM192.651 29.6406V31.6406H194.574L194.649 29.7192L192.651 29.6406ZM183.446 29.6406L181.447 29.5941L181.399 31.6406H183.446V29.6406ZM182.978 26.402L181.095 27.0764L181.098 27.0855L182.978 26.402ZM181.444 23.973L180.029 25.3872L180.037 25.3947L180.044 25.402L181.444 23.973ZM178.993 22.4602L178.303 24.3374L178.315 24.3419L178.328 24.3462L178.993 22.4602ZM169.32 23.6747L170.347 25.3908L170.347 25.3908L169.32 23.6747ZM164.398 28.7457L166.108 29.7828L166.111 29.778L164.398 28.7457ZM161.628 36.7358L163.601 37.0616L163.602 37.0588L161.628 36.7358ZM161.713 44.2997L163.643 43.7735L163.643 43.7735L161.713 44.2997ZM164.654 48.902L163.467 50.5117L163.476 50.5184L163.485 50.5251L164.654 48.902ZM173.688 49.946L174.222 51.8734L174.233 51.8704L174.243 51.8673L173.688 49.946ZM176.905 48.4972L177.992 50.1763L177.998 50.1724L176.905 48.4972ZM179.462 46.1747L177.91 44.9135L177.904 44.9209L177.898 44.9283L179.462 46.1747ZM181.188 43.0852V41.0852H179.78L179.305 42.4111L181.188 43.0852ZM190.456 43.0852L192.377 43.6437L193.121 41.0852H190.456V43.0852ZM187.729 48.8807L186.063 47.7742L186.057 47.7831L187.729 48.8807ZM183.191 53.8665L184.443 55.4258L184.451 55.4198L183.191 53.8665ZM177.033 57.3182L176.338 55.4427L176.338 55.4427L177.033 57.3182ZM159.263 55.8693L158.181 57.5514L158.185 57.5539L159.263 55.8693ZM153.148 48.0071L151.269 48.6931L151.269 48.6931L153.148 48.0071ZM152.445 35.6278L150.472 35.2981L150.471 35.3085L152.445 35.6278ZM157.026 23.7386L155.387 22.5917L155.386 22.5932L157.026 23.7386ZM165.357 16.3026L164.441 14.5246L164.438 14.5262L165.357 16.3026ZM188.304 17.9432L186.948 19.4128L186.955 19.4196L186.963 19.4263L188.304 17.9432ZM191.671 22.9077L189.804 23.6247L189.804 23.6247L191.671 22.9077ZM192.651 27.6406H183.446V31.6406H192.651V27.6406ZM185.446 29.6871C185.479 28.2711 185.3 26.9358 184.857 25.7185L181.098 27.0855C181.337 27.7432 181.471 28.567 181.447 29.5941L185.446 29.6871ZM184.86 25.7275C184.424 24.5083 183.754 23.4358 182.843 22.544L180.044 25.402C180.497 25.8454 180.85 26.3923 181.095 27.0764L184.86 25.7275ZM182.858 22.5588C181.961 21.6625 180.882 21.006 179.659 20.5742L178.328 24.3462C179.036 24.5963 179.59 24.9483 180.029 25.3872L182.858 22.5588ZM179.683 20.5831C178.462 20.134 177.136 19.9276 175.733 19.9276V23.9276C176.745 23.9276 177.593 24.0763 178.303 24.3374L179.683 20.5831ZM175.733 19.9276C173.052 19.9276 170.558 20.6028 168.293 21.9586L170.347 25.3908C171.974 24.417 173.755 23.9276 175.733 23.9276V19.9276ZM168.293 21.9586C166.028 23.3141 164.165 25.2568 162.685 27.7135L166.111 29.778C167.301 27.8029 168.72 26.3649 170.347 25.3908L168.293 21.9586ZM162.688 27.7086C161.193 30.1733 160.198 33.0914 159.654 36.4128L163.602 37.0588C164.081 34.1302 164.932 31.7216 166.108 29.7828L162.688 27.7086ZM159.655 36.41C159.13 39.5875 159.128 42.4214 159.784 44.826L163.643 43.7735C163.191 42.1155 163.132 39.9068 163.601 37.0616L159.655 36.41ZM159.784 44.8259C160.431 47.1996 161.628 49.1559 163.467 50.5117L165.841 47.2923C164.867 46.5742 164.104 45.4624 163.643 43.7735L159.784 44.8259ZM163.485 50.5251C165.312 51.8405 167.513 52.4361 169.959 52.4361V48.4361C168.173 48.4361 166.836 48.009 165.822 47.2789L163.485 50.5251ZM169.959 52.4361C171.434 52.4361 172.858 52.2515 174.222 51.8734L173.154 48.0187C172.16 48.294 171.098 48.4361 169.959 48.4361V52.4361ZM174.243 51.8673C175.598 51.4757 176.851 50.9144 177.992 50.1763L175.819 46.818C175.028 47.3299 174.136 47.7345 173.132 48.0247L174.243 51.8673ZM177.998 50.1724C179.156 49.4172 180.168 48.4986 181.026 47.4211L177.898 44.9283C177.308 45.669 176.615 46.2988 175.813 46.8219L177.998 50.1724ZM181.014 47.4359C181.902 46.3437 182.586 45.1136 183.071 43.7594L179.305 42.4111C178.966 43.358 178.5 44.1875 177.91 44.9135L181.014 47.4359ZM181.188 45.0852H190.456V41.0852H181.188V45.0852ZM188.536 42.5268C188.014 44.3218 187.195 46.0702 186.063 47.7742L189.395 49.9871C190.735 47.9696 191.734 45.8543 192.377 43.6437L188.536 42.5268ZM186.057 47.7831C184.953 49.4643 183.582 50.9742 181.931 52.3131L184.451 55.4198C186.407 53.8327 188.061 52.0187 189.401 49.9783L186.057 47.7831ZM181.938 52.3071C180.312 53.6134 178.45 54.6606 176.338 55.4427L177.728 59.1937C180.218 58.2712 182.461 57.0173 184.443 55.4258L181.938 52.3071ZM176.338 55.4427C174.284 56.2035 172.001 56.5966 169.469 56.5966V60.5966C172.42 60.5966 175.18 60.1374 177.728 59.1937L176.338 55.4427ZM169.469 56.5966C165.82 56.5966 162.807 55.7631 160.341 54.1848L158.185 57.5539C161.401 59.6119 165.192 60.5966 169.469 60.5966V56.5966ZM160.345 54.1872C157.917 52.6255 156.14 50.371 155.027 47.3211L151.269 48.6931C152.656 52.4898 154.956 55.4767 158.181 57.5514L160.345 54.1872ZM155.027 47.3211C153.928 44.3107 153.675 40.5503 154.419 35.9472L150.471 35.3085C149.653 40.3645 149.869 44.8569 151.269 48.6931L155.027 47.3211ZM154.418 35.9576C155.159 31.5214 156.593 27.8504 158.665 24.8841L155.386 22.5932C152.914 26.1325 151.293 30.3877 150.472 35.2981L154.418 35.9576ZM158.664 24.8856C160.782 21.8606 163.32 19.6084 166.276 18.0789L164.438 14.5262C160.86 16.3774 157.844 19.0826 155.387 22.5917L158.664 24.8856ZM166.273 18.0805C169.267 16.5379 172.461 15.767 175.882 15.767V11.767C171.832 11.767 168.009 12.6865 164.441 14.5246L166.273 18.0805ZM175.882 15.767C178.301 15.767 180.431 16.0974 182.295 16.7272L183.575 12.9376C181.235 12.1469 178.663 11.767 175.882 11.767V15.767ZM182.295 16.7272C184.159 17.3569 185.697 18.2585 186.948 19.4128L189.661 16.4736C187.957 14.9006 185.916 13.7283 183.575 12.9376L182.295 16.7272ZM186.963 19.4263C188.211 20.5557 189.158 21.9442 189.804 23.6247L193.538 22.1906C192.678 19.9507 191.381 18.0295 189.646 16.4601L186.963 19.4263ZM189.804 23.6247C190.441 25.285 190.743 27.2505 190.652 29.562L194.649 29.7192C194.757 26.9739 194.406 24.4508 193.538 22.1906L189.804 23.6247Z" fill="url(#paint0_linear_1748_280)"/>
<path d="M43.892 36.1818C43.892 40.9403 42.9901 44.9886 41.1861 48.3267C39.3963 51.6648 36.9531 54.2145 33.8565 55.9759C30.7741 57.723 27.3082 58.5966 23.4588 58.5966C19.581 58.5966 16.1009 57.7159 13.0185 55.9545C9.93608 54.1932 7.5 51.6435 5.71023 48.3054C3.92045 44.9673 3.02557 40.9261 3.02557 36.1818C3.02557 31.4233 3.92045 27.375 5.71023 24.0369C7.5 20.6989 9.93608 18.1562 13.0185 16.4091C16.1009 14.6477 19.581 13.767 23.4588 13.767C27.3082 13.767 30.7741 14.6477 33.8565 16.4091C36.9531 18.1562 39.3963 20.6989 41.1861 24.0369C42.9901 27.375 43.892 31.4233 43.892 36.1818ZM34.5384 36.1818C34.5384 33.0994 34.0767 30.5 33.1534 28.3835C32.2443 26.267 30.9588 24.6619 29.2969 23.5682C27.6349 22.4744 25.6889 21.9276 23.4588 21.9276C21.2287 21.9276 19.2827 22.4744 17.6207 23.5682C15.9588 24.6619 14.6662 26.267 13.7429 28.3835C12.8338 30.5 12.3793 33.0994 12.3793 36.1818C12.3793 39.2642 12.8338 41.8636 13.7429 43.9801C14.6662 46.0966 15.9588 47.7017 17.6207 48.7955C19.2827 49.8892 21.2287 50.4361 23.4588 50.4361C25.6889 50.4361 27.6349 49.8892 29.2969 48.7955C30.9588 47.7017 32.2443 46.0966 33.1534 43.9801C34.0767 41.8636 34.5384 39.2642 34.5384 36.1818ZM64.6129 58V14.3636H73.8388V32.3679H92.5675V14.3636H101.772V58H92.5675V39.9744H73.8388V58H64.6129ZM116.9 58H107.013L122.077 14.3636H133.967L149.009 58H139.123L128.192 24.3352H127.852L116.9 58ZM116.282 40.848H139.634V48.0497H116.282V40.848ZM190.712 29.6406H181.38C181.209 28.4332 180.861 27.3608 180.336 26.4233C179.81 25.4716 179.135 24.6619 178.311 23.9943C177.488 23.3267 176.536 22.8153 175.456 22.4602C174.391 22.1051 173.233 21.9276 171.983 21.9276C169.725 21.9276 167.757 22.4886 166.081 23.6108C164.405 24.7187 163.105 26.3381 162.182 28.4688C161.259 30.5852 160.797 33.1562 160.797 36.1818C160.797 39.2926 161.259 41.9062 162.182 44.0227C163.12 46.1392 164.426 47.7372 166.103 48.8168C167.779 49.8963 169.718 50.4361 171.919 50.4361C173.155 50.4361 174.299 50.2727 175.35 49.946C176.415 49.6193 177.36 49.1435 178.184 48.5185C179.007 47.8793 179.689 47.1051 180.229 46.196C180.783 45.2869 181.167 44.25 181.38 43.0852L190.712 43.1278C190.471 45.1307 189.867 47.0625 188.901 48.9233C187.949 50.7699 186.664 52.4247 185.044 53.8878C183.439 55.3366 181.522 56.4872 179.292 57.3395C177.076 58.1776 174.569 58.5966 171.77 58.5966C167.878 58.5966 164.398 57.7159 161.33 55.9545C158.276 54.1932 155.861 51.6435 154.086 48.3054C152.324 44.9673 151.444 40.9261 151.444 36.1818C151.444 31.4233 152.338 27.375 154.128 24.0369C155.918 20.6989 158.347 18.1562 161.415 16.4091C164.483 14.6477 167.935 13.767 171.77 13.767C174.299 13.767 176.642 14.1222 178.801 14.8324C180.975 15.5426 182.9 16.5795 184.576 17.9432C186.252 19.2926 187.615 20.9474 188.667 22.9077C189.732 24.8679 190.414 27.1122 190.712 29.6406Z" fill="white"/>
<defs>
<linearGradient id="paint0_linear_1748_280" x1="1.28744e-07" y1="36.9999" x2="194" y2="36.9999" gradientUnits="userSpaceOnUse">
<stop stop-color="#8D72E1"/>
<stop offset="1" stop-color="#8D9EFF"/>
</linearGradient>
</defs>
</svg>
