<svg width="35" height="35" viewBox="0 0 35 35" fill="none" xmlns="http://www.w3.org/2000/svg">
<path d="M33.3689 25.6681C32.0586 23.31 28.6832 20.4765 27.2898 19.2434C26.9084 18.9058 26.8676 18.3218 27.2147 17.9484C29.874 15.0908 32.0009 11.8074 32.733 9.82334C33.0561 8.94689 32.3874 8.02084 31.4453 8.02084H28.7088C27.8068 8.02084 27.2789 8.34459 27.0273 8.86012C24.8172 13.389 22.9214 15.349 21.5943 16.4945C20.8513 17.1362 19.6926 16.6046 19.6926 15.6282C19.6926 13.747 19.6926 11.3152 19.6926 9.59074C19.6926 8.75439 19.0087 8.07772 18.165 8.07772L13.1658 8.02084C12.5366 8.02084 12.1771 8.73324 12.5548 9.23272L13.3802 10.4176C13.6908 10.8281 13.8586 11.3276 13.8586 11.8402L13.8542 17.1763C13.8542 18.1045 12.7291 18.558 12.0612 17.9076C9.80147 15.707 7.84074 11.2131 7.13491 9.06428C6.93074 8.4423 6.34814 8.0223 5.68751 8.02084L2.99178 8.01428C1.98043 8.01428 1.24105 8.97314 1.51595 9.93855C3.97907 18.5843 9.03293 26.8093 18.0396 27.7011C18.927 27.7886 19.6926 27.074 19.6926 26.1895V23.3851C19.6926 22.5808 20.3233 21.8896 21.1342 21.8692C21.1626 21.8684 21.1911 21.8684 21.2195 21.8684C23.6017 21.8684 26.2697 25.3356 27.203 26.9573C27.4714 27.424 27.973 27.7083 28.5155 27.7083H32.1417C33.1997 27.7083 33.8786 26.5862 33.3689 25.6681Z" fill="#8D9EFF"/>
</svg>
