<svg width="685" height="73" viewBox="0 0 685 73" fill="none" xmlns="http://www.w3.org/2000/svg">
<path d="M1.06534 58L-0.907655 57.6725L-1.29406 60H1.06534V58ZM8.30966 14.3636V12.3636H6.61432L6.33666 14.0361L8.30966 14.3636ZM33.5795 15.7912L32.7162 17.5952L32.7212 17.5976L33.5795 15.7912ZM37.777 19.7543L35.9673 20.6059L35.9701 20.6117L37.777 19.7543ZM38.4162 25.5497L40.3863 25.8945L40.3883 25.8827L38.4162 25.5497ZM36.6051 30.0241L34.9752 28.8651L34.9709 28.8711L34.9667 28.8772L36.6051 30.0241ZM33.2812 33.1776L32.2229 31.4805L33.2812 33.1776ZM28.9773 34.9247L28.5472 32.9715L27.2722 33.2522L27.0161 34.5325L28.9773 34.9247ZM28.892 35.3509L26.9309 34.9586L26.4729 37.2484L28.8059 37.349L28.892 35.3509ZM33.3452 36.7571L32.2483 38.4295L32.2546 38.4336L32.2609 38.4377L33.3452 36.7571ZM36.3068 40.3793L34.4617 41.1509L34.4617 41.1509L36.3068 40.3793ZM36.7543 45.9403L38.7274 46.2672L38.7274 46.267L36.7543 45.9403ZM34.0057 52.1406L35.565 53.393L35.5698 53.387L34.0057 52.1406ZM28.2102 56.4233L27.412 54.5895L27.408 54.5912L28.2102 56.4233ZM11.5696 50.4574L9.59584 50.1345L9.21581 52.4574H11.5696V50.4574ZM24.9503 48.9659L26.1367 50.576L26.1367 50.576L24.9503 48.9659ZM27.3793 45.0241L29.3525 45.3502L29.3545 45.3383L29.3563 45.3265L27.3793 45.0241ZM27.017 41.8281L25.1906 42.643L25.1958 42.6547L25.2011 42.6662L27.017 41.8281ZM24.9077 39.6548L23.9625 41.4174L23.9731 41.423L24.9077 39.6548ZM13.4659 38.8665V36.8665H11.7665L11.4921 38.5436L13.4659 38.8665ZM14.5312 32.6236L12.5581 32.2967L12.1726 34.6236H14.5312V32.6236ZM24.8438 31.9631L25.6077 33.8114L25.6199 33.8063L24.8438 31.9631ZM27.5071 30.0455L25.9813 28.7524L25.9793 28.7548L27.5071 30.0455ZM28.8494 27.0838L30.8235 27.4046L30.8241 27.4012L28.8494 27.0838ZM27.7841 23.2699L26.3594 24.6736L26.3698 24.6841L26.3804 24.6945L27.7841 23.2699ZM16.321 21.821V19.821H14.6251L14.3479 21.4941L16.321 21.821ZM3.03834 58.3275L10.2827 14.6912L6.33666 14.0361L-0.907655 57.6725L3.03834 58.3275ZM8.30966 16.3636H25.7812V12.3636H8.30966V16.3636ZM25.7812 16.3636C28.8185 16.3636 31.0913 16.8176 32.7162 17.5952L34.4429 13.9871C32.0905 12.8613 29.1645 12.3636 25.7812 12.3636V16.3636ZM32.7212 17.5976C34.3876 18.3895 35.4043 19.4093 35.9674 20.6059L39.5866 18.9027C38.5588 16.7185 36.7772 15.0963 34.4379 13.9848L32.7212 17.5976ZM35.9701 20.6117C36.5576 21.8497 36.7588 23.3528 36.4441 25.2168L40.3883 25.8827C40.8122 23.3716 40.5873 21.0111 39.5838 18.8968L35.9701 20.6117ZM36.4461 25.205C36.1938 26.6467 35.6946 27.8535 34.9752 28.8651L38.235 31.1832C39.3339 29.638 40.042 27.8618 40.3863 25.8945L36.4461 25.205ZM34.9667 28.8772C34.2258 29.9356 33.3149 30.7995 32.2229 31.4805L34.3396 34.8746C35.8896 33.9079 37.1947 32.6695 38.2436 31.1711L34.9667 28.8772ZM32.2229 31.4805C31.0987 32.1816 29.8772 32.6787 28.5472 32.9715L29.4073 36.8779C31.174 36.4889 32.8217 35.8212 34.3396 34.8746L32.2229 31.4805ZM27.0161 34.5325L26.9309 34.9586L30.8532 35.7431L30.9384 35.3169L27.0161 34.5325ZM28.8059 37.349C30.11 37.4052 31.2422 37.7696 32.2483 38.4295L34.4421 35.0847C32.8061 34.0117 30.9695 33.4385 28.9782 33.3527L28.8059 37.349ZM32.2609 38.4377C33.2157 39.0537 33.9515 39.931 34.4617 41.1509L38.152 39.6076C37.3553 37.7025 36.1167 36.1651 34.4294 35.0765L32.2609 38.4377ZM34.4617 41.1509C34.9342 42.2808 35.092 43.7358 34.7811 45.6137L38.7274 46.267C39.1267 43.8551 38.9863 41.6027 38.152 39.6076L34.4617 41.1509ZM34.7811 45.6135C34.4528 47.5958 33.6758 49.3453 32.4416 50.8942L35.5698 53.387C37.2333 51.2996 38.2887 48.9156 38.7274 46.2672L34.7811 45.6135ZM32.4463 50.8882C31.2269 52.4066 29.5712 53.6496 27.412 54.5895L29.0085 58.2571C31.6788 57.0947 33.8868 55.4826 35.565 53.393L32.4463 50.8882ZM27.408 54.5912C25.3146 55.5079 22.7658 56 19.7088 56V60C23.1859 60 26.3047 59.441 29.0124 58.2554L27.408 54.5912ZM19.7088 56H1.06534V60H19.7088V56ZM11.5696 52.4574H19.0909V48.4574H11.5696V52.4574ZM19.0909 52.4574C21.8633 52.4574 24.3054 51.9254 26.1367 50.576L23.7639 47.3558C22.8963 47.9951 21.4321 48.4574 19.0909 48.4574V52.4574ZM26.1367 50.576C27.8999 49.2768 28.9965 47.505 29.3525 45.3502L25.406 44.6981C25.2223 45.8104 24.6996 46.6664 23.7639 47.3558L26.1367 50.576ZM29.3563 45.3265C29.5881 43.8105 29.4541 42.3357 28.833 40.99L25.2011 42.6662C25.4323 43.1671 25.5397 43.8231 25.4023 44.7218L29.3563 45.3265ZM28.8435 41.0132C28.2287 39.6353 27.1851 38.5964 25.8423 37.8866L23.9731 41.423C24.6189 41.7644 24.9815 42.1744 25.1906 42.643L28.8435 41.0132ZM25.8528 37.8922C24.4975 37.1655 22.9029 36.8665 21.179 36.8665V40.8665C22.4664 40.8665 23.3576 41.093 23.9625 41.4174L25.8528 37.8922ZM21.179 36.8665H13.4659V40.8665H21.179V36.8665ZM11.4921 38.5436L9.59584 50.1345L13.5434 50.7803L15.4397 39.1894L11.4921 38.5436ZM14.5312 34.6236H21.3707V30.6236H14.5312V34.6236ZM21.3707 34.6236C22.8606 34.6236 24.2804 34.3601 25.6077 33.8114L24.0798 30.1147C23.2765 30.4468 22.3809 30.6236 21.3707 30.6236V34.6236ZM25.6199 33.8063C26.9645 33.2402 28.1182 32.4212 29.0349 31.3362L25.9793 28.7548C25.5039 29.3174 24.8821 29.7769 24.0676 30.1198L25.6199 33.8063ZM29.0329 31.3385C29.9897 30.2095 30.5835 28.8818 30.8235 27.4046L26.8753 26.763C26.746 27.5586 26.445 28.2052 25.9813 28.7524L29.0329 31.3385ZM30.8241 27.4012C31.1604 25.3084 30.7053 23.3404 29.1878 21.8452L26.3804 24.6945C26.7947 25.1028 27.0498 25.6774 26.8748 26.7665L30.8241 27.4012ZM29.2087 21.8662C27.7292 20.3646 25.6122 19.821 23.3097 19.821V23.821C25.0696 23.821 25.9355 24.2434 26.3594 24.6736L29.2087 21.8662ZM23.3097 19.821H16.321V23.821H23.3097V19.821ZM14.3479 21.4941L12.5581 32.2967L16.5044 32.9505L18.2941 22.1479L14.3479 21.4941ZM83.9009 29.6406V31.6406H85.8238L85.8994 29.7192L83.9009 29.6406ZM74.6964 29.6406L72.6969 29.5941L72.6493 31.6406H74.6964V29.6406ZM74.2276 26.402L72.3448 27.0764L72.348 27.0855L74.2276 26.402ZM72.6935 23.973L71.2793 25.3872L71.2868 25.3947L71.2943 25.402L72.6935 23.973ZM70.2433 22.4602L69.5531 24.3374L69.5653 24.3419L69.5776 24.3462L70.2433 22.4602ZM60.57 23.6747L61.5971 25.3908L61.5971 25.3908L60.57 23.6747ZM55.6481 28.7457L57.3582 29.7828L57.3611 29.778L55.6481 28.7457ZM52.8782 36.7358L54.8515 37.0616L54.8519 37.0588L52.8782 36.7358ZM52.9634 44.2997L54.893 43.7735L54.893 43.7735L52.9634 44.2997ZM55.9038 48.902L54.7168 50.5117L54.7259 50.5184L54.7352 50.5251L55.9038 48.902ZM64.9379 49.946L65.4719 51.8734L65.4827 51.8704L65.4934 51.8673L64.9379 49.946ZM68.1552 48.4972L69.2417 50.1763L69.2477 50.1724L68.1552 48.4972ZM70.712 46.1747L69.1598 44.9135L69.1538 44.9209L69.1479 44.9283L70.712 46.1747ZM72.4379 43.0852V41.0852H71.0296L70.5549 42.4111L72.4379 43.0852ZM81.7063 43.0852L83.6268 43.6437L84.3707 41.0852H81.7063V43.0852ZM78.979 48.8807L77.313 47.7742L77.3071 47.7831L78.979 48.8807ZM74.4407 53.8665L75.6931 55.4258L75.7005 55.4198L74.4407 53.8665ZM68.283 57.3182L67.5884 55.4427L67.5884 55.4427L68.283 57.3182ZM50.5131 55.8693L49.4312 57.5514L49.435 57.5539L50.5131 55.8693ZM44.3981 48.0071L42.5194 48.6931L42.5194 48.6931L44.3981 48.0071ZM43.695 35.6278L41.7223 35.2981L41.7206 35.3085L43.695 35.6278ZM48.2759 23.7386L46.6375 22.5917L46.6365 22.5932L48.2759 23.7386ZM56.6069 16.3026L55.691 14.5246L55.6878 14.5262L56.6069 16.3026ZM79.5543 17.9432L78.1978 19.4128L78.2051 19.4196L78.2125 19.4263L79.5543 17.9432ZM82.9208 22.9077L81.0538 23.6247L81.0538 23.6247L82.9208 22.9077ZM83.9009 27.6406H74.6964V31.6406H83.9009V27.6406ZM76.6958 29.6871C76.7288 28.2711 76.5499 26.9358 76.1072 25.7185L72.348 27.0855C72.5872 27.7432 72.7208 28.567 72.6969 29.5941L76.6958 29.6871ZM76.1105 25.7275C75.6737 24.5083 75.0036 23.4358 74.0928 22.544L71.2943 25.402C71.7471 25.8454 72.0997 26.3923 72.3448 27.0764L76.1105 25.7275ZM74.1077 22.5588C73.2115 21.6625 72.1321 21.006 70.9089 20.5742L69.5776 24.3462C70.2862 24.5963 70.8404 24.9483 71.2793 25.3872L74.1077 22.5588ZM70.9334 20.5831C69.7118 20.134 68.3862 19.9276 66.9833 19.9276V23.9276C67.9952 23.9276 68.8429 24.0763 69.5531 24.3374L70.9334 20.5831ZM66.9833 19.9276C64.3023 19.9276 61.808 20.6028 59.5428 21.9586L61.5971 25.3908C63.224 24.417 65.0052 23.9276 66.9833 23.9276V19.9276ZM59.5428 21.9586C57.2782 23.3141 55.4154 25.2568 53.935 27.7135L57.3611 29.778C58.5512 27.8029 59.9697 26.3649 61.5971 25.3908L59.5428 21.9586ZM53.938 27.7086C52.4433 30.1733 51.448 33.0914 50.9044 36.4128L54.8519 37.0588C55.3312 34.1302 56.1824 31.7216 57.3582 29.7828L53.938 27.7086ZM50.9049 36.41C50.3803 39.5875 50.3781 42.4214 51.0339 44.826L54.893 43.7735C54.4408 42.1155 54.3818 39.9068 54.8515 37.0616L50.9049 36.41ZM51.0339 44.8259C51.6812 47.1996 52.8781 49.1559 54.7168 50.5117L57.0907 47.2923C56.1169 46.5742 55.3536 45.4624 54.893 43.7735L51.0339 44.8259ZM54.7352 50.5251C56.5621 51.8405 58.7628 52.4361 61.2092 52.4361V48.4361C59.4225 48.4361 58.0863 48.009 57.0724 47.2789L54.7352 50.5251ZM61.2092 52.4361C62.6842 52.4361 64.1076 52.2515 65.4719 51.8734L64.4038 48.0187C63.4102 48.294 62.3478 48.4361 61.2092 48.4361V52.4361ZM65.4934 51.8673C66.8477 51.4757 68.101 50.9144 69.2417 50.1763L67.0687 46.818C66.2776 47.3299 65.3859 47.7345 64.3823 48.0247L65.4934 51.8673ZM69.2477 50.1724C70.4057 49.4172 71.4175 48.4986 72.2761 47.4211L69.1479 44.9283C68.5576 45.669 67.8649 46.2988 67.0626 46.8219L69.2477 50.1724ZM72.2642 47.4359C73.1516 46.3437 73.836 45.1136 74.3208 43.7594L70.5549 42.4111C70.2159 43.358 69.7496 44.1875 69.1598 44.9135L72.2642 47.4359ZM72.4379 45.0852H81.7063V41.0852H72.4379V45.0852ZM79.7859 42.5268C79.2639 44.3218 78.4447 46.0702 77.313 47.7742L80.6451 49.9871C81.985 47.9696 82.984 45.8543 83.6268 43.6437L79.7859 42.5268ZM77.3071 47.7831C76.2035 49.4643 74.8318 50.9742 73.1809 52.3131L75.7005 55.4198C77.6575 53.8327 79.3115 52.0187 80.651 49.9783L77.3071 47.7831ZM73.1883 52.3071C71.562 53.6134 69.7001 54.6606 67.5884 55.4427L68.9777 59.1937C71.4682 58.2712 73.7115 57.0173 75.6931 55.4258L73.1883 52.3071ZM67.5884 55.4427C65.5341 56.2035 63.2511 56.5966 60.7191 56.5966V60.5966C63.6701 60.5966 66.4297 60.1374 68.9777 59.1937L67.5884 55.4427ZM60.7191 56.5966C57.0701 56.5966 54.0574 55.7631 51.5912 54.1848L49.435 57.5539C52.6507 59.6119 56.4419 60.5966 60.7191 60.5966V56.5966ZM51.5951 54.1872C49.1671 52.6255 47.3904 50.371 46.2768 47.3211L42.5194 48.6931C43.9058 52.4898 46.2058 55.4767 49.4312 57.5514L51.5951 54.1872ZM46.2768 47.3211C45.1775 44.3107 44.9247 40.5503 45.6693 35.9472L41.7206 35.3085C40.9027 40.3645 41.1186 44.8569 42.5194 48.6931L46.2768 47.3211ZM45.6676 35.9576C46.4092 31.5214 47.8429 27.8504 49.9154 24.8841L46.6365 22.5932C44.1635 26.1325 42.5432 30.3877 41.7223 35.2981L45.6676 35.9576ZM49.9144 24.8856C52.0319 21.8606 54.5698 19.6084 57.5259 18.0789L55.6878 14.5262C52.1099 16.3774 49.0938 19.0826 46.6375 22.5917L49.9144 24.8856ZM57.5228 18.0805C60.5172 16.5379 63.7113 15.767 67.1325 15.767V11.767C63.082 11.767 59.259 12.6865 55.691 14.5246L57.5228 18.0805ZM67.1325 15.767C69.5507 15.767 71.6808 16.0974 73.5449 16.7272L74.8251 12.9376C72.4847 12.1469 69.9131 11.767 67.1325 11.767V15.767ZM73.5449 16.7272C75.4089 17.3569 76.9473 18.2585 78.1978 19.4128L80.9109 16.4736C79.2068 14.9006 77.1656 13.7283 74.8251 12.9376L73.5449 16.7272ZM78.2125 19.4263C79.4609 20.5557 80.4084 21.9442 81.0538 23.6247L84.7878 22.1906C83.9276 19.9507 82.6307 18.0295 80.8962 16.4601L78.2125 19.4263ZM81.0538 23.6247C81.6914 25.285 81.9934 27.2505 81.9025 29.562L85.8994 29.7192C86.0073 26.9739 85.6559 24.4508 84.7878 22.1906L81.0538 23.6247ZM85.8505 58L83.8775 57.6725L83.4911 60H85.8505V58ZM93.0948 14.3636V12.3636H91.3995L91.1218 14.0361L93.0948 14.3636ZM122.498 14.3636L124.471 14.6951L124.862 12.3636H122.498V14.3636ZM121.22 21.9702V23.9702H122.912L123.192 22.3017L121.22 21.9702ZM101.042 21.9702V19.9702H99.3434L99.0686 21.6466L101.042 21.9702ZM99.3377 32.3679L97.3641 32.0443L96.9831 34.3679H99.3377V32.3679ZM118.002 32.3679L119.975 32.6994L120.367 30.3679H118.002V32.3679ZM116.724 39.9744V41.9744H118.416L118.696 40.3059L116.724 39.9744ZM98.0593 39.9744V37.9744H96.3599L96.0855 39.6515L98.0593 39.9744ZM96.3548 50.3935L94.381 50.0706L94.001 52.3935H96.3548V50.3935ZM116.618 50.3935L118.59 50.725L118.982 48.3935H116.618V50.3935ZM115.339 58V60H117.031L117.311 58.3315L115.339 58ZM87.8235 58.3275L95.0678 14.6912L91.1218 14.0361L83.8775 57.6725L87.8235 58.3275ZM93.0948 16.3636H122.498V12.3636H93.0948V16.3636ZM120.526 14.0321L119.247 21.6387L123.192 22.3017L124.471 14.6951L120.526 14.0321ZM121.22 19.9702H101.042V23.9702H121.22V19.9702ZM99.0686 21.6466L97.3641 32.0443L101.311 32.6914L103.016 22.2937L99.0686 21.6466ZM99.3377 34.3679H118.002V30.3679H99.3377V34.3679ZM116.03 32.0364L114.752 39.6429L118.696 40.3059L119.975 32.6994L116.03 32.0364ZM116.724 37.9744H98.0593V41.9744H116.724V37.9744ZM96.0855 39.6515L94.381 50.0706L98.3285 50.7164L100.033 40.2973L96.0855 39.6515ZM96.3548 52.3935H116.618V48.3935H96.3548V52.3935ZM114.645 50.062L113.367 57.6685L117.311 58.3315L118.59 50.725L114.645 50.062ZM115.339 56H85.8505V60H115.339V56ZM143.72 14.3636V12.3636H142.024L141.747 14.0361L143.72 14.3636ZM152.924 14.3636L154.897 14.6914L155.284 12.3636H152.924V14.3636ZM148.365 41.8068L146.392 41.479L146.005 43.8068H148.365V41.8068ZM148.748 41.8068V43.8068H149.671L150.27 43.1043L148.748 41.8068ZM172.143 14.3636V12.3636H171.22L170.621 13.0661L172.143 14.3636ZM180.218 14.3636L182.191 14.6912L182.578 12.3636H180.218V14.3636ZM172.974 58V60H174.669L174.947 58.3275L172.974 58ZM163.748 58L161.775 57.6724L161.389 60H163.748V58ZM168.308 30.5355L170.281 30.8631L170.667 28.5355H168.308V30.5355ZM167.988 30.5355V28.5355H167.068L166.469 29.2345L167.988 30.5355ZM144.466 58V60H145.386L145.985 59.301L144.466 58ZM136.475 58L134.503 57.6725L134.116 60H136.475V58ZM143.72 16.3636H152.924V12.3636H143.72V16.3636ZM150.951 14.0358L146.392 41.479L150.338 42.1346L154.897 14.6914L150.951 14.0358ZM148.365 43.8068H148.748V39.8068H148.365V43.8068ZM150.27 43.1043L173.665 15.6611L170.621 13.0661L147.226 40.5093L150.27 43.1043ZM172.143 16.3636H180.218V12.3636H172.143V16.3636ZM178.245 14.0361L171.001 57.6725L174.947 58.3275L182.191 14.6912L178.245 14.0361ZM172.974 56H163.748V60H172.974V56ZM165.721 58.3276L170.281 30.8631L166.335 30.208L161.775 57.6724L165.721 58.3276ZM168.308 28.5355H167.988V32.5355H168.308V28.5355ZM166.469 29.2345L142.947 56.699L145.985 59.301L169.507 31.8365L166.469 29.2345ZM144.466 56H136.475V60H144.466V56ZM138.448 58.3275L145.693 14.6912L141.747 14.0361L134.503 57.6725L138.448 58.3275ZM216.797 14.3636L218.769 14.6951L219.161 12.3636H216.797V14.3636ZM215.518 21.9702V23.9702H217.21L217.491 22.3017L215.518 21.9702ZM195.788 21.9702V19.9702H194.092L193.815 21.6435L195.788 21.9702ZM189.822 58V60H191.519L191.796 58.3267L189.822 58ZM180.597 58L178.624 57.6725L178.237 60H180.597V58ZM187.841 14.3636V12.3636H186.146L185.868 14.0361L187.841 14.3636ZM214.825 14.0321L213.546 21.6387L217.491 22.3017L218.769 14.6951L214.825 14.0321ZM215.518 19.9702H195.788V23.9702H215.518V19.9702ZM193.815 21.6435L187.849 57.6733L191.796 58.3267L197.761 22.2969L193.815 21.6435ZM189.822 56H180.597V60H189.822V56ZM182.57 58.3275L189.814 14.6912L185.868 14.0361L178.624 57.6725L182.57 58.3275ZM187.841 16.3636H216.797V12.3636H187.841V16.3636ZM215.46 58L213.487 57.6725L213.1 60H215.46V58ZM222.704 14.3636V12.3636H221.009L220.731 14.0361L222.704 14.3636ZM248.038 16.2599L247.012 17.977L247.019 17.981L247.026 17.985L248.038 16.2599ZM252.512 21.4801L250.644 22.1941L250.647 22.2013L250.65 22.2085L252.512 21.4801ZM253.109 29.1506L255.082 29.4778L255.083 29.4699L253.109 29.1506ZM249.956 36.8423L248.341 35.6623L248.339 35.6641L249.956 36.8423ZM243.691 41.9986L244.558 43.8012L244.558 43.8012L243.691 41.9986ZM223.812 43.8523L221.839 43.5281L221.457 45.8523H223.812V43.8523ZM225.027 36.4588V34.4588H223.328L223.053 36.1346L225.027 36.4588ZM239.089 35.5426L239.959 37.3435L239.968 37.3394L239.089 35.5426ZM242.136 32.9645L243.783 34.0985L243.79 34.0885L242.136 32.9645ZM243.606 29.1506L241.633 28.8249L241.631 28.8376L243.606 29.1506ZM243.372 25.3366L245.248 24.6452L245.248 24.6452L243.372 25.3366ZM241.177 22.8224L240.172 24.5517L240.186 24.5597L240.2 24.5675L241.177 22.8224ZM230.716 21.9062V19.9062H229.022L228.743 21.5767L230.716 21.9062ZM224.686 58V60H226.379L226.658 58.3296L224.686 58ZM217.433 58.3275L224.677 14.6912L220.731 14.0361L213.487 57.6725L217.433 58.3275ZM222.704 16.3636H239.92V12.3636H222.704V16.3636ZM239.92 16.3636C242.972 16.3636 245.294 16.9503 247.012 17.977L249.064 14.5429C246.55 13.0412 243.459 12.3636 239.92 12.3636V16.3636ZM247.026 17.985C248.779 19.0137 249.96 20.4042 250.644 22.1941L254.381 20.7661C253.36 18.0958 251.558 16.0062 249.05 14.5349L247.026 17.985ZM250.65 22.2085C251.359 24.0217 251.56 26.2044 251.135 28.8312L255.083 29.4699C255.596 26.3013 255.399 23.3703 254.375 20.7518L250.65 22.2085ZM251.136 28.8233C250.7 31.4507 249.762 33.7175 248.341 35.6623L251.57 38.0224C253.388 35.5353 254.552 32.6743 255.082 29.4778L251.136 28.8233ZM248.339 35.6641C246.938 37.5863 245.113 39.0963 242.825 40.196L244.558 43.8012C247.412 42.4293 249.763 40.5017 251.572 38.0205L248.339 35.6641ZM242.825 40.196C240.569 41.2805 237.905 41.8523 234.785 41.8523V45.8523C238.398 45.8523 241.672 45.1883 244.558 43.8012L242.825 40.196ZM234.785 41.8523H223.812V45.8523H234.785V41.8523ZM225.786 44.1765L227 36.783L223.053 36.1346L221.839 43.5281L225.786 44.1765ZM225.027 38.4588H234.508V34.4588H225.027V38.4588ZM234.508 38.4588C236.519 38.4588 238.36 38.1162 239.959 37.3434L238.219 33.7418C237.29 34.1906 236.077 34.4588 234.508 34.4588V38.4588ZM239.968 37.3394C241.532 36.5745 242.822 35.4959 243.783 34.0985L240.489 31.8305C239.945 32.6206 239.203 33.2608 238.211 33.7458L239.968 37.3394ZM243.79 34.0885C244.722 32.7171 245.312 31.164 245.582 29.4635L241.631 28.8376C241.446 30.0065 241.056 30.996 240.482 31.8404L243.79 34.0885ZM245.579 29.4763C245.861 27.7679 245.796 26.1305 245.248 24.6452L241.495 26.0281C241.743 26.7018 241.834 27.6071 241.633 28.8249L245.579 29.4763ZM245.248 24.6452C244.675 23.0897 243.608 21.8914 242.154 21.0774L240.2 24.5675C240.877 24.9467 241.273 25.4245 241.495 26.0281L245.248 24.6452ZM242.182 21.0932C240.717 20.2417 238.914 19.9062 236.937 19.9062V23.9062C238.512 23.9062 239.535 24.1816 240.172 24.5517L242.182 21.0932ZM236.937 19.9062H230.716V23.9062H236.937V19.9062ZM228.743 21.5767L222.713 57.6704L226.658 58.3296L232.688 22.2358L228.743 21.5767ZM224.686 56H215.46V60H224.686V56ZM264.556 30.4929V28.4929H262.862L262.583 30.1641L264.556 30.4929ZM283.626 32.1761L282.753 33.9759L282.76 33.9791L282.767 33.9823L283.626 32.1761ZM288.654 36.8849L286.868 37.7844L286.873 37.7943L288.654 36.8849ZM289.506 44.0653L287.535 43.7299L287.533 43.7382L289.506 44.0653ZM286.246 51.331L287.791 52.602L287.795 52.5969L286.246 51.331ZM279.599 56.2315L278.802 54.3972L278.798 54.3988L279.599 56.2315ZM254.052 58L252.079 57.6725L251.692 60H254.052V58ZM261.296 14.3636V12.3636H259.601L259.323 14.0361L261.296 14.3636ZM270.522 14.3636L272.495 14.6909L272.881 12.3636H270.522V14.3636ZM264.513 50.5852L262.54 50.2579L262.154 52.5852H264.513V50.5852ZM275.934 49.6903L276.803 51.4915L276.812 51.4873L275.934 49.6903ZM278.938 47.2827L277.346 46.0719L277.344 46.0754L278.938 47.2827ZM280.366 43.9801L278.395 43.6408L278.392 43.6575L278.389 43.6742L280.366 43.9801ZM279.13 39.5909L277.665 40.9525L277.673 40.9611L279.13 39.5909ZM263.342 37.7798L261.369 37.451L260.981 39.7798H263.342V37.7798ZM307.575 14.3636L309.548 14.6912L309.934 12.3636H307.575V14.3636ZM300.33 58V60H302.026L302.303 58.3275L300.33 58ZM291.126 58L289.153 57.6725L288.766 60H291.126V58ZM298.37 14.3636V12.3636H296.675L296.397 14.0361L298.37 14.3636ZM264.556 32.4929H274.954V28.4929H264.556V32.4929ZM274.954 32.4929C278.217 32.4929 280.787 33.023 282.753 33.9759L284.498 30.3764C281.833 29.0849 278.622 28.4929 274.954 28.4929V32.4929ZM282.767 33.9823C284.752 34.9263 286.071 36.2025 286.868 37.7844L290.44 35.9855C289.191 33.5048 287.159 31.6419 284.485 30.37L282.767 33.9823ZM286.873 37.7943C287.673 39.3621 287.948 41.301 287.535 43.73L291.478 44.4007C292.002 41.3183 291.709 38.4703 290.435 35.9756L286.873 37.7943ZM287.533 43.7382C287.135 46.1435 286.19 48.2398 284.698 50.0651L287.795 52.5969C289.74 50.2176 290.969 47.4702 291.479 44.3925L287.533 43.7382ZM284.702 50.0599C283.203 51.8815 281.252 53.3323 278.802 54.3972L280.396 58.0658C283.371 56.7729 285.853 54.9566 287.791 52.602L284.702 50.0599ZM278.798 54.3988C276.391 55.4501 273.596 56 270.373 56V60C274.053 60 277.408 59.3709 280.399 58.0643L278.798 54.3988ZM270.373 56H254.052V60H270.373V56ZM256.025 58.3275L263.269 14.6912L259.323 14.0361L252.079 57.6725L256.025 58.3275ZM261.296 16.3636H270.522V12.3636H261.296V16.3636ZM268.549 14.0363L262.54 50.2579L266.487 50.9125L272.495 14.6909L268.549 14.0363ZM264.513 52.5852H271.609V48.5852H264.513V52.5852ZM271.609 52.5852C273.498 52.5852 275.247 52.2426 276.803 51.4914L275.064 47.8892C274.149 48.3312 273.015 48.5852 271.609 48.5852V52.5852ZM276.812 51.4873C278.311 50.7549 279.57 49.762 280.533 48.4899L277.344 46.0754C276.801 46.792 276.057 47.4042 275.056 47.8934L276.812 51.4873ZM280.53 48.4934C281.488 47.2335 282.104 45.8245 282.342 44.286L278.389 43.6742C278.258 44.5221 277.922 45.3148 277.346 46.0719L280.53 48.4934ZM282.337 44.3194C282.733 42.0204 282.175 39.9091 280.587 38.2207L277.673 40.9611C278.329 41.6591 278.596 42.474 278.395 43.6408L282.337 44.3194ZM280.595 38.2293C278.94 36.4484 276.489 35.7798 273.739 35.7798V39.7798C275.933 39.7798 277.076 40.3186 277.665 40.9525L280.595 38.2293ZM273.739 35.7798H263.342V39.7798H273.739V35.7798ZM265.314 38.1086L266.529 30.8217L262.583 30.1641L261.369 37.451L265.314 38.1086ZM305.602 14.0361L298.357 57.6725L302.303 58.3275L309.548 14.6912L305.602 14.0361ZM300.33 56H291.126V60H300.33V56ZM293.099 58.3275L300.343 14.6912L296.397 14.0361L289.153 57.6725L293.099 58.3275ZM298.37 16.3636H307.575V12.3636H298.37V16.3636ZM329.052 14.3636V12.3636H327.357L327.079 14.0361L329.052 14.3636ZM338.256 14.3636L340.229 14.6914L340.616 12.3636H338.256V14.3636ZM333.697 41.8068L331.724 41.479L331.337 43.8068H333.697V41.8068ZM334.08 41.8068V43.8068H335.003L335.602 43.1043L334.08 41.8068ZM357.475 14.3636V12.3636H356.552L355.953 13.0661L357.475 14.3636ZM365.55 14.3636L367.523 14.6912L367.91 12.3636H365.55V14.3636ZM358.306 58V60H360.001L360.279 58.3275L358.306 58ZM349.08 58L347.107 57.6724L346.721 60H349.08V58ZM353.64 30.5355L355.613 30.8631L355.999 28.5355H353.64V30.5355ZM353.32 30.5355V28.5355H352.4L351.801 29.2345L353.32 30.5355ZM329.798 58V60H330.718L331.317 59.301L329.798 58ZM321.808 58L319.835 57.6725L319.448 60H321.808V58ZM329.052 16.3636H338.256V12.3636H329.052V16.3636ZM336.283 14.0358L331.724 41.479L335.67 42.1346L340.229 14.6914L336.283 14.0358ZM333.697 43.8068H334.08V39.8068H333.697V43.8068ZM335.602 43.1043L358.997 15.6611L355.953 13.0661L332.558 40.5093L335.602 43.1043ZM357.475 16.3636H365.55V12.3636H357.475V16.3636ZM363.577 14.0361L356.333 57.6725L360.279 58.3275L367.523 14.6912L363.577 14.0361ZM358.306 56H349.08V60H358.306V56ZM351.053 58.3276L355.613 30.8631L351.667 30.208L347.107 57.6724L351.053 58.3276ZM353.64 28.5355H353.32V32.5355H353.64V28.5355ZM351.801 29.2345L328.279 56.699L331.317 59.301L354.839 31.8365L351.801 29.2345ZM329.798 56H321.808V60H329.798V56ZM323.781 58.3275L331.025 14.6912L327.079 14.0361L319.835 57.6725L323.781 58.3275ZM424.155 14.3636L426.128 14.6912L426.514 12.3636H424.155V14.3636ZM416.911 58V60H418.606L418.884 58.3275L416.911 58ZM407.791 58L405.818 57.6708L405.43 60H407.791V58ZM413.821 21.8636L415.794 22.1928L416.182 19.8636H413.821V21.8636ZM396.179 21.8636V19.8636H394.485L394.206 21.5345L396.179 21.8636ZM390.149 58V60H391.843L392.122 58.3292L390.149 58ZM381.03 58L379.057 57.6725L378.67 60H381.03V58ZM388.274 14.3636V12.3636H386.579L386.301 14.0361L388.274 14.3636ZM422.182 14.0361L414.938 57.6725L418.884 58.3275L426.128 14.6912L422.182 14.0361ZM416.911 56H407.791V60H416.911V56ZM409.764 58.3292L415.794 22.1928L411.848 21.5345L405.818 57.6708L409.764 58.3292ZM413.821 19.8636H396.179V23.8636H413.821V19.8636ZM394.206 21.5345L388.176 57.6708L392.122 58.3292L398.152 22.1928L394.206 21.5345ZM390.149 56H381.03V60H390.149V56ZM383.003 58.3275L390.247 14.6912L386.301 14.0361L379.057 57.6725L383.003 58.3275ZM388.274 16.3636H424.155V12.3636H388.274V16.3636ZM425.694 58L423.721 57.6725L423.335 60H425.694V58ZM432.939 14.3636V12.3636H431.243L430.966 14.0361L432.939 14.3636ZM458.272 16.2599L457.247 17.977L457.254 17.981L457.26 17.985L458.272 16.2599ZM462.747 21.4801L460.879 22.1941L460.881 22.2013L460.884 22.2085L462.747 21.4801ZM463.343 29.1506L465.316 29.4778L465.318 29.4699L463.343 29.1506ZM460.19 36.8423L458.575 35.6623L458.574 35.6641L460.19 36.8423ZM453.926 41.9986L454.792 43.8012L454.792 43.8012L453.926 41.9986ZM434.047 43.8523L432.073 43.5281L431.691 45.8523H434.047V43.8523ZM435.261 36.4588V34.4588H433.563L433.287 36.1346L435.261 36.4588ZM449.324 35.5426L450.194 37.3435L450.202 37.3394L449.324 35.5426ZM452.37 32.9645L454.018 34.0985L454.025 34.0885L452.37 32.9645ZM453.841 29.1506L451.867 28.8249L451.865 28.8376L453.841 29.1506ZM453.606 25.3366L455.483 24.6452L455.483 24.6452L453.606 25.3366ZM451.412 22.8224L450.407 24.5517L450.42 24.5597L450.434 24.5675L451.412 22.8224ZM440.95 21.9062V19.9062H439.256L438.977 21.5767L440.95 21.9062ZM434.92 58V60H436.614L436.893 58.3296L434.92 58ZM427.667 58.3275L434.912 14.6912L430.966 14.0361L423.721 57.6725L427.667 58.3275ZM432.939 16.3636H450.154V12.3636H432.939V16.3636ZM450.154 16.3636C453.207 16.3636 455.528 16.9503 457.247 17.977L459.298 14.5429C456.784 13.0412 453.693 12.3636 450.154 12.3636V16.3636ZM457.26 17.985C459.014 19.0137 460.195 20.4042 460.879 22.1941L464.615 20.7661C463.595 18.0958 461.792 16.0062 459.284 14.5349L457.26 17.985ZM460.884 22.2085C461.593 24.0217 461.794 26.2044 461.369 28.8312L465.318 29.4699C465.83 26.3013 465.633 23.3703 464.609 20.7518L460.884 22.2085ZM461.37 28.8233C460.935 31.4507 459.996 33.7175 458.575 35.6623L461.805 38.0224C463.622 35.5353 464.786 32.6743 465.316 29.4778L461.37 28.8233ZM458.574 35.6641C457.173 37.5863 455.347 39.0963 453.059 40.196L454.792 43.8012C457.646 42.4293 459.997 40.5017 461.806 38.0205L458.574 35.6641ZM453.059 40.196C450.803 41.2805 448.14 41.8523 445.02 41.8523V45.8523C448.632 45.8523 451.906 45.1883 454.792 43.8012L453.059 40.196ZM445.02 41.8523H434.047V45.8523H445.02V41.8523ZM436.02 44.1765L437.235 36.783L433.287 36.1346L432.073 43.5281L436.02 44.1765ZM435.261 38.4588H444.743V34.4588H435.261V38.4588ZM444.743 38.4588C446.753 38.4588 448.594 38.1162 450.194 37.3434L448.453 33.7418C447.525 34.1906 446.311 34.4588 444.743 34.4588V38.4588ZM450.202 37.3394C451.767 36.5745 453.056 35.4959 454.018 34.0985L450.723 31.8305C450.179 32.6206 449.437 33.2608 448.445 33.7458L450.202 37.3394ZM454.025 34.0885C454.957 32.7171 455.547 31.164 455.816 29.4635L451.865 28.8376C451.68 30.0065 451.29 30.996 450.716 31.8404L454.025 34.0885ZM455.814 29.4763C456.096 27.7679 456.03 26.1305 455.483 24.6452L451.729 26.0281C451.978 26.7018 452.068 27.6071 451.867 28.8249L455.814 29.4763ZM455.483 24.6452C454.91 23.0897 453.842 21.8914 452.389 21.0774L450.434 24.5675C451.112 24.9467 451.507 25.4245 451.729 26.0281L455.483 24.6452ZM452.416 21.0932C450.951 20.2417 449.148 19.9062 447.172 19.9062V23.9062C448.746 23.9062 449.77 24.1816 450.407 24.5517L452.416 21.0932ZM447.172 19.9062H440.95V23.9062H447.172V19.9062ZM438.977 21.5767L432.947 57.6704L436.893 58.3296L442.923 22.2358L438.977 21.5767ZM434.92 56H425.694V60H434.92V56ZM508.178 36.7784L510.15 37.115L510.152 37.1025L508.178 36.7784ZM503.555 48.6463L501.919 47.496L501.915 47.5008L503.555 48.6463ZM495.224 56.0611L494.308 54.2831L494.305 54.2848L495.224 56.0611ZM474.407 55.8906L473.339 57.5814L473.342 57.5838L474.407 55.8906ZM468.207 48.071L466.333 48.7707L466.334 48.7733L468.207 48.071ZM467.482 35.6918L469.456 36.0168L469.456 36.0157L467.482 35.6918ZM472.063 23.8026L473.699 24.9528L473.702 24.9495L472.063 23.8026ZM480.437 16.3452L481.356 18.1216L481.362 18.1185L480.437 16.3452ZM501.254 16.4943L500.179 18.1813L500.183 18.1837L501.254 16.4943ZM507.454 24.3778L505.577 25.0682L505.58 25.0775L507.454 24.3778ZM498.995 35.6918L500.968 36.0206L500.968 36.019L498.995 35.6918ZM498.931 28.1491L496.994 28.6469L496.996 28.6548L496.998 28.6628L498.931 28.1491ZM496.033 23.5043L497.231 21.9023L497.231 21.9023L496.033 23.5043ZM484.293 23.6747L483.266 21.9586L483.261 21.962L484.293 23.6747ZM479.393 28.7457L477.68 27.7135L477.678 27.7167L479.393 28.7457ZM476.644 36.7784L478.616 37.1132L478.617 37.1059L478.618 37.0986L476.644 36.7784ZM476.687 44.321L474.755 44.8381L474.758 44.8507L476.687 44.321ZM479.648 48.902L478.469 50.5174L478.478 50.524L478.487 50.5305L479.648 48.902ZM491.346 48.7315L492.365 50.4521L492.369 50.4499L491.346 48.7315ZM496.225 43.7244L497.937 44.7583L497.94 44.7534L496.225 43.7244ZM506.207 36.4418C505.452 40.8628 504.005 44.5277 501.919 47.496L505.191 49.7966C507.678 46.2592 509.314 42.0122 510.15 37.115L506.207 36.4418ZM501.915 47.5008C499.814 50.5077 497.279 52.7527 494.308 54.2831L496.14 57.839C499.731 55.9887 502.75 53.2906 505.194 49.7918L501.915 47.5008ZM494.305 54.2848C491.33 55.824 488.123 56.5966 484.656 56.5966V60.5966C488.745 60.5966 492.584 59.6788 496.143 57.8374L494.305 54.2848ZM484.656 56.5966C481.004 56.5966 477.971 55.769 475.471 54.1975L473.342 57.5838C476.581 59.6202 480.381 60.5966 484.656 60.5966V56.5966ZM475.475 54.1998C473.018 52.6475 471.217 50.4033 470.079 47.3688L466.334 48.7733C467.753 52.5569 470.085 55.5258 473.339 57.5814L475.475 54.1998ZM470.08 47.3713C468.959 44.3677 468.698 40.6147 469.456 36.0168L465.509 35.3667C464.675 40.4279 464.898 44.9278 466.333 48.7707L470.08 47.3713ZM469.456 36.0157C470.183 31.5835 471.616 27.9165 473.699 24.9528L470.427 22.6523C467.937 26.1943 466.315 30.4534 465.509 35.3678L469.456 36.0157ZM473.702 24.9495C475.817 21.927 478.369 19.6666 481.356 18.1216L479.518 14.5687C475.914 16.4329 472.883 19.144 470.425 22.6556L473.702 24.9495ZM481.362 18.1185C484.366 16.5518 487.591 15.767 491.069 15.767V11.767C486.961 11.767 483.099 12.7011 479.512 14.5719L481.362 18.1185ZM491.069 15.767C494.686 15.767 497.695 16.599 500.179 18.1813L502.328 14.8073C499.102 12.7533 495.321 11.767 491.069 11.767V15.767ZM500.183 18.1837C502.651 19.7477 504.452 22.0089 505.577 25.0682L509.331 23.6875C507.928 19.8717 505.594 16.8773 502.324 14.8049L500.183 18.1837ZM505.58 25.0775C506.702 28.0808 506.962 31.8409 506.205 36.4543L510.152 37.1025C510.985 32.0285 510.763 27.5215 509.327 23.6782L505.58 25.0775ZM500.968 36.019C501.493 32.857 501.502 30.035 500.864 27.6355L496.998 28.6628C497.44 30.3258 497.492 32.5322 497.022 35.3645L500.968 36.019ZM500.868 27.6514C500.253 25.2572 499.072 23.2788 497.231 21.9023L494.836 25.1062C495.807 25.832 496.558 26.9502 496.994 28.6469L500.868 27.6514ZM497.231 21.9023C495.408 20.5398 493.185 19.9276 490.707 19.9276V23.9276C492.518 23.9276 493.846 24.3665 494.836 25.1062L497.231 21.9023ZM490.707 19.9276C488.026 19.9276 485.531 20.6028 483.266 21.9586L485.32 25.3908C486.947 24.417 488.729 23.9276 490.707 23.9276V19.9276ZM483.261 21.962C481.011 23.3181 479.158 25.26 477.68 27.7135L481.106 29.778C482.298 27.7996 483.712 26.3609 485.326 25.3875L483.261 21.962ZM477.678 27.7167C476.199 30.1822 475.212 33.1133 474.67 36.4583L478.618 37.0986C479.099 34.1367 479.945 31.7127 481.108 29.7747L477.678 27.7167ZM474.672 36.4436C474.133 39.6178 474.114 42.4453 474.755 44.838L478.619 43.804C478.18 42.1626 478.132 39.9617 478.616 37.1132L474.672 36.4436ZM474.758 44.8507C475.408 47.2181 476.617 49.1656 478.469 50.5174L480.828 47.2866C479.839 46.5645 479.073 45.458 478.615 43.7913L474.758 44.8507ZM478.487 50.5305C480.327 51.8418 482.538 52.4361 484.996 52.4361V48.4361C483.193 48.4361 481.839 48.0077 480.809 47.2734L478.487 50.5305ZM484.996 52.4361C487.656 52.4361 490.127 51.7787 492.365 50.4521L490.326 47.011C488.73 47.9571 486.968 48.4361 484.996 48.4361V52.4361ZM492.369 50.4499C494.62 49.1094 496.47 47.1882 497.937 44.7583L494.513 42.6905C493.338 44.6356 491.935 46.0525 490.322 47.0132L492.369 50.4499ZM497.94 44.7534C499.418 42.291 500.411 39.363 500.968 36.0206L497.022 35.363C496.528 38.3274 495.675 40.7545 494.51 42.6954L497.94 44.7534ZM511.475 58L509.503 57.6725L509.116 60H511.475V58ZM518.72 14.3636V12.3636H517.024L516.747 14.0361L518.72 14.3636ZM548.123 14.3636L550.096 14.6951L550.487 12.3636H548.123V14.3636ZM546.845 21.9702V23.9702H548.537L548.817 22.3017L546.845 21.9702ZM526.667 21.9702V19.9702H524.968L524.694 21.6466L526.667 21.9702ZM524.963 32.3679L522.989 32.0443L522.608 34.3679H524.963V32.3679ZM543.627 32.3679L545.6 32.6994L545.992 30.3679H543.627V32.3679ZM542.349 39.9744V41.9744H544.041L544.321 40.3059L542.349 39.9744ZM523.684 39.9744V37.9744H521.985L521.711 39.6515L523.684 39.9744ZM521.98 50.3935L520.006 50.0706L519.626 52.3935H521.98V50.3935ZM542.243 50.3935L544.215 50.725L544.607 48.3935H542.243V50.3935ZM540.964 58V60H542.656L542.936 58.3315L540.964 58ZM513.448 58.3275L520.693 14.6912L516.747 14.0361L509.503 57.6725L513.448 58.3275ZM518.72 16.3636H548.123V12.3636H518.72V16.3636ZM546.151 14.0321L544.872 21.6387L548.817 22.3017L550.096 14.6951L546.151 14.0321ZM546.845 19.9702H526.667V23.9702H546.845V19.9702ZM524.694 21.6466L522.989 32.0443L526.936 32.6914L528.641 22.2937L524.694 21.6466ZM524.963 34.3679H543.627V30.3679H524.963V34.3679ZM541.655 32.0364L540.377 39.6429L544.321 40.3059L545.6 32.6994L541.655 32.0364ZM542.349 37.9744H523.684V41.9744H542.349V37.9744ZM521.711 39.6515L520.006 50.0706L523.954 50.7164L525.658 40.2973L521.711 39.6515ZM521.98 52.3935H542.243V48.3935H521.98V52.3935ZM540.27 50.062L538.992 57.6685L542.936 58.3315L544.215 50.725L540.27 50.062ZM540.964 56H511.475V60H540.964V56ZM574.613 58L572.889 59.0133L573.468 60H574.613V58ZM563.683 39.3991L565.407 38.3859L564.827 37.3991H563.683V39.3991ZM560.529 39.3991V37.3991H558.834L558.556 39.0714L560.529 39.3991ZM557.44 58V60H559.135L559.413 58.3277L557.44 58ZM548.214 58L546.241 57.6725L545.854 60H548.214V58ZM555.458 14.3636V12.3636H553.763L553.485 14.0361L555.458 14.3636ZM564.684 14.3636L566.657 14.6917L567.044 12.3636H564.684V14.3636ZM561.786 31.7926L559.813 31.4646L559.426 33.7926H561.786V31.7926ZM563.64 31.7926V33.7926H564.47L565.056 33.2051L563.64 31.7926ZM581.026 14.3636V12.3636H580.196L579.61 12.9512L581.026 14.3636ZM592.511 14.3636L593.92 15.7823L597.361 12.3636H592.511V14.3636ZM572.141 34.6051L570.732 33.1865L569.625 34.2863L570.422 35.6274L572.141 34.6051ZM586.055 58V60H589.571L587.774 56.9777L586.055 58ZM576.337 56.9867L565.407 38.3859L561.958 40.4124L572.889 59.0133L576.337 56.9867ZM563.683 37.3991H560.529V41.3991H563.683V37.3991ZM558.556 39.0714L555.467 57.6723L559.413 58.3277L562.502 39.7268L558.556 39.0714ZM557.44 56H548.214V60H557.44V56ZM550.187 58.3275L557.431 14.6912L553.485 14.0361L546.241 57.6725L550.187 58.3275ZM555.458 16.3636H564.684V12.3636H555.458V16.3636ZM562.711 14.0356L559.813 31.4646L563.759 32.1206L566.657 14.6917L562.711 14.0356ZM561.786 33.7926H563.64V29.7926H561.786V33.7926ZM565.056 33.2051L582.442 15.7761L579.61 12.9512L562.224 30.3801L565.056 33.2051ZM581.026 16.3636H592.511V12.3636H581.026V16.3636ZM591.101 12.945L570.732 33.1865L573.551 36.0238L593.92 15.7823L591.101 12.945ZM570.422 35.6274L584.336 59.0223L587.774 56.9777L573.86 33.5828L570.422 35.6274ZM586.055 56H574.613V60H586.055V56ZM594.998 21.9702L593.026 21.6387L592.634 23.9702H594.998V21.9702ZM596.277 14.3636V12.3636H594.585L594.304 14.0321L596.277 14.3636ZM632.115 14.3636L634.087 14.6951L634.479 12.3636H632.115V14.3636ZM630.836 21.9702V23.9702H632.528L632.809 22.3017L630.836 21.9702ZM617.477 21.9702V19.9702H615.781L615.504 21.6435L617.477 21.9702ZM611.511 58V60H613.207L613.484 58.3267L611.511 58ZM602.392 58L600.419 57.6733L600.033 60H602.392V58ZM608.358 21.9702L610.331 22.2969L610.716 19.9702H608.358V21.9702ZM596.971 22.3017L598.249 14.6951L594.304 14.0321L593.026 21.6387L596.971 22.3017ZM596.277 16.3636H632.115V12.3636H596.277V16.3636ZM630.142 14.0321L628.864 21.6387L632.809 22.3017L634.087 14.6951L630.142 14.0321ZM630.836 19.9702H617.477V23.9702H630.836V19.9702ZM615.504 21.6435L609.538 57.6733L613.484 58.3267L619.45 22.2969L615.504 21.6435ZM611.511 56H602.392V60H611.511V56ZM604.365 58.3267L610.331 22.2969L606.384 21.6435L600.419 57.6733L604.365 58.3267ZM608.358 19.9702H594.998V23.9702H608.358V19.9702ZM641.021 30.4929V28.4929H639.327L639.048 30.1641L641.021 30.4929ZM660.091 32.1761L659.218 33.9759L659.225 33.9791L659.232 33.9823L660.091 32.1761ZM665.119 36.8849L663.333 37.7844L663.338 37.7943L665.119 36.8849ZM665.971 44.0653L664 43.7299L663.998 43.7382L665.971 44.0653ZM662.711 51.331L664.255 52.602L664.26 52.5969L662.711 51.331ZM656.064 56.2315L655.266 54.3972L655.263 54.3988L656.064 56.2315ZM630.517 58L628.544 57.6725L628.157 60H630.517V58ZM637.761 14.3636V12.3636H636.066L635.788 14.0361L637.761 14.3636ZM646.987 14.3636L648.96 14.6909L649.346 12.3636H646.987V14.3636ZM640.978 50.5852L639.005 50.2579L638.619 52.5852H640.978V50.5852ZM652.399 49.6903L653.268 51.4915L653.277 51.4873L652.399 49.6903ZM655.403 47.2827L653.811 46.0719L653.809 46.0754L655.403 47.2827ZM656.831 43.9801L654.86 43.6408L654.857 43.6575L654.854 43.6742L656.831 43.9801ZM655.595 39.5909L654.13 40.9525L654.138 40.9611L655.595 39.5909ZM639.806 37.7798L637.834 37.451L637.446 39.7798H639.806V37.7798ZM684.039 14.3636L686.012 14.6912L686.399 12.3636H684.039V14.3636ZM676.795 58V60H678.49L678.768 58.3275L676.795 58ZM667.591 58L665.618 57.6725L665.231 60H667.591V58ZM674.835 14.3636V12.3636H673.14L672.862 14.0361L674.835 14.3636ZM641.021 32.4929H651.419V28.4929H641.021V32.4929ZM651.419 32.4929C654.682 32.4929 657.252 33.023 659.218 33.9759L660.963 30.3764C658.298 29.0849 655.087 28.4929 651.419 28.4929V32.4929ZM659.232 33.9823C661.216 34.9263 662.536 36.2025 663.333 37.7844L666.905 35.9855C665.656 33.5048 663.624 31.6419 660.95 30.37L659.232 33.9823ZM663.338 37.7943C664.138 39.3621 664.413 41.301 664 43.73L667.943 44.4007C668.467 41.3183 668.174 38.4703 666.9 35.9756L663.338 37.7943ZM663.998 43.7382C663.599 46.1435 662.655 48.2398 661.163 50.0651L664.26 52.5969C666.205 50.2176 667.434 47.4702 667.944 44.3925L663.998 43.7382ZM661.167 50.0599C659.668 51.8815 657.717 53.3323 655.266 54.3972L656.861 58.0658C659.836 56.7729 662.317 54.9566 664.255 52.602L661.167 50.0599ZM655.263 54.3988C652.856 55.4501 650.061 56 646.838 56V60C650.518 60 653.873 59.3709 656.864 58.0643L655.263 54.3988ZM646.838 56H630.517V60H646.838V56ZM632.49 58.3275L639.734 14.6912L635.788 14.0361L628.544 57.6725L632.49 58.3275ZM637.761 16.3636H646.987V12.3636H637.761V16.3636ZM645.014 14.0363L639.005 50.2579L642.951 50.9125L648.96 14.6909L645.014 14.0363ZM640.978 52.5852H648.074V48.5852H640.978V52.5852ZM648.074 52.5852C649.963 52.5852 651.712 52.2426 653.268 51.4914L651.529 47.8892C650.614 48.3312 649.48 48.5852 648.074 48.5852V52.5852ZM653.277 51.4873C654.776 50.7549 656.034 49.762 656.998 48.4899L653.809 46.0754C653.266 46.792 652.522 47.4042 651.521 47.8934L653.277 51.4873ZM656.995 48.4934C657.953 47.2335 658.569 45.8245 658.807 44.286L654.854 43.6742C654.723 44.5221 654.387 45.3148 653.811 46.0719L656.995 48.4934ZM658.802 44.3194C659.197 42.0204 658.64 39.9091 657.052 38.2207L654.138 40.9611C654.794 41.6591 655.06 42.474 654.86 43.6408L658.802 44.3194ZM657.06 38.2293C655.405 36.4484 652.954 35.7798 650.204 35.7798V39.7798C652.397 39.7798 653.541 40.3186 654.13 40.9525L657.06 38.2293ZM650.204 35.7798H639.806V39.7798H650.204V35.7798ZM641.779 38.1086L642.994 30.8217L639.048 30.1641L637.834 37.451L641.779 38.1086ZM682.066 14.0361L674.822 57.6725L678.768 58.3275L686.012 14.6912L682.066 14.0361ZM676.795 56H667.591V60H676.795V56ZM669.564 58.3275L676.808 14.6912L672.862 14.0361L665.618 57.6725L669.564 58.3275ZM674.835 16.3636H684.039V12.3636H674.835V16.3636Z" fill="url(#paint0_linear_1748_283)"/>
<path d="M3.79261 58V14.3636H21.2642C24.4744 14.3636 27.152 14.8395 29.2969 15.7912C31.4418 16.7429 33.054 18.0639 34.1335 19.7543C35.2131 21.4304 35.7528 23.3622 35.7528 25.5497C35.7528 27.2543 35.4119 28.7528 34.7301 30.0455C34.0483 31.3239 33.1108 32.375 31.9176 33.1989C30.7386 34.0085 29.3892 34.5838 27.8693 34.9247V35.3509C29.5313 35.4219 31.0866 35.8906 32.5355 36.7571C33.9986 37.6236 35.1847 38.8381 36.0938 40.4006C37.0028 41.9489 37.4574 43.7955 37.4574 45.9403C37.4574 48.2557 36.8821 50.3224 35.7315 52.1406C34.5952 53.9446 32.9119 55.3722 30.6818 56.4233C28.4517 57.4744 25.7031 58 22.4361 58H3.79261ZM13.0185 50.4574H20.5398C23.1108 50.4574 24.9858 49.9673 26.1648 48.9872C27.3438 47.9929 27.9332 46.6719 27.9332 45.0241C27.9332 43.8168 27.642 42.7514 27.0597 41.8281C26.4773 40.9048 25.6463 40.1804 24.5668 39.6548C23.5014 39.1293 22.2301 38.8665 20.7528 38.8665H13.0185V50.4574ZM13.0185 32.6236H19.858C21.1222 32.6236 22.2443 32.4034 23.2244 31.9631C24.2188 31.5085 25 30.8693 25.5682 30.0455C26.1506 29.2216 26.4418 28.2344 26.4418 27.0838C26.4418 25.5071 25.8807 24.2358 24.7585 23.2699C23.6506 22.304 22.0739 21.821 20.0284 21.821H13.0185V32.6236ZM81.962 29.6406H72.6296C72.4592 28.4332 72.1112 27.3608 71.5856 26.4233C71.06 25.4716 70.3853 24.6619 69.5614 23.9943C68.7376 23.3267 67.7859 22.8153 66.7063 22.4602C65.641 22.1051 64.4833 21.9276 63.2333 21.9276C60.9748 21.9276 59.0075 22.4886 57.3313 23.6108C55.6552 24.7187 54.3555 26.3381 53.4322 28.4688C52.5089 30.5852 52.0472 33.1562 52.0472 36.1818C52.0472 39.2926 52.5089 41.9062 53.4322 44.0227C54.3697 46.1392 55.6765 47.7372 57.3526 48.8168C59.0288 49.8963 60.9677 50.4361 63.1694 50.4361C64.4052 50.4361 65.5487 50.2727 66.5998 49.946C67.6651 49.6193 68.6097 49.1435 69.4336 48.5185C70.2575 47.8793 70.9393 47.1051 71.479 46.196C72.033 45.2869 72.4165 44.25 72.6296 43.0852L81.962 43.1278C81.7205 45.1307 81.1168 47.0625 80.1509 48.9233C79.1992 50.7699 77.9137 52.4247 76.2944 53.8878C74.6893 55.3366 72.7717 56.4872 70.5415 57.3395C68.3256 58.1776 65.8185 58.5966 63.0202 58.5966C59.1282 58.5966 55.6481 57.7159 52.5799 55.9545C49.5259 54.1932 47.1112 51.6435 45.3356 48.3054C43.5742 44.9673 42.6935 40.9261 42.6935 36.1818C42.6935 31.4233 43.5884 27.375 45.3782 24.0369C47.168 20.6989 49.5969 18.1562 52.6651 16.4091C55.7333 14.6477 59.185 13.767 63.0202 13.767C65.5487 13.767 67.8924 14.1222 70.0515 14.8324C72.2248 15.5426 74.1495 16.5795 75.8256 17.9432C77.5018 19.2926 78.8654 20.9474 79.9165 22.9077C80.9819 24.8679 81.6637 27.1122 81.962 29.6406ZM88.5778 58V14.3636H117.981V21.9702H97.8036V32.3679H116.468V39.9744H97.8036V50.3935H118.066V58H88.5778ZM139.203 14.3636H148.407V41.8068H148.77L167.626 14.3636H175.701V58H166.475V30.5355H166.156L147.193 58H139.203V14.3636ZM212.28 14.3636V21.9702H192.55V58H183.324V14.3636H212.28ZM218.187 58V14.3636H235.403C238.713 14.3636 241.532 14.9957 243.862 16.2599C246.191 17.5099 247.967 19.25 249.189 21.4801C250.424 23.696 251.042 26.2528 251.042 29.1506C251.042 32.0483 250.417 34.6051 249.167 36.821C247.917 39.0369 246.106 40.7628 243.734 41.9986C241.376 43.2344 238.521 43.8523 235.169 43.8523H224.196V36.4588H233.677C235.453 36.4588 236.916 36.1534 238.066 35.5426C239.231 34.9176 240.098 34.0582 240.666 32.9645C241.248 31.8565 241.539 30.5852 241.539 29.1506C241.539 27.7017 241.248 26.4375 240.666 25.358C240.098 24.2642 239.231 23.419 238.066 22.8224C236.902 22.2116 235.424 21.9062 233.635 21.9062H227.413V58H218.187ZM263.107 30.4929H273.505C276.971 30.4929 279.954 31.054 282.454 32.1761C284.968 33.2841 286.907 34.8537 288.271 36.8849C289.634 38.9162 290.309 41.3097 290.295 44.0653C290.309 46.8068 289.634 49.2287 288.271 51.331C286.907 53.419 284.968 55.0526 282.454 56.2315C279.954 57.4105 276.971 58 273.505 58H257.205V14.3636H266.41V50.5852H273.505C275.167 50.5852 276.566 50.2869 277.702 49.6903C278.839 49.0795 279.698 48.277 280.281 47.2827C280.877 46.2741 281.168 45.1733 281.154 43.9801C281.168 42.2472 280.515 40.7841 279.194 39.5909C277.887 38.3835 275.991 37.7798 273.505 37.7798H263.107V30.4929ZM303.058 14.3636V58H293.853V14.3636H303.058ZM324.535 14.3636H333.739V41.8068H334.102L352.958 14.3636H361.033V58H351.808V30.5355H351.488L332.525 58H324.535V14.3636ZM419.638 14.3636V58H410.518V21.8636H392.876V58H383.757V14.3636H419.638ZM428.422 58V14.3636H445.637C448.947 14.3636 451.767 14.9957 454.096 16.2599C456.426 17.5099 458.201 19.25 459.423 21.4801C460.659 23.696 461.277 26.2528 461.277 29.1506C461.277 32.0483 460.652 34.6051 459.402 36.821C458.152 39.0369 456.341 40.7628 453.968 41.9986C451.61 43.2344 448.755 43.8523 445.403 43.8523H434.43V36.4588H443.912C445.687 36.4588 447.15 36.1534 448.301 35.5426C449.466 34.9176 450.332 34.0582 450.9 32.9645C451.483 31.8565 451.774 30.5852 451.774 29.1506C451.774 27.7017 451.483 26.4375 450.9 25.358C450.332 24.2642 449.466 23.419 448.301 22.8224C447.136 22.2116 445.659 21.9062 443.869 21.9062H437.647V58H428.422ZM507.369 36.1818C507.369 40.9403 506.467 44.9886 504.663 48.3267C502.873 51.6648 500.43 54.2145 497.333 55.9759C494.251 57.723 490.785 58.5966 486.935 58.5966C483.058 58.5966 479.577 57.7159 476.495 55.9545C473.413 54.1932 470.977 51.6435 469.187 48.3054C467.397 44.9673 466.502 40.9261 466.502 36.1818C466.502 31.4233 467.397 27.375 469.187 24.0369C470.977 20.6989 473.413 18.1562 476.495 16.4091C479.577 14.6477 483.058 13.767 486.935 13.767C490.785 13.767 494.251 14.6477 497.333 16.4091C500.43 18.1562 502.873 20.6989 504.663 24.0369C506.467 27.375 507.369 31.4233 507.369 36.1818ZM498.015 36.1818C498.015 33.0994 497.553 30.5 496.63 28.3835C495.721 26.267 494.435 24.6619 492.773 23.5682C491.112 22.4744 489.165 21.9276 486.935 21.9276C484.705 21.9276 482.759 22.4744 481.097 23.5682C479.435 24.6619 478.143 26.267 477.219 28.3835C476.31 30.5 475.856 33.0994 475.856 36.1818C475.856 39.2642 476.31 41.8636 477.219 43.9801C478.143 46.0966 479.435 47.7017 481.097 48.7955C482.759 49.8892 484.705 50.4361 486.935 50.4361C489.165 50.4361 491.112 49.8892 492.773 48.7955C494.435 47.7017 495.721 46.0966 496.63 43.9801C497.553 41.8636 498.015 39.2642 498.015 36.1818ZM514.203 58V14.3636H543.606V21.9702H523.429V32.3679H542.093V39.9744H523.429V50.3935H543.691V58H514.203ZM577.34 58L563.32 39.3991H560.167V58H550.941V14.3636H560.167V31.7926H562.021L576.509 14.3636H587.994L570.969 34.6051L588.782 58H577.34ZM591.76 21.9702V14.3636H627.598V21.9702H614.238V58H605.119V21.9702H591.76ZM639.572 30.4929H649.97C653.436 30.4929 656.419 31.054 658.919 32.1761C661.433 33.2841 663.372 34.8537 664.735 36.8849C666.099 38.9162 666.774 41.3097 666.76 44.0653C666.774 46.8068 666.099 49.2287 664.735 51.331C663.372 53.419 661.433 55.0526 658.919 56.2315C656.419 57.4105 653.436 58 649.97 58H633.67V14.3636H642.875V50.5852H649.97C651.632 50.5852 653.031 50.2869 654.167 49.6903C655.304 49.0795 656.163 48.277 656.745 47.2827C657.342 46.2741 657.633 45.1733 657.619 43.9801C657.633 42.2472 656.98 40.7841 655.659 39.5909C654.352 38.3835 652.456 37.7798 649.97 37.7798H639.572V30.4929ZM679.522 14.3636V58H670.318V14.3636H679.522Z" fill="white"/>
<defs>
<linearGradient id="paint0_linear_1748_283" x1="4.53921e-07" y1="36.9999" x2="684" y2="36.9999" gradientUnits="userSpaceOnUse">
<stop stop-color="#8D72E1"/>
<stop offset="1" stop-color="#8D9EFF"/>
</linearGradient>
</defs>
</svg>
