<svg width="340" height="90" viewBox="0 0 340 90" fill="none" xmlns="http://www.w3.org/2000/svg">
<g clip-path="url(#clip0_1744_87)">
<g filter="url(#filter0_b_1744_87)">
<rect width="340" height="90" rx="10" fill="white" fill-opacity="0.05"/>
<rect x="2" y="2" width="336" height="86" rx="8" stroke="url(#paint0_linear_1744_87)" stroke-width="4"/>
</g>
<path d="M79.3169 38L77.8371 37.7543L77.5473 39.5H79.3169V38ZM82.939 16.1818V14.6818H81.6675L81.4593 15.9362L82.939 16.1818ZM95.574 16.8956L94.9264 18.2486L94.9302 18.2504L95.574 16.8956ZM97.6727 18.8771L96.3154 19.5158L96.3175 19.5202L97.6727 18.8771ZM97.9923 21.7749L99.4698 22.0334L99.4713 22.0246L97.9923 21.7749ZM97.0867 24.0121L95.8643 23.1428L95.8579 23.1519L97.0867 24.0121ZM95.4248 25.5888L94.631 24.316L95.4248 25.5888ZM93.2728 26.4624L92.9503 24.9974L91.994 25.208L91.8019 26.1682L93.2728 26.4624ZM93.2302 26.6754L91.7593 26.3812L91.4159 28.0986L93.1656 28.174L93.2302 26.6754ZM95.4568 27.3786L94.6341 28.6329L94.6436 28.639L95.4568 27.3786ZM96.9376 29.1896L95.5537 29.7683L95.5537 29.7683L96.9376 29.1896ZM97.1613 31.9702L98.6411 32.2153L98.6412 32.2152L97.1613 31.9702ZM95.787 35.0703L96.9565 36.0096L96.9601 36.0051L95.787 35.0703ZM92.8893 37.2116L92.2906 35.8363L92.2876 35.8376L92.8893 37.2116ZM84.569 34.2287L83.0887 33.9865L82.8036 35.7287H84.569V34.2287ZM91.2593 33.483L92.1491 34.6905L92.1491 34.6905L91.2593 33.483ZM92.4738 31.5121L93.9537 31.7566L93.9552 31.7477L93.9566 31.7388L92.4738 31.5121ZM92.2927 29.9141L90.9229 30.5252L90.9268 30.534L90.9308 30.5426L92.2927 29.9141ZM91.238 28.8274L90.5291 30.1494L90.5371 30.1536L91.238 28.8274ZM85.5171 28.4332V26.9332H84.2426L84.0368 28.1911L85.5171 28.4332ZM86.0498 25.3118L84.57 25.0666L84.2808 26.8118H86.0498V25.3118ZM91.2061 24.9815L91.7791 26.3678L91.7881 26.364L91.2061 24.9815ZM92.5377 24.0227L91.3934 23.0529L91.3919 23.0547L92.5377 24.0227ZM93.2089 22.5419L94.6895 22.7825L94.6899 22.7799L93.2089 22.5419ZM92.6762 20.6349L91.6077 21.6877L91.6155 21.6956L91.6235 21.7034L92.6762 20.6349ZM86.9447 19.9105V18.4105H85.6728L85.4649 19.6653L86.9447 19.9105ZM80.7966 38.2457L84.4188 16.4275L81.4593 15.9362L77.8371 37.7543L80.7966 38.2457ZM82.939 17.6818H91.6748V14.6818H82.939V17.6818ZM91.6748 17.6818C93.1502 17.6818 94.2049 17.9033 94.9264 18.2486L96.2215 15.5426C94.9543 14.9361 93.4096 14.6818 91.6748 14.6818V17.6818ZM94.9302 18.2504C95.6793 18.6064 96.092 19.041 96.3154 19.5158L99.0299 18.2384C98.4579 17.0229 97.4715 16.1365 96.2177 15.5408L94.9302 18.2504ZM96.3175 19.5202C96.5593 20.0296 96.6569 20.674 96.5132 21.5251L99.4713 22.0246C99.697 20.6882 99.5815 19.4008 99.0278 18.234L96.3175 19.5202ZM96.5147 21.5163C96.4001 22.1715 96.1765 22.7037 95.8643 23.1428L98.3092 24.8814C98.906 24.042 99.2862 23.0828 99.4698 22.0334L96.5147 21.5163ZM95.8579 23.1519C95.526 23.6261 95.1198 24.0112 94.631 24.316L96.2186 26.8615C97.0508 26.3425 97.7526 25.6765 98.3156 24.8723L95.8579 23.1519ZM94.631 24.316C94.1182 24.6359 93.5607 24.8631 92.9503 24.9974L93.5954 27.9273C94.5333 27.7208 95.4104 27.3656 96.2186 26.8615L94.631 24.316ZM91.8019 26.1682L91.7593 26.3812L94.7011 26.9696L94.7437 26.7565L91.8019 26.1682ZM93.1656 28.174C93.7318 28.1984 94.2098 28.3545 94.6341 28.6328L96.2795 26.1243C95.3827 25.5361 94.3764 25.2234 93.2948 25.1768L93.1656 28.174ZM94.6436 28.639C95.0294 28.8879 95.3345 29.2441 95.5537 29.7683L98.3215 28.6109C97.8873 27.5727 97.2052 26.7215 96.27 26.1181L94.6436 28.639ZM95.5537 29.7683C95.7448 30.2252 95.8259 30.853 95.6815 31.7252L98.6412 32.2152C98.8519 30.9425 98.7838 29.7166 98.3215 28.6109L95.5537 29.7683ZM95.6815 31.725C95.5311 32.6329 95.1774 33.4284 94.6139 34.1355L96.9601 36.0051C97.8455 34.8941 98.408 33.6227 98.6411 32.2153L95.6815 31.725ZM94.6175 34.131C94.0651 34.8188 93.3063 35.3942 92.2906 35.8363L93.488 38.587C94.8871 37.978 96.06 37.1258 96.9565 36.0096L94.6175 34.131ZM92.2876 35.8376C91.3177 36.2623 90.1145 36.5 88.6386 36.5V39.5C90.4297 39.5 92.0603 39.2121 93.4909 38.5857L92.2876 35.8376ZM88.6386 36.5H79.3169V39.5H88.6386V36.5ZM84.569 35.7287H88.3296V32.7287H84.569V35.7287ZM88.3296 35.7287C89.7697 35.7287 91.113 35.454 92.1491 34.6905L90.3695 32.2754C90.0562 32.5063 89.4463 32.7287 88.3296 32.7287V35.7287ZM92.1491 34.6905C93.1342 33.9647 93.7542 32.9643 93.9537 31.7566L90.9939 31.2676C90.9235 31.6934 90.7339 32.0069 90.3695 32.2754L92.1491 34.6905ZM93.9566 31.7388C94.0843 30.9036 94.0139 30.0639 93.6546 29.2855L90.9308 30.5426C90.9976 30.6875 91.048 30.9131 90.9911 31.2853L93.9566 31.7388ZM93.6625 29.3029C93.3045 28.5003 92.6975 27.9022 91.939 27.5013L90.5371 30.1536C90.7728 30.2782 90.869 30.4046 90.9229 30.5252L93.6625 29.3029ZM91.9469 27.5055C91.1754 27.0918 90.2902 26.9332 89.3737 26.9332V29.9332C89.9628 29.9332 90.3205 30.0375 90.5292 30.1493L91.9469 27.5055ZM89.3737 26.9332H85.5171V29.9332H89.3737V26.9332ZM84.0368 28.1911L83.0887 33.9865L86.0493 34.4709L86.9975 28.6754L84.0368 28.1911ZM86.0498 26.8118H89.4695V23.8118H86.0498V26.8118ZM89.4695 26.8118C90.2744 26.8118 91.0498 26.6692 91.779 26.3678L90.6331 23.5953C90.2969 23.7342 89.9147 23.8118 89.4695 23.8118V26.8118ZM91.7881 26.364C92.5267 26.053 93.1701 25.5986 93.6836 24.9908L91.3919 23.0547C91.2094 23.2708 90.9649 23.4555 90.624 23.5991L91.7881 26.364ZM93.6821 24.9925C94.2221 24.3553 94.5556 23.6063 94.6895 22.7825L91.7283 22.3013C91.6775 22.6139 91.5636 22.8521 91.3934 23.0529L93.6821 24.9925ZM94.6899 22.7799C94.8782 21.608 94.6256 20.4499 93.729 19.5665L91.6235 21.7034C91.6927 21.7717 91.7952 21.8848 91.7279 22.3039L94.6899 22.7799ZM93.7447 19.5822C92.873 18.6974 91.6581 18.4105 90.439 18.4105V21.4105C91.2512 21.4105 91.5277 21.6065 91.6077 21.6877L93.7447 19.5822ZM90.439 18.4105H86.9447V21.4105H90.439V18.4105ZM85.4649 19.6653L84.57 25.0666L87.5296 25.557L88.4245 20.1557L85.4649 19.6653ZM120.735 23.8203V25.3203H122.177L122.233 23.8793L120.735 23.8203ZM116.132 23.8203L114.633 23.7854L114.597 25.3203H116.132V23.8203ZM115.898 22.201L114.486 22.7068L114.488 22.7136L115.898 22.201ZM115.131 20.9865L114.07 22.0472L114.076 22.0527L114.082 22.0583L115.131 20.9865ZM113.906 20.2301L113.388 21.638L113.397 21.6413L113.407 21.6446L113.906 20.2301ZM109.069 20.8374L109.84 22.1244L109.84 22.1244L109.069 20.8374ZM106.608 23.3729L107.891 24.1507L107.893 24.147L106.608 23.3729ZM105.223 27.3679L106.703 27.6122L106.704 27.6101L105.223 27.3679ZM105.266 31.1499L106.713 30.7552L106.713 30.7552L105.266 31.1499ZM106.736 33.451L105.846 34.6583L105.853 34.6633L105.86 34.6683L106.736 33.451ZM111.253 33.973L111.654 35.4185L111.662 35.4163L111.67 35.414L111.253 33.973ZM112.862 33.2486L113.677 34.5079L113.681 34.505L112.862 33.2486ZM114.14 32.0874L112.976 31.1415L112.972 31.147L112.967 31.1526L114.14 32.0874ZM115.003 30.5426V29.0426H113.947L113.591 30.037L115.003 30.5426ZM119.637 30.5426L121.078 30.9614L121.636 29.0426H119.637V30.5426ZM118.274 33.4403L117.024 32.6105L117.02 32.6171L118.274 33.4403ZM116.005 35.9332L116.944 37.1028L116.949 37.0983L116.005 35.9332ZM112.926 37.6591L112.405 36.2525L112.405 36.2525L112.926 37.6591ZM104.041 36.9347L103.229 38.1962L103.232 38.1981L104.041 36.9347ZM100.983 33.0036L99.5742 33.518L99.5742 33.518L100.983 33.0036ZM100.632 26.8139L99.1522 26.5666L99.1509 26.5744L100.632 26.8139ZM102.922 20.8693L101.693 20.0091L101.693 20.0102L102.922 20.8693ZM107.088 17.1513L106.401 15.8178L106.398 15.819L107.088 17.1513ZM118.561 17.9716L117.544 19.0738L117.549 19.0789L117.555 19.0839L118.561 17.9716ZM120.245 20.4538L118.844 20.9916L118.844 20.9916L120.245 20.4538ZM120.735 22.3203H116.132V25.3203H120.735V22.3203ZM117.632 23.8552C117.65 23.0985 117.554 22.367 117.308 21.6884L114.488 22.7136C114.582 22.9725 114.644 23.3205 114.633 23.7854L117.632 23.8552ZM117.31 21.6952C117.068 21.0186 116.693 20.4167 116.18 19.9147L114.082 22.0583C114.251 22.2239 114.387 22.4316 114.486 22.7068L117.31 21.6952ZM116.192 19.9258C115.686 19.4205 115.081 19.0542 114.405 18.8156L113.407 21.6446C113.697 21.7469 113.908 21.8849 114.07 22.0472L116.192 19.9258ZM114.423 18.8222C113.749 18.5742 113.026 18.4638 112.276 18.4638V21.4638C112.733 21.4638 113.097 21.5309 113.388 21.638L114.423 18.8222ZM112.276 18.4638C110.847 18.4638 109.511 18.8246 108.299 19.5503L109.84 22.1244C110.573 21.6853 111.375 21.4638 112.276 21.4638V18.4638ZM108.299 19.5503C107.087 20.2757 106.1 21.3101 105.323 22.5987L107.893 24.147C108.452 23.2197 109.105 22.5638 109.84 22.1244L108.299 19.5503ZM105.326 22.595C104.538 23.8931 104.023 25.4158 103.743 27.1257L106.704 27.6101C106.935 26.195 107.343 25.0543 107.891 24.1507L105.326 22.595ZM103.743 27.1236C103.474 28.7538 103.465 30.2489 103.819 31.5445L106.713 30.7552C106.512 30.0195 106.475 28.9933 106.703 27.6122L103.743 27.1236ZM103.819 31.5445C104.166 32.8169 104.818 33.9006 105.846 34.6583L107.626 32.2437C107.247 31.9644 106.92 31.514 106.713 30.7552L103.819 31.5445ZM105.86 34.6683C106.875 35.3992 108.083 35.718 109.389 35.718V32.718C108.578 32.718 108.018 32.5255 107.613 32.2337L105.86 34.6683ZM109.389 35.718C110.168 35.718 110.925 35.6204 111.654 35.4185L110.853 32.5275C110.402 32.6523 109.916 32.718 109.389 32.718V35.718ZM111.67 35.414C112.391 35.2055 113.063 34.9053 113.677 34.5079L112.047 31.9892C111.695 32.2169 111.294 32.3996 110.836 32.532L111.67 35.414ZM113.681 34.505C114.305 34.0984 114.85 33.603 115.313 33.0222L112.967 31.1526C112.705 31.4808 112.399 31.7596 112.042 31.9922L113.681 34.505ZM115.304 33.0332C115.785 32.4414 116.155 31.7762 116.415 31.0482L113.591 30.037C113.44 30.4596 113.234 30.8242 112.976 31.1415L115.304 33.0332ZM115.003 32.0426H119.637V29.0426H115.003V32.0426ZM118.197 30.1238C117.951 30.9693 117.564 31.7977 117.024 32.6105L119.523 34.2702C120.219 33.2222 120.741 32.1187 121.078 30.9614L118.197 30.1238ZM117.02 32.6171C116.497 33.4128 115.847 34.1298 115.06 34.7682L116.949 37.0983C117.966 36.2736 118.828 35.3286 119.528 34.2635L117.02 32.6171ZM115.065 34.7637C114.296 35.3812 113.413 35.879 112.405 36.2525L113.447 39.0657C114.739 38.587 115.909 37.9342 116.944 37.1027L115.065 34.7637ZM112.405 36.2525C111.439 36.61 110.357 36.7983 109.144 36.7983V39.7983C110.672 39.7983 112.111 39.5604 113.447 39.0657L112.405 36.2525ZM109.144 36.7983C107.398 36.7983 105.989 36.4005 104.849 35.6713L103.232 38.1981C104.934 39.287 106.927 39.7983 109.144 39.7983V36.7983ZM104.852 35.6731C103.738 34.9564 102.915 33.9207 102.392 32.4891L99.5742 33.518C100.301 35.5097 101.517 37.0948 103.229 38.1962L104.852 35.6731ZM102.392 32.4891C101.88 31.0871 101.749 29.2983 102.112 27.0535L99.1509 26.5744C98.7328 29.159 98.8361 31.4967 99.5742 33.518L102.392 32.4891ZM102.111 27.0612C102.472 24.9024 103.166 23.14 104.152 21.7284L101.693 20.0102C100.406 21.8515 99.5725 24.0521 99.1522 26.5666L102.111 27.0612ZM104.151 21.7295C105.167 20.2775 106.377 19.2081 107.777 18.4835L106.398 15.819C104.532 16.7848 102.964 18.1941 101.693 20.0091L104.151 21.7295ZM107.775 18.4847C109.2 17.7504 110.718 17.3835 112.35 17.3835V14.3835C110.247 14.3835 108.256 14.8618 106.401 15.8178L107.775 18.4847ZM112.35 17.3835C113.514 17.3835 114.524 17.5425 115.397 17.8373L116.357 14.9951C115.127 14.5796 113.786 14.3835 112.35 14.3835V17.3835ZM115.397 17.8373C116.269 18.132 116.975 18.549 117.544 19.0738L119.579 16.8694C118.67 16.0305 117.587 15.4106 116.357 14.9951L115.397 17.8373ZM117.555 19.0839C118.118 19.5937 118.548 20.2213 118.844 20.9916L121.645 19.916C121.188 18.7261 120.496 17.699 119.568 16.8593L117.555 19.0839ZM118.844 20.9916C119.134 21.7468 119.279 22.6598 119.236 23.7614L122.233 23.8793C122.29 22.4524 122.108 21.1211 121.645 19.916L118.844 20.9916ZM121.709 38L120.23 37.7543L119.94 39.5H121.709V38ZM125.332 16.1818V14.6818H124.06L123.852 15.9362L125.332 16.1818ZM140.033 16.1818L141.513 16.4304L141.806 14.6818H140.033V16.1818ZM139.394 19.9851V21.4851H140.663L140.873 20.2337L139.394 19.9851ZM129.305 19.9851V18.4851H128.031L127.825 19.7424L129.305 19.9851ZM128.453 25.1839L126.973 24.9413L126.687 26.6839H128.453V25.1839ZM137.785 25.1839L139.265 25.4326L139.559 23.6839H137.785V25.1839ZM137.146 28.9872V30.4872H138.415L138.625 29.2358L137.146 28.9872ZM127.814 28.9872V27.4872H126.539L126.334 28.745L127.814 28.9872ZM126.962 34.1967L125.481 33.9546L125.196 35.6967H126.962V34.1967ZM137.093 34.1967L138.572 34.4453L138.866 32.6967H137.093V34.1967ZM136.454 38V39.5H137.723L137.933 38.2486L136.454 38ZM123.189 38.2457L126.811 16.4275L123.852 15.9362L120.23 37.7543L123.189 38.2457ZM125.332 17.6818H140.033V14.6818H125.332V17.6818ZM138.554 15.9332L137.915 19.7365L140.873 20.2337L141.513 16.4304L138.554 15.9332ZM139.394 18.4851H129.305V21.4851H139.394V18.4851ZM127.825 19.7424L126.973 24.9413L129.933 25.4266L130.786 20.2277L127.825 19.7424ZM128.453 26.6839H137.785V23.6839H128.453V26.6839ZM136.306 24.9353L135.667 28.7386L138.625 29.2358L139.265 25.4326L136.306 24.9353ZM137.146 27.4872H127.814V30.4872H137.146V27.4872ZM126.334 28.745L125.481 33.9546L128.442 34.4389L129.294 29.2294L126.334 28.745ZM126.962 35.6967H137.093V32.6967H126.962V35.6967ZM135.614 33.9481L134.974 37.7514L137.933 38.2486L138.572 34.4453L135.614 33.9481ZM136.454 36.5H121.709V39.5H136.454V36.5ZM150.644 16.1818V14.6818H149.373L149.164 15.9362L150.644 16.1818ZM155.246 16.1818L156.726 16.4277L157.016 14.6818H155.246V16.1818ZM152.967 29.9034L151.487 29.6576L151.197 31.4034H152.967V29.9034ZM153.158 29.9034V31.4034H153.851L154.3 30.8765L153.158 29.9034ZM164.856 16.1818V14.6818H164.163L163.714 15.2087L164.856 16.1818ZM168.893 16.1818L170.373 16.4275L170.663 14.6818H168.893V16.1818ZM165.271 38V39.5H166.543L166.751 38.2457L165.271 38ZM160.658 38L159.179 37.7543L158.889 39.5H160.658V38ZM162.938 24.2678L164.418 24.5134L164.708 22.7678H162.938V24.2678ZM162.778 24.2678V22.7678H162.088L161.639 23.292L162.778 24.2678ZM151.017 38V39.5H151.707L152.156 38.9758L151.017 38ZM147.022 38L145.542 37.7543L145.252 39.5H147.022V38ZM150.644 17.6818H155.246V14.6818H150.644V17.6818ZM153.767 15.936L151.487 29.6576L154.446 30.1493L156.726 16.4277L153.767 15.936ZM152.967 31.4034H153.158V28.4034H152.967V31.4034ZM154.3 30.8765L165.997 17.1549L163.714 15.2087L152.017 28.9303L154.3 30.8765ZM164.856 17.6818H168.893V14.6818H164.856V17.6818ZM167.414 15.9362L163.791 37.7543L166.751 38.2457L170.373 16.4275L167.414 15.9362ZM165.271 36.5H160.658V39.5H165.271V36.5ZM162.138 38.2457L164.418 24.5134L161.458 24.0221L159.179 37.7543L162.138 38.2457ZM162.938 22.7678H162.778V25.7678H162.938V22.7678ZM161.639 23.292L149.878 37.0242L152.156 38.9758L163.918 25.2435L161.639 23.292ZM151.017 36.5H147.022V39.5H151.017V36.5ZM148.502 38.2457L152.124 16.4275L149.164 15.9362L145.542 37.7543L148.502 38.2457ZM187.183 16.1818L188.662 16.4304L188.956 14.6818H187.183V16.1818ZM186.543 19.9851V21.4851H187.812L188.023 20.2337L186.543 19.9851ZM176.678 19.9851V18.4851H175.406L175.199 19.74L176.678 19.9851ZM173.695 38V39.5H174.967L175.175 38.245L173.695 38ZM169.082 38L167.603 37.7543L167.313 39.5H169.082V38ZM172.705 16.1818V14.6818H171.433L171.225 15.9362L172.705 16.1818ZM185.703 15.9332L185.064 19.7365L188.023 20.2337L188.662 16.4304L185.703 15.9332ZM186.543 18.4851H176.678V21.4851H186.543V18.4851ZM175.199 19.74L172.216 37.755L175.175 38.245L178.158 20.2301L175.199 19.74ZM173.695 36.5H169.082V39.5H173.695V36.5ZM170.562 38.2457L174.184 16.4275L171.225 15.9362L167.603 37.7543L170.562 38.2457ZM172.705 17.6818H187.183V14.6818H172.705V17.6818ZM186.514 38L185.034 37.7543L184.745 39.5H186.514V38ZM190.136 16.1818V14.6818H188.865L188.657 15.9362L190.136 16.1818ZM202.803 17.13L202.034 18.4178L202.044 18.4238L202.803 17.13ZM205.04 19.7401L203.639 20.2755L203.643 20.2863L205.04 19.7401ZM205.339 23.5753L206.818 23.8207L206.819 23.8148L205.339 23.5753ZM203.762 27.4212L202.551 26.5361L202.55 26.5375L203.762 27.4212ZM200.63 29.9993L201.28 31.3512L201.28 31.3512L200.63 29.9993ZM190.69 30.9261L189.21 30.683L188.924 32.4261H190.69V30.9261ZM191.297 27.2294V25.7294H190.024L189.817 26.9863L191.297 27.2294ZM198.329 26.7713L198.981 28.1219L198.988 28.1189L198.329 26.7713ZM199.852 25.4822L201.088 26.3327L201.093 26.3253L199.852 25.4822ZM200.587 23.5753L199.107 23.331L199.106 23.3406L200.587 23.5753ZM200.47 21.6683L201.878 21.1498L201.878 21.1498L200.47 21.6683ZM199.373 20.4112L198.619 21.7082L198.629 21.7142L198.64 21.72L199.373 20.4112ZM194.142 19.9531V18.4531H192.872L192.662 19.706L194.142 19.9531ZM191.127 38V39.5H192.397L192.607 38.2472L191.127 38ZM187.994 38.2457L191.616 16.4275L188.657 15.9362L185.034 37.7543L187.994 38.2457ZM190.136 17.6818H198.744V14.6818H190.136V17.6818ZM198.744 17.6818C200.209 17.6818 201.274 17.9638 202.034 18.4177L203.572 15.8422C202.216 15.032 200.574 14.6818 198.744 14.6818V17.6818ZM202.044 18.4238C202.827 18.8828 203.339 19.4906 203.639 20.2755L206.442 19.2046C205.889 17.7594 204.91 16.6272 203.562 15.8362L202.044 18.4238ZM203.643 20.2863C203.959 21.0923 204.059 22.0901 203.858 23.3358L206.819 23.8148C207.087 22.1628 206.989 20.6037 206.437 19.1938L203.643 20.2863ZM203.859 23.3299C203.653 24.5724 203.212 25.6315 202.551 26.5361L204.973 28.3062C205.931 26.9949 206.542 25.4901 206.818 23.8207L203.859 23.3299ZM202.55 26.5375C201.9 27.4287 201.053 28.1315 199.98 28.6474L201.28 31.3512C202.778 30.6313 204.019 29.6153 204.974 28.3048L202.55 26.5375ZM199.98 28.6474C198.931 29.1518 197.675 29.4261 196.177 29.4261V32.4261C198.045 32.4261 199.758 32.0826 201.28 31.3512L199.98 28.6474ZM196.177 29.4261H190.69V32.4261H196.177V29.4261ZM192.17 31.1693L192.778 27.4725L189.817 26.9863L189.21 30.683L192.17 31.1693ZM191.297 28.7294H196.038V25.7294H191.297V28.7294ZM196.038 28.7294C197.099 28.7294 198.098 28.5488 198.981 28.1219L197.676 25.4207C197.296 25.6046 196.767 25.7294 196.038 25.7294V28.7294ZM198.988 28.1189C199.841 27.7014 200.555 27.1073 201.088 26.3327L198.617 24.6318C198.397 24.9509 198.094 25.2162 197.67 25.4237L198.988 28.1189ZM201.093 26.3253C201.604 25.5737 201.924 24.7267 202.069 23.81L199.106 23.3406C199.024 23.8586 198.854 24.2828 198.611 24.6392L201.093 26.3253ZM202.067 23.8196C202.218 22.9041 202.189 21.9939 201.878 21.1498L199.063 22.1869C199.149 22.4223 199.198 22.7834 199.107 23.331L202.067 23.8196ZM201.878 21.1498C201.547 20.253 200.929 19.5638 200.106 19.1025L198.64 21.72C198.881 21.8553 198.995 22.0041 199.063 22.1869L201.878 21.1498ZM200.126 19.1143C199.29 18.6284 198.291 18.4531 197.253 18.4531V21.4531C197.99 21.4531 198.404 21.5833 198.619 21.7082L200.126 19.1143ZM197.253 18.4531H194.142V21.4531H197.253V18.4531ZM192.662 19.706L189.648 37.7528L192.607 38.2472L195.621 20.2003L192.662 19.706ZM191.127 36.5H186.514V39.5H191.127V36.5ZM211.062 24.2464V22.7464H209.792L209.583 23.9999L211.062 24.2464ZM220.597 25.0881L219.943 26.4379L219.953 26.4427L220.597 25.0881ZM223.111 27.4425L221.771 28.117L221.775 28.1245L223.111 27.4425ZM223.537 31.0327L222.059 30.7811L222.058 30.7873L223.537 31.0327ZM221.907 34.6655L223.066 35.6188L223.069 35.6149L221.907 34.6655ZM218.584 37.1158L217.986 35.74L217.983 35.7412L218.584 37.1158ZM205.81 38L204.33 37.7543L204.041 39.5H205.81V38ZM209.432 16.1818V14.6818H208.161L207.953 15.9362L209.432 16.1818ZM214.045 16.1818L215.525 16.4273L215.815 14.6818H214.045V16.1818ZM211.041 34.2926L209.561 34.0471L209.272 35.7926H211.041V34.2926ZM216.751 33.8452L217.403 35.196L217.41 35.1929L216.751 33.8452ZM218.253 32.6413L217.059 31.7333L217.057 31.7359L218.253 32.6413ZM218.967 30.9901L217.489 30.7356L217.487 30.7481L217.485 30.7606L218.967 30.9901ZM218.349 28.7955L217.25 29.8166L217.256 29.8231L218.349 28.7955ZM210.455 27.8899L208.975 27.6433L208.684 29.3899H210.455V27.8899ZM232.571 16.1818L234.051 16.4275L234.341 14.6818H232.571V16.1818ZM228.949 38V39.5H230.221L230.429 38.2457L228.949 38ZM224.347 38L222.867 37.7543L222.577 39.5H224.347V38ZM227.969 16.1818V14.6818H226.698L226.489 15.9362L227.969 16.1818ZM211.062 25.7464H216.261V22.7464H211.062V25.7464ZM216.261 25.7464C217.842 25.7464 219.047 26.0038 219.943 26.4379L221.251 23.7382C219.832 23.0502 218.146 22.7464 216.261 22.7464V25.7464ZM219.953 26.4427C220.859 26.8737 221.43 27.4385 221.771 28.117L224.451 26.7679C223.77 25.4152 222.665 24.4104 221.241 23.7335L219.953 26.4427ZM221.775 28.1245C222.116 28.7925 222.251 29.6484 222.059 30.7811L225.016 31.2842C225.292 29.6613 225.143 28.1237 224.447 26.7605L221.775 28.1245ZM222.058 30.7873C221.872 31.9059 221.436 32.8727 220.746 33.7161L223.069 35.6149C224.098 34.356 224.748 32.9009 225.017 31.278L222.058 30.7873ZM220.749 33.7122C220.054 34.5564 219.146 35.2361 217.986 35.74L219.181 38.4915C220.735 37.8165 222.042 36.8627 223.066 35.6188L220.749 33.7122ZM217.983 35.7412C216.853 36.235 215.525 36.5 213.971 36.5V39.5C215.868 39.5 217.615 39.1755 219.184 38.4903L217.983 35.7412ZM213.971 36.5H205.81V39.5H213.971V36.5ZM207.29 38.2457L210.912 16.4275L207.953 15.9362L204.33 37.7543L207.29 38.2457ZM209.432 17.6818H214.045V14.6818H209.432V17.6818ZM212.565 15.9363L209.561 34.0471L212.521 34.5381L215.525 16.4273L212.565 15.9363ZM211.041 35.7926H214.589V32.7926H211.041V35.7926ZM214.589 35.7926C215.593 35.7926 216.545 35.6102 217.403 35.196L216.099 32.4943C215.721 32.6767 215.231 32.7926 214.589 32.7926V35.7926ZM217.41 35.1929C218.221 34.7963 218.915 34.2522 219.449 33.5468L217.057 31.7359C216.839 32.0248 216.531 32.2832 216.093 32.4975L217.41 35.1929ZM219.447 33.5494C219.974 32.8566 220.317 32.0751 220.449 31.2195L217.485 30.7606C217.432 31.0982 217.3 31.4175 217.059 31.7333L219.447 33.5494ZM220.445 31.2445C220.668 29.9535 220.352 28.7358 219.442 27.7678L217.256 29.8231C217.468 30.0483 217.565 30.2937 217.489 30.7356L220.445 31.2445ZM219.448 27.7743C218.487 26.7404 217.098 26.3899 215.654 26.3899V29.3899C216.681 29.3899 217.089 29.6431 217.25 29.8166L219.448 27.7743ZM215.654 26.3899H210.455V29.3899H215.654V26.3899ZM211.935 28.1365L212.542 24.493L209.583 23.9999L208.975 27.6433L211.935 28.1365ZM231.092 15.9362L227.47 37.7543L230.429 38.2457L234.051 16.4275L231.092 15.9362ZM228.949 36.5H224.347V39.5H228.949V36.5ZM225.827 38.2457L229.449 16.4275L226.489 15.9362L222.867 37.7543L225.827 38.2457ZM227.969 17.6818H232.571V14.6818H227.969V17.6818ZM243.31 16.1818V14.6818H242.039L241.83 15.9362L243.31 16.1818ZM247.912 16.1818L249.392 16.4277L249.682 14.6818H247.912V16.1818ZM245.633 29.9034L244.153 29.6576L243.863 31.4034H245.633V29.9034ZM245.824 29.9034V31.4034H246.517L246.966 30.8765L245.824 29.9034ZM257.522 16.1818V14.6818H256.829L256.38 15.2087L257.522 16.1818ZM261.559 16.1818L263.039 16.4275L263.329 14.6818H261.559V16.1818ZM257.937 38V39.5H259.209L259.417 38.2457L257.937 38ZM253.324 38L251.845 37.7543L251.555 39.5H253.324V38ZM255.604 24.2678L257.084 24.5134L257.374 22.7678H255.604V24.2678ZM255.444 24.2678V22.7678H254.754L254.305 23.292L255.444 24.2678ZM243.683 38V39.5H244.373L244.822 38.9758L243.683 38ZM239.688 38L238.208 37.7543L237.918 39.5H239.688V38ZM243.31 17.6818H247.912V14.6818H243.31V17.6818ZM246.433 15.936L244.153 29.6576L247.112 30.1493L249.392 16.4277L246.433 15.936ZM245.633 31.4034H245.824V28.4034H245.633V31.4034ZM246.966 30.8765L258.663 17.1549L256.38 15.2087L244.683 28.9303L246.966 30.8765ZM257.522 17.6818H261.559V14.6818H257.522V17.6818ZM260.08 15.9362L256.457 37.7543L259.417 38.2457L263.039 16.4275L260.08 15.9362ZM257.937 36.5H253.324V39.5H257.937V36.5ZM254.804 38.2457L257.084 24.5134L254.124 24.0221L251.845 37.7543L254.804 38.2457ZM255.604 22.7678H255.444V25.7678H255.604V22.7678ZM254.305 23.292L242.544 37.0242L244.822 38.9758L256.584 25.2435L254.305 23.292ZM243.683 36.5H239.688V39.5H243.683V36.5ZM241.168 38.2457L244.79 16.4275L241.83 15.9362L238.208 37.7543L241.168 38.2457ZM116.56 52.1818L118.04 52.4275L118.329 50.6818H116.56V52.1818ZM112.938 74V75.5H114.209L114.417 74.2457L112.938 74ZM108.378 74L106.898 73.7531L106.607 75.5H108.378V74ZM111.393 55.9318L112.872 56.1787L113.164 54.4318H111.393V55.9318ZM102.572 55.9318V54.4318H101.301L101.092 55.6849L102.572 55.9318ZM99.557 74V75.5H100.827L101.037 74.2469L99.557 74ZM94.9973 74L93.5176 73.7543L93.2278 75.5H94.9973V74ZM98.6195 52.1818V50.6818H97.348L97.1397 51.9362L98.6195 52.1818ZM115.08 51.9362L111.458 73.7543L114.417 74.2457L118.04 52.4275L115.08 51.9362ZM112.938 72.5H108.378V75.5H112.938V72.5ZM109.858 74.2469L112.872 56.1787L109.913 55.6849L106.898 73.7531L109.858 74.2469ZM111.393 54.4318H102.572V57.4318H111.393V54.4318ZM101.092 55.6849L98.0775 73.7531L101.037 74.2469L104.051 56.1787L101.092 55.6849ZM99.557 72.5H94.9973V75.5H99.557V72.5ZM96.4771 74.2457L100.099 52.4275L97.1397 51.9362L93.5176 73.7543L96.4771 74.2457ZM98.6195 53.6818H116.56V50.6818H98.6195V53.6818ZM117.33 74L115.85 73.7543L115.56 75.5H117.33V74ZM120.952 52.1818V50.6818H119.68L119.472 51.9362L120.952 52.1818ZM133.619 53.13L132.849 54.4178L132.86 54.4238L133.619 53.13ZM135.856 55.7401L134.455 56.2755L134.459 56.2863L135.856 55.7401ZM136.154 59.5753L137.634 59.8207L137.635 59.8148L136.154 59.5753ZM134.577 63.4212L133.366 62.5361L133.365 62.5375L134.577 63.4212ZM131.445 65.9993L132.095 67.3512L132.095 67.3512L131.445 65.9993ZM121.506 66.9261L120.026 66.683L119.739 68.4261H121.506V66.9261ZM122.113 63.2294V61.7294H120.839L120.633 62.9863L122.113 63.2294ZM129.144 62.7713L129.797 64.1219L129.803 64.1189L129.144 62.7713ZM130.668 61.4822L131.903 62.3327L131.908 62.3253L130.668 61.4822ZM131.403 59.5753L129.923 59.331L129.921 59.3406L131.403 59.5753ZM131.286 57.6683L132.693 57.1498L132.693 57.1498L131.286 57.6683ZM130.188 56.4112L129.435 57.7082L129.445 57.7142L129.455 57.72L130.188 56.4112ZM124.957 55.9531V54.4531H123.687L123.478 55.706L124.957 55.9531ZM121.942 74V75.5H123.213L123.422 74.2472L121.942 74ZM118.809 74.2457L122.431 52.4275L119.472 51.9362L115.85 73.7543L118.809 74.2457ZM120.952 53.6818H129.56V50.6818H120.952V53.6818ZM129.56 53.6818C131.025 53.6818 132.089 53.9638 132.849 54.4177L134.388 51.8422C133.031 51.032 131.39 50.6818 129.56 50.6818V53.6818ZM132.86 54.4238C133.642 54.8828 134.155 55.4906 134.455 56.2755L137.257 55.2046C136.705 53.7594 135.726 52.6272 134.378 51.8362L132.86 54.4238ZM134.459 56.2863C134.774 57.0923 134.875 58.0901 134.673 59.3358L137.635 59.8148C137.902 58.1628 137.804 56.6037 137.253 55.1938L134.459 56.2863ZM134.674 59.3299C134.468 60.5724 134.027 61.6315 133.366 62.5361L135.789 64.3062C136.747 62.9949 137.357 61.4901 137.634 59.8207L134.674 59.3299ZM133.365 62.5375C132.716 63.4287 131.869 64.1315 130.795 64.6474L132.095 67.3512C133.593 66.6313 134.834 65.6153 135.79 64.3048L133.365 62.5375ZM130.795 64.6474C129.746 65.1518 128.491 65.4261 126.992 65.4261V68.4261C128.86 68.4261 130.573 68.0826 132.095 67.3512L130.795 64.6474ZM126.992 65.4261H121.506V68.4261H126.992V65.4261ZM122.986 67.1693L123.593 63.4725L120.633 62.9863L120.026 66.683L122.986 67.1693ZM122.113 64.7294H126.854V61.7294H122.113V64.7294ZM126.854 64.7294C127.914 64.7294 128.913 64.5488 129.797 64.1219L128.492 61.4207C128.111 61.6046 127.583 61.7294 126.854 61.7294V64.7294ZM129.803 64.1189C130.657 63.7014 131.37 63.1073 131.903 62.3327L129.432 60.6318C129.212 60.9509 128.91 61.2162 128.485 61.4237L129.803 64.1189ZM131.908 62.3253C132.419 61.5737 132.739 60.7267 132.884 59.81L129.921 59.3406C129.839 59.8586 129.669 60.2828 129.427 60.6392L131.908 62.3253ZM132.883 59.8196C133.034 58.9041 133.004 57.9939 132.693 57.1498L129.878 58.1869C129.965 58.4223 130.013 58.7834 129.923 59.331L132.883 59.8196ZM132.693 57.1498C132.363 56.253 131.745 55.5638 130.921 55.1025L129.455 57.72C129.697 57.8553 129.811 58.0041 129.878 58.1869L132.693 57.1498ZM130.942 55.1143C130.106 54.6284 129.107 54.4531 128.068 54.4531V57.4531C128.805 57.4531 129.22 57.5833 129.435 57.7082L130.942 55.1143ZM128.068 54.4531H124.957V57.4531H128.068V54.4531ZM123.478 55.706L120.463 73.7528L123.422 74.2472L126.437 56.2003L123.478 55.706ZM121.942 72.5H117.33V75.5H121.942V72.5ZM158.572 63.3892L160.05 63.6417L160.052 63.6323L158.572 63.3892ZM156.26 69.3232L155.033 68.4604L155.03 68.464L156.26 69.3232ZM152.094 73.0305L151.407 71.6971L151.405 71.6983L152.094 73.0305ZM141.686 72.9453L140.885 74.2134L140.888 74.2152L141.686 72.9453ZM138.586 69.0355L137.181 69.5603L137.181 69.5622L138.586 69.0355ZM138.224 62.8459L139.704 63.0897L139.704 63.0888L138.224 62.8459ZM140.514 56.9013L141.741 57.764L141.743 57.7615L140.514 56.9013ZM144.701 53.1726L145.39 54.5049L145.394 54.5026L144.701 53.1726ZM155.109 53.2472L154.303 54.5124L154.306 54.5142L155.109 53.2472ZM158.209 57.1889L156.802 57.7067L156.804 57.7137L158.209 57.1889ZM153.98 62.8459L155.46 63.0925L155.46 63.0913L153.98 62.8459ZM153.948 59.0746L152.495 59.4479L152.498 59.4598L153.948 59.0746ZM152.499 56.7521L153.397 55.5507L153.397 55.5507L152.499 56.7521ZM146.629 56.8374L145.859 55.5503L145.855 55.5528L146.629 56.8374ZM144.179 59.3729L142.894 58.5987L142.893 58.6011L144.179 59.3729ZM142.805 63.3892L144.283 63.6403L144.285 63.6293L142.805 63.3892ZM142.826 67.1605L141.377 67.5483L141.379 67.5578L142.826 67.1605ZM144.307 69.451L143.422 70.6625L143.429 70.6675L143.436 70.6724L144.307 69.451ZM150.155 69.3658L150.92 70.6562L150.923 70.6545L150.155 69.3658ZM152.595 66.8622L153.879 67.6376L153.881 67.634L152.595 66.8622ZM157.093 63.1368C156.726 65.2877 156.026 67.0474 155.033 68.4604L157.487 70.1859C158.78 68.346 159.622 66.1498 160.05 63.6416L157.093 63.1368ZM155.03 68.464C154.023 69.906 152.815 70.9719 151.407 71.6971L152.781 74.364C154.655 73.3989 156.224 71.9932 157.489 70.1823L155.03 68.464ZM151.405 71.6983C149.99 72.4302 148.466 72.7983 146.81 72.7983V75.7983C148.933 75.7983 150.931 75.3212 152.784 74.3628L151.405 71.6983ZM146.81 72.7983C145.063 72.7983 143.642 72.4031 142.484 71.6754L140.888 74.2152C142.599 75.2915 144.595 75.7983 146.81 75.7983V72.7983ZM142.487 71.6772C141.358 70.9639 140.524 69.9325 139.99 68.5088L137.181 69.5622C137.926 71.5476 139.158 73.1227 140.885 74.2134L142.487 71.6772ZM139.991 68.5107C139.469 67.1138 139.334 65.3307 139.704 63.0897L136.743 62.6021C136.317 65.1906 136.424 67.5339 137.181 69.5603L139.991 68.5107ZM139.704 63.0888C140.058 60.933 140.75 59.1735 141.741 57.764L139.287 56.0386C137.991 57.8819 137.157 60.0854 136.743 62.6029L139.704 63.0888ZM141.743 57.7615C142.758 56.3114 143.974 55.2375 145.39 54.5049L144.012 51.8403C142.133 52.8122 140.557 54.2241 139.285 56.0411L141.743 57.7615ZM145.394 54.5026C146.824 53.7572 148.357 53.3835 150.017 53.3835V50.3835C147.884 50.3835 145.874 50.8692 144.007 51.8426L145.394 54.5026ZM150.017 53.3835C151.746 53.3835 153.154 53.7802 154.303 54.5124L155.915 51.9819C154.21 50.8959 152.222 50.3835 150.017 50.3835V53.3835ZM154.306 54.5142C155.44 55.2327 156.274 56.2716 156.802 57.7067L159.617 56.6712C158.881 54.6687 157.648 53.0798 155.912 51.9801L154.306 54.5142ZM156.804 57.7137C157.326 59.1103 157.461 60.897 157.091 63.1461L160.052 63.6323C160.478 61.0377 160.371 58.6908 159.615 56.6642L156.804 57.7137ZM155.46 63.0913C155.729 61.4691 155.741 59.9811 155.398 58.6893L152.498 59.4598C152.695 60.1993 152.728 61.2255 152.5 62.6004L155.46 63.0913ZM155.401 58.7013C155.071 57.417 154.427 56.3203 153.397 55.5507L151.601 57.9536C151.978 58.2351 152.3 58.6867 152.495 59.4479L155.401 58.7013ZM153.397 55.5507C152.382 54.7915 151.159 54.4638 149.836 54.4638V57.4638C150.658 57.4638 151.21 57.6616 151.601 57.9536L153.397 55.5507ZM149.836 54.4638C148.407 54.4638 147.071 54.8246 145.859 55.5503L147.399 58.1244C148.133 57.6853 148.935 57.4638 149.836 57.4638V54.4638ZM145.855 55.5528C144.651 56.2787 143.669 57.3126 142.894 58.5987L145.464 60.147C146.024 59.2173 146.676 58.5608 147.404 58.1219L145.855 55.5528ZM142.893 58.6011C142.113 59.8998 141.603 61.4288 141.324 63.1491L144.285 63.6293C144.518 62.1962 144.923 61.0477 145.465 60.1446L142.893 58.6011ZM141.326 63.1381C141.049 64.7659 141.032 66.258 141.377 67.5483L144.275 66.7727C144.08 66.046 144.048 65.0238 144.283 63.6403L141.326 63.1381ZM141.379 67.5578C141.729 68.8291 142.389 69.9079 143.422 70.6625L145.191 68.2395C144.804 67.9571 144.477 67.509 144.272 66.7633L141.379 67.5578ZM143.436 70.6724C144.457 71.4002 145.67 71.718 146.981 71.718V68.718C146.161 68.718 145.591 68.5246 145.177 68.2296L143.436 70.6724ZM146.981 71.718C148.397 71.718 149.721 71.367 150.92 70.6562L149.391 68.0753C148.673 68.5009 147.88 68.718 146.981 68.718V71.718ZM150.923 70.6545C152.128 69.9368 153.109 68.9132 153.879 67.6376L151.311 66.0868C150.76 66.9987 150.115 67.6442 149.388 68.077L150.923 70.6545ZM153.881 67.634C154.659 66.3375 155.173 64.8109 155.46 63.0925L152.5 62.5993C152.261 64.0342 151.852 65.1852 151.309 66.0905L153.881 67.634ZM160.22 74L158.74 73.7543L158.451 75.5H160.22V74ZM163.842 52.1818V50.6818H162.571L162.363 51.9362L163.842 52.1818ZM178.544 52.1818L180.023 52.4304L180.317 50.6818H178.544V52.1818ZM177.905 55.9851V57.4851H179.174L179.384 56.2337L177.905 55.9851ZM167.816 55.9851V54.4851H166.542L166.336 55.7424L167.816 55.9851ZM166.964 61.1839L165.484 60.9413L165.198 62.6839H166.964V61.1839ZM176.296 61.1839L177.775 61.4326L178.069 59.6839H176.296V61.1839ZM175.657 64.9872V66.4872H176.926L177.136 65.2358L175.657 64.9872ZM166.325 64.9872V63.4872H165.05L164.844 64.745L166.325 64.9872ZM165.472 70.1967L163.992 69.9546L163.707 71.6967H165.472V70.1967ZM175.604 70.1967L177.083 70.4453L177.377 68.6967H175.604V70.1967ZM174.964 74V75.5H176.233L176.444 74.2486L174.964 74ZM161.7 74.2457L165.322 52.4275L162.363 51.9362L158.74 73.7543L161.7 74.2457ZM163.842 53.6818H178.544V50.6818H163.842V53.6818ZM177.065 51.9332L176.426 55.7365L179.384 56.2337L180.023 52.4304L177.065 51.9332ZM177.905 54.4851H167.816V57.4851H177.905V54.4851ZM166.336 55.7424L165.484 60.9413L168.444 61.4266L169.296 56.2277L166.336 55.7424ZM166.964 62.6839H176.296V59.6839H166.964V62.6839ZM174.817 60.9353L174.178 64.7386L177.136 65.2358L177.775 61.4326L174.817 60.9353ZM175.657 63.4872H166.325V66.4872H175.657V63.4872ZM164.844 64.745L163.992 69.9546L166.953 70.4389L167.805 65.2294L164.844 64.745ZM165.472 71.6967H175.604V68.6967H165.472V71.6967ZM174.124 69.9481L173.485 73.7514L176.444 74.2486L177.083 70.4453L174.124 69.9481ZM174.964 72.5H160.22V75.5H174.964V72.5ZM191.789 74L190.496 74.7599L190.931 75.5H191.789V74ZM186.324 64.6996L187.617 63.9396L187.182 63.1996H186.324V64.6996ZM184.747 64.6996V63.1996H183.476L183.267 64.4538L184.747 64.6996ZM183.202 74V75.5H184.474L184.682 74.2458L183.202 74ZM178.589 74L177.11 73.7543L176.82 75.5H178.589V74ZM182.211 52.1818V50.6818H180.94L180.732 51.9362L182.211 52.1818ZM186.824 52.1818L188.304 52.4278L188.594 50.6818H186.824V52.1818ZM185.376 60.8963L183.896 60.6503L183.606 62.3963H185.376V60.8963ZM186.302 60.8963V62.3963H186.925L187.364 61.9557L186.302 60.8963ZM194.996 52.1818V50.6818H194.373L193.934 51.1225L194.996 52.1818ZM200.738 52.1818L201.795 53.2458L204.375 50.6818H200.738V52.1818ZM190.553 62.3026L189.496 61.2386L188.666 62.0635L189.264 63.0693L190.553 62.3026ZM197.51 74V75.5H200.147L198.799 73.2333L197.51 74ZM193.082 73.2401L187.617 63.9396L185.03 65.4595L190.496 74.7599L193.082 73.2401ZM186.324 63.1996H184.747V66.1996H186.324V63.1996ZM183.267 64.4538L181.723 73.7542L184.682 74.2458L186.227 64.9453L183.267 64.4538ZM183.202 72.5H178.589V75.5H183.202V72.5ZM180.069 74.2457L183.691 52.4275L180.732 51.9362L177.11 73.7543L180.069 74.2457ZM182.211 53.6818H186.824V50.6818H182.211V53.6818ZM185.345 51.9358L183.896 60.6503L186.855 61.1423L188.304 52.4278L185.345 51.9358ZM185.376 62.3963H186.302V59.3963H185.376V62.3963ZM187.364 61.9557L196.058 53.2412L193.934 51.1225L185.24 59.8369L187.364 61.9557ZM194.996 53.6818H200.738V50.6818H194.996V53.6818ZM199.68 51.1178L189.496 61.2386L191.61 63.3666L201.795 53.2458L199.68 51.1178ZM189.264 63.0693L196.221 74.7667L198.799 73.2333L191.842 61.5358L189.264 63.0693ZM197.51 72.5H191.789V75.5H197.51V72.5ZM201.982 55.9851L200.502 55.7365L200.208 57.4851H201.982V55.9851ZM202.621 52.1818V50.6818H201.352L201.141 51.9332L202.621 52.1818ZM220.54 52.1818L222.019 52.4304L222.313 50.6818H220.54V52.1818ZM219.901 55.9851V57.4851H221.17L221.38 56.2337L219.901 55.9851ZM213.221 55.9851V54.4851H211.949L211.741 55.74L213.221 55.9851ZM210.238 74V75.5H211.51L211.718 74.245L210.238 74ZM205.678 74L204.198 73.755L203.909 75.5H205.678V74ZM208.661 55.9851L210.141 56.2301L210.43 54.4851H208.661V55.9851ZM203.461 56.2337L204.1 52.4304L201.141 51.9332L200.502 55.7365L203.461 56.2337ZM202.621 53.6818H220.54V50.6818H202.621V53.6818ZM219.061 51.9332L218.421 55.7365L221.38 56.2337L222.019 52.4304L219.061 51.9332ZM219.901 54.4851H213.221V57.4851H219.901V54.4851ZM211.741 55.74L208.758 73.755L211.718 74.245L214.701 56.2301L211.741 55.74ZM210.238 72.5H205.678V75.5H210.238V72.5ZM207.158 74.245L210.141 56.2301L207.181 55.74L204.198 73.755L207.158 74.245ZM208.661 54.4851H201.982V57.4851H208.661V54.4851ZM224.993 60.2464V58.7464H223.722L223.513 59.9999L224.993 60.2464ZM234.528 61.0881L233.873 62.4379L233.883 62.4427L234.528 61.0881ZM237.042 63.4425L235.702 64.117L235.706 64.1245L237.042 63.4425ZM237.468 67.0327L235.989 66.7811L235.988 66.7873L237.468 67.0327ZM235.838 70.6655L236.996 71.6188L236.999 71.6149L235.838 70.6655ZM232.514 73.1158L231.916 71.74L231.914 71.7412L232.514 73.1158ZM219.741 74L218.261 73.7543L217.971 75.5H219.741V74ZM223.363 52.1818V50.6818H222.091L221.883 51.9362L223.363 52.1818ZM227.976 52.1818L229.456 52.4273L229.745 50.6818H227.976V52.1818ZM224.972 70.2926L223.492 70.0471L223.202 71.7926H224.972V70.2926ZM230.682 69.8452L231.334 71.196L231.34 71.1929L230.682 69.8452ZM232.184 68.6413L230.99 67.7333L230.988 67.7359L232.184 68.6413ZM232.898 66.9901L231.419 66.7356L231.417 66.7481L231.415 66.7606L232.898 66.9901ZM232.28 64.7955L231.181 65.8166L231.187 65.8231L232.28 64.7955ZM224.386 63.8899L222.906 63.6433L222.615 65.3899H224.386V63.8899ZM246.502 52.1818L247.982 52.4275L248.272 50.6818H246.502V52.1818ZM242.88 74V75.5H244.151L244.36 74.2457L242.88 74ZM238.278 74L236.798 73.7543L236.508 75.5H238.278V74ZM241.9 52.1818V50.6818H240.628L240.42 51.9362L241.9 52.1818ZM224.993 61.7464H230.192V58.7464H224.993V61.7464ZM230.192 61.7464C231.773 61.7464 232.978 62.0038 233.873 62.4379L235.182 59.7382C233.762 59.0502 232.077 58.7464 230.192 58.7464V61.7464ZM233.883 62.4427C234.79 62.8737 235.36 63.4385 235.702 64.117L238.382 62.7679C237.701 61.4152 236.595 60.4104 235.172 59.7335L233.883 62.4427ZM235.706 64.1245C236.047 64.7925 236.182 65.6484 235.989 66.7811L238.947 67.2842C239.223 65.6613 239.074 64.1237 238.378 62.7605L235.706 64.1245ZM235.988 66.7873C235.803 67.9059 235.366 68.8727 234.677 69.7161L236.999 71.6149C238.029 70.356 238.679 68.9009 238.948 67.278L235.988 66.7873ZM234.68 69.7122C233.985 70.5564 233.076 71.2361 231.916 71.74L233.112 74.4915C234.665 73.8165 235.972 72.8627 236.996 71.6188L234.68 69.7122ZM231.914 71.7412C230.783 72.235 229.456 72.5 227.901 72.5V75.5C229.799 75.5 231.546 75.1755 233.115 74.4903L231.914 71.7412ZM227.901 72.5H219.741V75.5H227.901V72.5ZM221.221 74.2457L224.843 52.4275L221.883 51.9362L218.261 73.7543L221.221 74.2457ZM223.363 53.6818H227.976V50.6818H223.363V53.6818ZM226.496 51.9363L223.492 70.0471L226.451 70.5381L229.456 52.4273L226.496 51.9363ZM224.972 71.7926H228.519V68.7926H224.972V71.7926ZM228.519 71.7926C229.524 71.7926 230.476 71.6102 231.334 71.196L230.03 68.4943C229.652 68.6767 229.162 68.7926 228.519 68.7926V71.7926ZM231.34 71.1929C232.152 70.7963 232.846 70.2522 233.38 69.5468L230.988 67.7359C230.769 68.0248 230.462 68.2832 230.023 68.4975L231.34 71.1929ZM233.378 69.5494C233.905 68.8566 234.248 68.0751 234.38 67.2195L231.415 66.7606C231.363 67.0982 231.23 67.4175 230.99 67.7333L233.378 69.5494ZM234.376 67.2445C234.598 65.9535 234.283 64.7358 233.373 63.7678L231.187 65.8231C231.399 66.0483 231.496 66.2937 231.419 66.7356L234.376 67.2445ZM233.379 63.7743C232.418 62.7404 231.029 62.3899 229.585 62.3899V65.3899C230.612 65.3899 231.02 65.6431 231.181 65.8166L233.379 63.7743ZM229.585 62.3899H224.386V65.3899H229.585V62.3899ZM225.865 64.1365L226.472 60.493L223.513 59.9999L222.906 63.6433L225.865 64.1365ZM245.022 51.9362L241.4 73.7543L244.36 74.2457L247.982 52.4275L245.022 51.9362ZM242.88 72.5H238.278V75.5H242.88V72.5ZM239.757 74.2457L243.38 52.4275L240.42 51.9362L236.798 73.7543L239.757 74.2457ZM241.9 53.6818H246.502V50.6818H241.9V53.6818Z" fill="url(#paint1_linear_1744_87)"/>
<path d="M80.6805 38V16.1818H89.4163C91.0214 16.1818 92.3602 16.4197 93.4326 16.8956C94.5051 17.3714 95.3112 18.032 95.8509 18.8771C96.3907 19.7152 96.6606 20.6811 96.6606 21.7749C96.6606 22.6271 96.4901 23.3764 96.1492 24.0227C95.8083 24.6619 95.3396 25.1875 94.743 25.5994C94.1535 26.0043 93.4788 26.2919 92.7188 26.4624V26.6754C93.5498 26.7109 94.3275 26.9453 95.0519 27.3786C95.7835 27.8118 96.3765 28.419 96.8311 29.2003C97.2856 29.9744 97.5129 30.8977 97.5129 31.9702C97.5129 33.1278 97.2252 34.1612 96.6499 35.0703C96.0818 35.9723 95.2401 36.6861 94.1251 37.2116C93.01 37.7372 91.6357 38 90.0022 38H80.6805ZM85.2934 34.2287H89.0541C90.3396 34.2287 91.2771 33.9837 91.8666 33.4936C92.4561 32.9964 92.7508 32.3359 92.7508 31.5121C92.7508 30.9084 92.6052 30.3757 92.314 29.9141C92.0228 29.4524 91.6073 29.0902 91.0676 28.8274C90.5349 28.5646 89.8992 28.4332 89.1606 28.4332H85.2934V34.2287ZM85.2934 25.3118H88.7132C89.3453 25.3118 89.9063 25.2017 90.3964 24.9815C90.8936 24.7543 91.2842 24.4347 91.5683 24.0227C91.8595 23.6108 92.0051 23.1172 92.0051 22.5419C92.0051 21.7536 91.7245 21.1179 91.1634 20.6349C90.6095 20.152 89.8211 19.9105 88.7984 19.9105H85.2934V25.3118ZM119.765 23.8203H115.099C115.014 23.2166 114.84 22.6804 114.577 22.2116C114.314 21.7358 113.977 21.331 113.565 20.9972C113.153 20.6634 112.677 20.4077 112.137 20.2301C111.605 20.0526 111.026 19.9638 110.401 19.9638C109.272 19.9638 108.288 20.2443 107.45 20.8054C106.612 21.3594 105.962 22.169 105.5 23.2344C105.039 24.2926 104.808 25.5781 104.808 27.0909C104.808 28.6463 105.039 29.9531 105.5 31.0114C105.969 32.0696 106.622 32.8686 107.46 33.4084C108.299 33.9482 109.268 34.218 110.369 34.218C110.987 34.218 111.559 34.1364 112.084 33.973C112.617 33.8097 113.089 33.5717 113.501 33.2592C113.913 32.9396 114.254 32.5526 114.524 32.098C114.801 31.6435 114.992 31.125 115.099 30.5426L119.765 30.5639C119.644 31.5653 119.343 32.5312 118.86 33.4616C118.384 34.3849 117.741 35.2124 116.931 35.9439C116.129 36.6683 115.17 37.2436 114.055 37.6697C112.947 38.0888 111.693 38.2983 110.294 38.2983C108.348 38.2983 106.608 37.858 105.074 36.9773C103.547 36.0966 102.34 34.8217 101.452 33.1527C100.571 31.4837 100.131 29.4631 100.131 27.0909C100.131 24.7116 100.578 22.6875 101.473 21.0185C102.368 19.3494 103.583 18.0781 105.117 17.2045C106.651 16.3239 108.377 15.8835 110.294 15.8835C111.559 15.8835 112.73 16.0611 113.81 16.4162C114.897 16.7713 115.859 17.2898 116.697 17.9716C117.535 18.6463 118.217 19.4737 118.742 20.4538C119.275 21.4339 119.616 22.5561 119.765 23.8203ZM123.073 38V16.1818H137.775V19.9851H127.686V25.1839H137.018V28.9872H127.686V34.1967H137.817V38H123.073ZM148.386 16.1818H152.988V29.9034H153.169L162.597 16.1818H166.635V38H162.022V24.2678H161.862L152.381 38H148.386V16.1818ZM184.924 16.1818V19.9851H175.059V38H170.446V16.1818H184.924ZM187.878 38V16.1818H196.486C198.141 16.1818 199.55 16.4979 200.715 17.13C201.88 17.755 202.768 18.625 203.378 19.7401C203.996 20.848 204.305 22.1264 204.305 23.5753C204.305 25.0241 203.993 26.3026 203.368 27.4105C202.743 28.5185 201.837 29.3814 200.651 29.9993C199.472 30.6172 198.045 30.9261 196.369 30.9261H190.882V27.2294H195.623C196.511 27.2294 197.242 27.0767 197.817 26.7713C198.4 26.4588 198.833 26.0291 199.117 25.4822C199.408 24.9283 199.554 24.2926 199.554 23.5753C199.554 22.8509 199.408 22.2187 199.117 21.679C198.833 21.1321 198.4 20.7095 197.817 20.4112C197.235 20.1058 196.496 19.9531 195.601 19.9531H192.491V38H187.878ZM210.338 24.2464H215.537C217.27 24.2464 218.761 24.527 220.011 25.0881C221.268 25.642 222.238 26.4268 222.919 27.4425C223.601 28.4581 223.939 29.6548 223.932 31.0327C223.939 32.4034 223.601 33.6143 222.919 34.6655C222.238 35.7095 221.268 36.5263 220.011 37.1158C218.761 37.7053 217.27 38 215.537 38H207.387V16.1818H211.989V34.2926H215.537C216.368 34.2926 217.067 34.1435 217.635 33.8452C218.204 33.5398 218.633 33.1385 218.924 32.6413C219.223 32.1371 219.368 31.5866 219.361 30.9901C219.368 30.1236 219.042 29.392 218.381 28.7955C217.728 28.1918 216.78 27.8899 215.537 27.8899H210.338V24.2464ZM230.313 16.1818V38H225.711V16.1818H230.313ZM241.052 16.1818H245.654V29.9034H245.835L255.263 16.1818H259.301V38H254.688V24.2678H254.528L245.047 38H241.052V16.1818ZM114.301 52.1818V74H109.742V55.9318H100.921V74H96.361V52.1818H114.301ZM118.693 74V52.1818H127.301C128.956 52.1818 130.366 52.4979 131.531 53.13C132.695 53.755 133.583 54.625 134.194 55.7401C134.812 56.848 135.121 58.1264 135.121 59.5753C135.121 61.0241 134.808 62.3026 134.183 63.4105C133.558 64.5185 132.653 65.3814 131.467 65.9993C130.288 66.6172 128.86 66.9261 127.184 66.9261H121.697V63.2294H126.438C127.326 63.2294 128.058 63.0767 128.633 62.7713C129.215 62.4588 129.648 62.0291 129.933 61.4822C130.224 60.9283 130.369 60.2926 130.369 59.5753C130.369 58.8509 130.224 58.2187 129.933 57.679C129.648 57.1321 129.215 56.7095 128.633 56.4112C128.05 56.1058 127.312 55.9531 126.417 55.9531H123.306V74H118.693ZM158.167 63.0909C158.167 65.4702 157.716 67.4943 156.814 69.1634C155.919 70.8324 154.697 72.1072 153.149 72.9879C151.608 73.8615 149.875 74.2983 147.95 74.2983C146.011 74.2983 144.271 73.858 142.73 72.9773C141.189 72.0966 139.971 70.8217 139.076 69.1527C138.181 67.4837 137.733 65.4631 137.733 63.0909C137.733 60.7116 138.181 58.6875 139.076 57.0185C139.971 55.3494 141.189 54.0781 142.73 53.2045C144.271 52.3239 146.011 51.8835 147.95 51.8835C149.875 51.8835 151.608 52.3239 153.149 53.2045C154.697 54.0781 155.919 55.3494 156.814 57.0185C157.716 58.6875 158.167 60.7116 158.167 63.0909ZM153.49 63.0909C153.49 61.5497 153.259 60.25 152.797 59.1918C152.343 58.1335 151.7 57.331 150.869 56.7841C150.038 56.2372 149.065 55.9638 147.95 55.9638C146.835 55.9638 145.862 56.2372 145.031 56.7841C144.2 57.331 143.554 58.1335 143.092 59.1918C142.638 60.25 142.41 61.5497 142.41 63.0909C142.41 64.6321 142.638 65.9318 143.092 66.9901C143.554 68.0483 144.2 68.8509 145.031 69.3977C145.862 69.9446 146.835 70.218 147.95 70.218C149.065 70.218 150.038 69.9446 150.869 69.3977C151.7 68.8509 152.343 68.0483 152.797 66.9901C153.259 65.9318 153.49 64.6321 153.49 63.0909ZM161.584 74V52.1818H176.286V55.9851H166.197V61.1839H175.529V64.9872H166.197V70.1967H176.328V74H161.584ZM193.153 74L186.143 64.6996H184.566V74H179.953V52.1818H184.566V60.8963H185.493L192.737 52.1818H198.479L189.967 62.3026L198.873 74H193.153ZM200.362 55.9851V52.1818H218.281V55.9851H211.602V74H207.042V55.9851H200.362ZM224.268 60.2464H229.467C231.2 60.2464 232.692 60.527 233.942 61.0881C235.199 61.642 236.168 62.4268 236.85 63.4425C237.532 64.4581 237.869 65.6548 237.862 67.0327C237.869 68.4034 237.532 69.6143 236.85 70.6655C236.168 71.7095 235.199 72.5263 233.942 73.1158C232.692 73.7053 231.2 74 229.467 74H221.317V52.1818H225.92V70.2926H229.467C230.298 70.2926 230.998 70.1435 231.566 69.8452C232.134 69.5398 232.564 69.1385 232.855 68.6413C233.153 68.1371 233.299 67.5866 233.292 66.9901C233.299 66.1236 232.972 65.392 232.312 64.7955C231.658 64.1918 230.71 63.8899 229.467 63.8899H224.268V60.2464ZM244.244 52.1818V74H239.641V52.1818H244.244Z" fill="white"/>
</g>
<defs>
<filter id="filter0_b_1744_87" x="-100" y="-100" width="540" height="290" filterUnits="userSpaceOnUse" color-interpolation-filters="sRGB">
<feFlood flood-opacity="0" result="BackgroundImageFix"/>
<feGaussianBlur in="BackgroundImageFix" stdDeviation="50"/>
<feComposite in2="SourceAlpha" operator="in" result="effect1_backgroundBlur_1744_87"/>
<feBlend mode="normal" in="SourceGraphic" in2="effect1_backgroundBlur_1744_87" result="shape"/>
</filter>
<linearGradient id="paint0_linear_1744_87" x1="0" y1="0" x2="17.2633" y2="132.158" gradientUnits="userSpaceOnUse">
<stop stop-color="white" stop-opacity="0.3"/>
<stop offset="1" stop-opacity="0.3"/>
</linearGradient>
<linearGradient id="paint1_linear_1744_87" x1="-1.2666e-06" y1="45" x2="340" y2="45" gradientUnits="userSpaceOnUse">
<stop stop-color="#8D72E1"/>
<stop offset="1" stop-color="#8D9EFF"/>
</linearGradient>
<clipPath id="clip0_1744_87">
<rect width="340" height="90" fill="white"/>
</clipPath>
</defs>
</svg>
