<svg width="35" height="35" viewBox="0 0 35 35" fill="none" xmlns="http://www.w3.org/2000/svg">
<path d="M17.396 6.19788C12.7639 6.19788 8.46005 6.52791 6.00424 7.04097C5.99901 7.04236 5.99379 7.04378 5.98858 7.04525C4.13838 7.45984 2.39619 8.78513 2.02943 10.8606C2.02894 10.8634 2.02847 10.8662 2.028 10.8691C1.74624 12.5418 1.45834 14.7223 1.45834 17.8645C1.45834 21.0008 1.74723 23.1235 2.10349 24.8842C2.47923 26.8984 4.18121 28.2638 6.05978 28.6838C6.06877 28.6863 6.07779 28.6887 6.08684 28.691C8.6499 29.196 12.8322 29.5312 17.4644 29.5312C22.0966 29.5312 26.2811 29.196 28.8448 28.691C28.8539 28.6887 28.8629 28.6863 28.8719 28.6838C30.7221 28.2692 32.4643 26.944 32.831 24.8685C32.832 24.8633 32.833 24.8581 32.8339 24.8529C33.1113 23.146 33.4708 20.9676 33.5417 17.8204C33.5418 17.8123 33.5418 17.8043 33.5417 17.7962C33.5417 14.6472 33.1813 12.4532 32.8296 10.7153C32.4568 8.69678 30.7529 7.3277 28.8719 6.9071C28.8431 6.90072 28.8142 6.89549 28.785 6.89144C26.2838 6.53982 22.0289 6.19788 17.396 6.19788ZM14.6973 12.3972C14.9674 12.3916 15.2465 12.4555 15.509 12.6037L21.7824 16.1484C22.8405 16.7464 22.8405 18.255 21.7824 18.8529L15.509 22.3976C14.4598 22.9897 13.1521 22.2398 13.1521 21.0447V13.9552C13.1521 13.0589 13.887 12.414 14.6973 12.3972Z" fill="#8D9EFF"/>
</svg>
